<?xml version="1.0" encoding="UTF-8"?>
<svg width="2000px" height="1169px" viewBox="0 0 2000 1169" version="1.1" xmlns="http://www.w3.org/2000/svg" xmlns:xlink="http://www.w3.org/1999/xlink">
    <!-- Generator: Sketch 56.3 (81716) - https://sketch.com -->
    <title>KAWS-landing</title>
    <desc>Created with Sketch.</desc>
    <defs>
        <polygon id="path-1" points="0 -0.00019375 244.597776 -0.00019375 244.597776 123.4823 0 123.4823"></polygon>
    </defs>
    <g id="Page-1" stroke="none" stroke-width="1" fill="none" fill-rule="evenodd">
        <g id="Artboard">
            <g id="KAWS-landing">
                <g id="Group" transform="translate(726.000000, 41.000000)">
                    <g id="Group-3" transform="translate(150.024620, 0.000000)">
                        <mask id="mask-2" fill="white">
                            <use xlink:href="#path-1"></use>
                        </mask>
                        <g id="Clip-2"></g>
                        <path d="M18.3045866,69.6316187 L33.5312402,122.180494 L52.3229331,122.180494 L33.5312402,57.4292437 L50.5404134,1.13905625 L32.7210039,1.13905625 L18.3045866,49.6211187 L18.3045866,1.13905625 L-0.000964566929,1.13905625 L-0.000964566929,122.180494 L18.3045866,122.180494 L18.3045866,69.6316187 Z M90.8747441,122.180494 L108.532106,122.180494 L92.819311,1.13905625 L71.1126969,1.13905625 L56.3702559,122.180494 L72.7312402,122.180494 L74.9999016,99.4032437 L88.4440354,99.4032437 L90.8747441,122.180494 Z M81.6419094,36.6049937 L86.5013976,81.3457437 L76.9444685,81.3457437 L81.6419094,36.6049937 Z M141.738287,1.13905625 L133.637854,79.3927437 L125.377303,1.13905625 L106.909705,1.13905625 L121.974311,122.180494 L142.224429,122.180494 L149.998839,51.7349312 L157.61313,122.180494 L177.21313,122.180494 L192.601831,1.13905625 L175.43061,1.13905625 L167.008012,79.5554937 L158.745531,1.13905625 L141.738287,1.13905625 Z M218.517815,-0.00019375 C204.101398,-0.00019375 196.002894,7.32161875 196.002894,23.5908062 L196.002894,27.4948687 C196.002894,39.5344937 198.269626,47.3426187 206.045965,57.4292437 L217.707579,72.3964312 C224.349587,81.1829937 225.159823,83.9478062 225.159823,92.7343687 L225.159823,95.4991812 C225.159823,103.146494 223.53935,105.911306 219.166004,105.911306 C215.116752,105.911306 213.172185,103.146494 213.172185,97.4521812 L213.172185,76.3024312 L195.03061,76.3024312 L195.03061,100.542494 C195.03061,115.509681 202.642972,123.482494 217.385413,123.482494 L220.948524,123.482494 C237.147461,123.482494 244.597776,112.907619 244.597776,95.1736812 L244.597776,91.2696187 C244.597776,77.4416812 242.006949,71.4218687 233.744469,60.6842437 L222.082854,45.5543062 C215.926988,37.5814937 214.63061,33.8401812 214.63061,27.0066187 L214.63061,24.7281187 C214.63061,19.0357438 215.602894,16.2689937 219.97624,16.2689937 C224.349587,16.2689937 225.159823,19.3593062 225.159823,23.4280562 L225.159823,40.8345562 L242.817185,40.8345562 L242.817185,20.9868062 C242.817185,6.67061875 236.985413,-0.00019375 221.920807,-0.00019375 L218.517815,-0.00019375 Z" id="Fill-1" fill="#FEFEFE" mask="url(#mask-2)"></path>
                    </g>
                    <path d="M12.5774563,171.520719 C5.25276596,171.520719 1.13686838e-13,167.114232 1.13686838e-13,160.05218 C1.13686838e-13,152.990128 5.28194799,148.554459 12.7233664,148.554459 C15.1746572,148.554459 17.9761324,148.963007 19.7270544,149.86765 L20.9526998,156.200151 L20.4274232,156.200151 L17.1298534,150.889021 C16.721305,150.217835 16.4586667,150.01356 15.7582979,149.809286 C14.8536548,149.546648 13.8906478,149.488284 12.6066383,149.488284 C7.8499669,149.488284 3.35593381,152.318941 3.35593381,159.468539 C3.35593381,165.917768 6.85777778,170.586894 12.8400946,170.586894 C14.124104,170.586894 15.0871111,170.52853 15.9917541,170.265891 C16.6921229,170.061617 16.9547612,169.857343 17.3633097,169.186156 L20.6608794,163.875026 L21.186156,163.875026 L19.9605106,170.207527 C18.2095887,171.11217 15.028747,171.520719 12.5774563,171.520719 Z M24.6565351,171.170534 L24.6565351,170.470165 L25.9697266,170.382619 C26.8160056,170.324255 27.2829181,170.149163 27.2829181,169.332066 L27.2829181,150.889021 C27.2829181,150.071924 26.8160056,149.896832 25.9697266,149.838468 L24.6565351,149.750922 L24.6565351,149.050553 L32.8858685,149.050553 L32.8858685,149.750922 L31.572677,149.838468 C30.697216,149.896832 30.2303035,150.071924 30.2303035,150.889021 L30.2303035,158.972444 L42.1073909,158.972444 L42.1073909,150.889021 C42.1073909,150.071924 41.6404784,149.896832 40.7941994,149.838468 L39.4810079,149.750922 L39.4810079,149.050553 L47.7103413,149.050553 L47.7103413,149.750922 L46.3971498,149.838468 C45.5508708,149.896832 45.0839583,150.071924 45.0839583,150.889021 L45.0839583,169.332066 C45.0839583,170.149163 45.5508708,170.324255 46.3971498,170.382619 L47.7103413,170.470165 L47.7103413,171.170534 L39.4810079,171.170534 L39.4810079,170.470165 L40.7941994,170.382619 C41.6404784,170.324255 42.1073909,170.149163 42.1073909,169.332066 L42.1073909,160.139726 L30.2303035,160.139726 L30.2303035,169.332066 C30.2303035,170.149163 30.697216,170.324255 31.572677,170.382619 L32.8858685,170.470165 L32.8858685,171.170534 L24.6565351,171.170534 Z M62.6492594,171.520719 C56.2292121,171.520719 51.0056282,166.939139 51.0056282,160.05218 C51.0056282,153.136038 56.2292121,148.554459 62.6492594,148.554459 C69.0693067,148.554459 74.2928906,153.136038 74.2928906,160.05218 C74.2928906,166.939139 69.0693067,171.520719 62.6492594,171.520719 Z M62.6492594,170.557712 C67.3767488,170.557712 70.9077748,166.764047 70.9077748,160.05218 C70.9077748,153.31113 67.3767488,149.517466 62.6492594,149.517466 C57.92177,149.517466 54.361562,153.31113 54.361562,160.05218 C54.361562,166.764047 57.92177,170.557712 62.6492594,170.557712 Z M89.5819931,171.520719 C83.1619458,171.520719 77.9383619,166.939139 77.9383619,160.05218 C77.9383619,153.136038 83.1619458,148.554459 89.5819931,148.554459 C96.0020404,148.554459 101.225624,153.136038 101.225624,160.05218 C101.225624,166.939139 96.0020404,171.520719 89.5819931,171.520719 Z M89.5819931,170.557712 C94.3094825,170.557712 97.8405085,166.764047 97.8405085,160.05218 C97.8405085,153.31113 94.3094825,149.517466 89.5819931,149.517466 C84.8545038,149.517466 81.2942957,153.31113 81.2942957,160.05218 C81.2942957,166.764047 84.8545038,170.557712 89.5819931,170.557712 Z M111.670509,171.520719 C109.423493,171.520719 107.614207,171.287262 106.009195,170.761986 L105.338008,164.0793 L105.863285,164.0793 L108.37294,169.24452 C108.635578,169.769797 109.044126,170.119981 109.511039,170.295073 C110.036315,170.499348 110.649138,170.586894 111.699691,170.586894 C114.734623,170.586894 117.302642,169.069428 117.302642,166.472227 C117.302642,163.670752 115.230717,162.35756 112.137422,161.365371 L110.590774,160.869277 C107.205658,159.789541 105.22128,157.659253 105.22128,154.420047 C105.22128,150.655565 108.95658,148.554459 112.866973,148.554459 C114.705441,148.554459 116.397999,148.787915 117.827918,149.342374 L118.878472,155.295508 L118.353195,155.295508 L115.522538,150.655565 C115.084807,149.926014 114.763805,149.809286 114.180164,149.663376 C113.654888,149.546648 113.100429,149.517466 112.458424,149.517466 C110.09468,149.517466 107.789299,150.947385 107.789299,153.45704 C107.789299,155.441418 108.927398,156.90052 111.437053,157.717617 L112.983701,158.213712 C117.069185,159.526903 119.958207,161.248643 119.958207,165.2174 C119.958207,169.040246 116.222907,171.520719 111.670509,171.520719 Z M123.691224,171.170534 L123.691224,170.470165 L125.004416,170.382619 C125.850695,170.324255 126.317607,170.149163 126.317607,169.332066 L126.317607,150.889021 C126.317607,150.071924 125.850695,149.896832 125.004416,149.838468 L123.691224,149.750922 L123.691224,149.050553 L139.945617,149.050553 L140.908624,155.528965 L140.383347,155.528965 L137.40678,150.451291 C137.173323,150.042742 137.056595,149.984378 136.560501,149.984378 L129.264992,149.984378 L129.264992,159.118355 L133.642297,159.118355 C134.138392,159.118355 134.196756,159.030809 134.284302,158.738988 L135.451583,155.295508 L135.97686,155.295508 L135.97686,163.962572 L135.451583,163.962572 L134.284302,160.548274 C134.167574,160.227272 134.138392,160.168908 133.642297,160.168908 L129.264992,160.168908 L129.264992,170.236709 L137.99042,170.236709 C138.457333,170.236709 138.544879,170.178345 138.807517,169.828161 L142.805456,164.633759 L143.330732,164.633759 L141.346354,171.170534 L123.691224,171.170534 Z M157.537817,171.170534 L157.537817,170.440983 L159.288739,170.353437 C160.135018,170.324255 160.60193,170.149163 160.60193,169.332066 L160.60193,161.190279 L153.364786,150.830657 C152.868692,150.130288 152.722781,149.896832 151.876502,149.838468 L150.592493,149.750922 L150.592493,149.050553 L159.055283,149.050553 L159.055283,149.750922 L157.596181,149.838468 C156.691538,149.896832 156.166261,150.15947 156.633174,150.830657 L163.082403,160.081362 L169.560815,150.830657 C170.056909,150.130288 169.50245,149.896832 168.597807,149.838468 L167.138706,149.750922 L167.138706,149.050553 L173.558753,149.050553 L173.558753,149.750922 L172.274744,149.838468 C171.428465,149.896832 171.253372,150.15947 170.78646,150.830657 L163.549316,161.190279 L163.549316,169.332066 C163.549316,170.149163 164.016228,170.295073 164.891689,170.353437 L166.642611,170.440983 L166.642611,171.170534 L157.537817,171.170534 Z M185.783742,171.520719 C179.363695,171.520719 174.140111,166.939139 174.140111,160.05218 C174.140111,153.136038 179.363695,148.554459 185.783742,148.554459 C192.203789,148.554459 197.427373,153.136038 197.427373,160.05218 C197.427373,166.939139 192.203789,171.520719 185.783742,171.520719 Z M185.783742,170.557712 C190.511231,170.557712 194.042257,166.764047 194.042257,160.05218 C194.042257,153.31113 190.511231,149.517466 185.783742,149.517466 C181.056253,149.517466 177.496045,153.31113 177.496045,160.05218 C177.496045,166.764047 181.056253,170.557712 185.783742,170.557712 Z M211.899379,171.520719 C206.092154,171.520719 202.823767,168.660879 202.823767,162.532652 L202.823767,150.889021 C202.823767,150.071924 202.356854,149.896832 201.510575,149.838468 L200.197384,149.750922 L200.197384,149.050553 L208.426717,149.050553 L208.426717,149.750922 L207.113525,149.838468 C206.267246,149.896832 205.800334,150.071924 205.800334,150.889021 L205.800334,162.591017 C205.800334,167.727054 207.988986,170.119981 212.658112,170.119981 C217.414783,170.119981 219.6618,167.435234 219.6618,162.328378 L219.6618,150.889021 C219.6618,150.071924 219.224069,149.896832 218.348608,149.838468 L217.035417,149.750922 L217.035417,149.050553 L223.426282,149.050553 L223.426282,149.750922 L222.142272,149.838468 C221.266811,149.896832 220.799899,150.071924 220.799899,150.889021 L220.799899,162.50347 C220.799899,168.398241 217.706603,171.520719 211.899379,171.520719 Z M226.517295,171.170534 L226.517295,170.470165 L227.830486,170.382619 C228.676765,170.324255 229.143678,170.149163 229.143678,169.332066 L229.143678,150.889021 C229.143678,150.071924 228.676765,149.896832 227.830486,149.838468 L226.517295,149.750922 L226.517295,149.050553 L234.892538,149.050553 C240.174486,149.050553 244.055697,150.188652 244.055697,154.449229 C244.055697,157.688435 241.604406,159.439357 237.606467,159.935452 L247.820179,171.170534 L244.055697,171.170534 L234.221351,160.285636 L232.091063,160.285636 L232.091063,169.332066 C232.091063,170.149163 232.557975,170.324255 233.433436,170.382619 L234.746628,170.470165 L234.746628,171.170534 L226.517295,171.170534 Z M232.091063,159.380993 L234.659082,159.380993 C238.394382,159.380993 240.758127,158.126165 240.758127,154.653504 C240.758127,151.210024 238.394382,149.955196 234.659082,149.955196 L232.091063,149.955196 L232.091063,159.380993 Z M268.680767,171.520719 C261.356076,171.520719 256.103311,167.114232 256.103311,160.05218 C256.103311,152.990128 261.385259,148.554459 268.826677,148.554459 C271.277968,148.554459 274.079443,148.963007 275.830365,149.86765 L277.05601,156.200151 L276.530734,156.200151 L273.233164,150.889021 C272.824615,150.217835 272.561977,150.01356 271.861608,149.809286 C270.956965,149.546648 269.993958,149.488284 268.709949,149.488284 C263.953277,149.488284 259.459244,152.318941 259.459244,159.468539 C259.459244,165.917768 262.961088,170.586894 268.943405,170.586894 C270.227415,170.586894 271.190422,170.52853 272.095065,170.265891 C272.795433,170.061617 273.058072,169.857343 273.46662,169.186156 L276.76419,163.875026 L277.289467,163.875026 L276.063821,170.207527 C274.312899,171.11217 271.132058,171.520719 268.680767,171.520719 Z M292.199203,171.520719 C285.779155,171.520719 280.555571,166.939139 280.555571,160.05218 C280.555571,153.136038 285.779155,148.554459 292.199203,148.554459 C298.61925,148.554459 303.842834,153.136038 303.842834,160.05218 C303.842834,166.939139 298.61925,171.520719 292.199203,171.520719 Z M292.199203,170.557712 C296.926692,170.557712 300.457718,166.764047 300.457718,160.05218 C300.457718,153.31113 296.926692,149.517466 292.199203,149.517466 C287.471713,149.517466 283.911505,153.31113 283.911505,160.05218 C283.911505,166.764047 287.471713,170.557712 292.199203,170.557712 Z M306.55448,171.170534 L306.55448,170.470165 L307.83849,170.382619 C308.684769,170.324255 309.122499,170.149163 309.180863,169.332066 L310.348144,150.889021 C310.406508,150.071924 309.881232,149.896832 309.034953,149.838468 L307.721761,149.750922 L307.721761,149.050553 L314.229355,149.050553 L320.76613,162.882837 L327.302906,149.050553 L333.518679,149.050553 L333.518679,149.750922 L332.205487,149.838468 C331.330026,149.896832 330.80475,150.071924 330.863114,150.889021 L332.030395,169.332066 C332.088759,170.149163 332.497308,170.324255 333.372769,170.382619 L334.68596,170.470165 L334.68596,171.170534 L326.456627,171.170534 L326.456627,170.470165 L327.740636,170.382619 C328.616097,170.324255 329.141374,170.149163 329.08301,169.332066 L327.915728,150.276199 L319.803123,167.435234 L319.628031,167.435234 L311.486244,150.305381 L310.318962,169.332066 C310.260598,170.149163 310.756693,170.324255 311.602972,170.382619 L312.945345,170.470165 L312.945345,171.170534 L306.55448,171.170534 Z M337.835337,171.170534 L337.835337,170.470165 L339.148528,170.382619 C339.994807,170.324255 340.46172,170.149163 340.46172,169.332066 L340.46172,150.889021 C340.46172,150.071924 339.994807,149.896832 339.148528,149.838468 L337.835337,149.750922 L337.835337,149.050553 L347.056859,149.050553 C352.163715,149.050553 356.365928,150.130288 356.365928,154.916142 C356.365928,159.672813 352.163715,160.956823 347.056859,160.956823 L344.138656,160.956823 L344.138656,160.022998 L346.794221,160.022998 C350.733795,160.022998 353.068358,158.797352 353.068358,155.003688 C353.068358,151.239206 350.733795,149.955196 346.794221,149.955196 L343.409105,149.955196 L343.409105,169.332066 C343.409105,170.149163 343.876018,170.324255 344.751479,170.353437 L347.261133,170.411801 L347.261133,171.170534 L337.835337,171.170534 Z M375.973971,169.39043 C376.265791,170.119981 376.615976,170.324255 377.491437,170.382619 L378.775446,170.470165 L378.775446,171.170534 L370.341839,171.170534 L370.341839,170.470165 L371.80094,170.382619 C372.734765,170.324255 373.055768,170.119981 372.763948,169.39043 L370.254293,163.028747 L361.995777,163.028747 L359.486122,169.39043 C359.194302,170.119981 359.515304,170.324255 360.44913,170.382619 L361.908231,170.470165 L361.908231,171.170534 L355.546548,171.170534 L355.546548,170.470165 L356.830557,170.382619 C357.676836,170.324255 358.027021,170.119981 358.318841,169.39043 L366.927541,148 L367.394453,148 L375.973971,169.39043 Z M362.46269,161.861466 L369.816562,161.861466 L366.139626,152.523215 L362.46269,161.861466 Z M380.553268,171.170534 L380.553268,170.470165 L381.866459,170.382619 C382.74192,170.324255 383.179651,170.149163 383.179651,169.332066 L383.179651,152.114667 L380.524085,149.108917 L380.524085,149.050553 L384.376114,149.050553 L399.550771,166.034496 L399.550771,150.889021 C399.550771,150.071924 399.083859,149.896832 398.208398,149.838468 L396.895206,149.750922 L396.895206,149.050553 L403.315253,149.050553 L403.315253,149.750922 L402.002062,149.838468 C401.126601,149.896832 400.68887,150.071924 400.68887,150.889021 L400.68887,171.724993 L400.572142,171.724993 L384.31775,153.398676 L384.31775,169.332066 C384.31775,170.149163 384.784662,170.324255 385.660123,170.382619 L386.944133,170.470165 L386.944133,171.170534 L380.553268,171.170534 Z M406.785632,171.170534 L406.785632,170.470165 L408.098824,170.382619 C408.945103,170.324255 409.412015,170.149163 409.412015,169.332066 L409.412015,150.889021 C409.412015,150.071924 408.945103,149.896832 408.098824,149.838468 L406.785632,149.750922 L406.785632,149.050553 L415.014966,149.050553 L415.014966,149.750922 L413.701774,149.838468 C412.826313,149.896832 412.359401,150.071924 412.359401,150.889021 L412.359401,169.332066 C412.359401,170.149163 412.826313,170.324255 413.701774,170.382619 L415.014966,170.470165 L415.014966,171.170534 L406.785632,171.170534 Z M429.924702,171.520719 C423.504655,171.520719 418.281071,166.939139 418.281071,160.05218 C418.281071,153.136038 423.504655,148.554459 429.924702,148.554459 C436.344749,148.554459 441.568333,153.136038 441.568333,160.05218 C441.568333,166.939139 436.344749,171.520719 429.924702,171.520719 Z M429.924702,170.557712 C434.652191,170.557712 438.183217,166.764047 438.183217,160.05218 C438.183217,153.31113 434.652191,149.517466 429.924702,149.517466 C425.197213,149.517466 421.637004,153.31113 421.637004,160.05218 C421.637004,166.764047 425.197213,170.557712 429.924702,170.557712 Z M444.951166,171.170534 L444.951166,170.470165 L446.264358,170.382619 C447.139819,170.324255 447.577549,170.149163 447.577549,169.332066 L447.577549,152.114667 L444.921984,149.108917 L444.921984,149.050553 L448.774012,149.050553 L463.94867,166.034496 L463.94867,150.889021 C463.94867,150.071924 463.481757,149.896832 462.606296,149.838468 L461.293105,149.750922 L461.293105,149.050553 L467.713152,149.050553 L467.713152,149.750922 L466.39996,149.838468 C465.524499,149.896832 465.086769,150.071924 465.086769,150.889021 L465.086769,171.724993 L464.970041,171.724993 L448.715648,153.398676 L448.715648,169.332066 C448.715648,170.149163 449.182561,170.324255 450.058022,170.382619 L451.342031,170.470165 L451.342031,171.170534 L444.951166,171.170534 Z M469.899522,172.688 L480.959512,148 L482.856344,148 L471.796354,172.688 L469.899522,172.688 Z M485.830629,171.170534 L485.830629,170.470165 L487.14382,170.382619 C487.990099,170.324255 488.457012,170.149163 488.457012,169.332066 L488.457012,150.889021 C488.457012,150.071924 487.990099,149.896832 487.14382,149.838468 L485.830629,149.750922 L485.830629,149.050553 L494.556057,149.050553 C499.575366,149.050553 503.018846,150.276199 503.018846,154.069863 C503.018846,156.988066 500.596738,158.972444 496.861437,159.380993 L496.861437,159.439357 C501.443016,159.468539 504.65304,161.102733 504.65304,164.779669 C504.65304,168.660879 501.501381,171.170534 495.373154,171.170534 L485.830629,171.170534 Z M491.404397,159.030809 L494.847877,159.030809 C498.087083,159.030809 499.896369,157.338251 499.896369,154.420047 C499.896369,151.239206 497.941173,149.955196 494.293418,149.955196 L491.404397,149.955196 L491.404397,159.030809 Z M491.404397,170.265891 L494.614421,170.265891 C499.166818,170.265891 501.35547,168.719243 501.35547,165.013125 C501.35547,161.307007 498.933362,159.935452 494.964605,159.935452 L491.404397,159.935452 L491.404397,170.265891 Z M508.094237,171.170534 L508.094237,170.470165 L509.407429,170.382619 C510.253708,170.324255 510.72062,170.149163 510.72062,169.332066 L510.72062,150.889021 C510.72062,150.071924 510.253708,149.896832 509.407429,149.838468 L508.094237,149.750922 L508.094237,149.050553 L525.311637,149.050553 L526.303826,155.528965 L525.778549,155.528965 L522.7728,150.451291 C522.539344,150.042742 522.422615,149.984378 521.955703,149.984378 L513.668006,149.984378 L513.668006,159.118355 L518.278767,159.118355 C518.745679,159.118355 518.833225,159.030809 518.920771,158.738988 L520.058871,155.295508 L520.584147,155.295508 L520.584147,163.962572 L520.058871,163.962572 L518.920771,160.548274 C518.804043,160.227272 518.745679,160.168908 518.278767,160.168908 L513.668006,160.168908 L513.668006,169.332066 C513.668006,170.149163 514.134918,170.324255 515.010379,170.353437 L517.520034,170.411801 L517.520034,171.170534 L508.094237,171.170534 Z M529.1322,171.170534 L529.1322,170.470165 L530.445392,170.382619 C531.291671,170.324255 531.758583,170.149163 531.758583,169.332066 L531.758583,150.889021 C531.758583,150.071924 531.291671,149.896832 530.445392,149.838468 L529.1322,149.750922 L529.1322,149.050553 L546.3496,149.050553 L547.341789,155.528965 L546.816512,155.528965 L543.810763,150.451291 C543.577307,150.042742 543.460578,149.984378 542.993666,149.984378 L534.705969,149.984378 L534.705969,159.118355 L539.31673,159.118355 C539.783642,159.118355 539.871188,159.030809 539.958735,158.738988 L541.096834,155.295508 L541.62211,155.295508 L541.62211,163.962572 L541.096834,163.962572 L539.958735,160.548274 C539.842006,160.227272 539.783642,160.168908 539.31673,160.168908 L534.705969,160.168908 L534.705969,169.332066 C534.705969,170.149163 535.172881,170.324255 536.048342,170.353437 L538.557997,170.411801 L538.557997,171.170534 L529.1322,171.170534 Z" id="CHOOSEYOURCOMPANION/BFF" fill="#FFFFFF" fill-rule="nonzero"></path>
                </g>
                <rect id="Rectangle" stroke="#FFFFFF" stroke-width="0.5" opacity="0.0119745164" x="0.25" y="0.25" width="1999.5" height="1168.5"></rect>
            </g>
        </g>
    </g>
</svg>