<?xml version="1.0" encoding="UTF-8"?>
<svg width="540px" height="129px" viewBox="0 0 540 129" version="1.1" xmlns="http://www.w3.org/2000/svg" xmlns:xlink="http://www.w3.org/1999/xlink">
    <!-- Generator: Sketch 56.3 (81716) - https://sketch.com -->
    <title>Group 5</title>
    <desc>Created with Sketch.</desc>
    <g id="Page-1" stroke="none" stroke-width="1" fill="none" fill-rule="evenodd">
        <g id="KAWS-Microsite-Pink-Open" transform="translate(-1249.000000, -587.000000)">
            <g id="Group-5" transform="translate(1249.000000, 587.000000)">
                <path d="M17.96,31.4 L17.96,5.64 L12,8.12 L12,7.04 L21.72,2.96 L21.72,31.4 C21.72,32.48 21.92,32.64 23.28,32.72 L24.64,32.8 L24.64,33.72 L14.32,33.72 L14.32,32.8 L16.44,32.72 C17.76,32.68 17.96,32.48 17.96,31.4 Z M50.7568709,13.88 C50.7568709,22.76 42.4368709,31.6 29.7168709,35.4 L29.3968709,34.6 C38.7168709,31.08 44.3568709,24.92 46.0368709,18.24 C44.0768709,20.24 41.5168709,21.52 38.5568709,21.52 C33.8768709,21.52 29.7168709,18.6 29.7168709,12.56 C29.7168709,6.8 34.5168709,2.72 40.0368709,2.72 C46.6368709,2.72 50.7568709,7.56 50.7568709,13.88 Z M33.9168709,11.72 C33.9168709,16.64 36.5568709,19.72 40.3968709,19.72 C42.5568709,19.72 44.7168709,18.96 46.2768709,17.2 C46.4768709,16.16 46.5568709,15.08 46.5568709,14.04 C46.5568709,8.12 43.9968709,3.84 39.9168709,3.84 C36.3168709,3.84 33.9168709,6.96 33.9168709,11.72 Z M76.6737418,24.08 L86.7537418,24.08 C88.5537418,24.08 89.6737418,24 90.7937418,23.84 L90.7937418,26.72 C89.6337418,26.56 88.3937418,26.48 86.7537418,26.48 L76.6737418,26.48 L76.6737418,33.08 C76.6737418,34.8 76.7537418,35.76 76.9537418,36.8 L73.7937418,36.8 C73.9937418,35.8 74.0337418,34.92 74.0337418,33.08 L74.0337418,26.48 L59.5937418,26.48 C57.9537418,26.48 56.7137418,26.56 55.5537418,26.72 L55.5537418,23.84 C56.7137418,24 57.8337418,24.08 59.5937418,24.08 L62.6337418,24.08 L62.6337418,16.2 C62.6337418,15.32 62.5937418,14.64 62.5137418,13.84 C63.3537418,13.92 64.2337418,13.96 65.3537418,13.96 L74.0337418,13.96 L74.0337418,7.44 L64.6337418,7.44 C62.3137418,11.24 60.7537418,13.16 57.9937418,15.6 C57.3537418,14.68 56.9537418,14.28 56.0737418,13.68 C60.0337418,10.32 62.1937418,7.4 64.0737418,2.92 C64.5937418,1.76 64.8737418,0.84 65.0737418,1.70530257e-13 L67.9137418,0.8 C67.5537418,1.48 67.5137418,1.64 66.1537418,4.52 C66.0737418,4.72 65.9937418,4.88 65.8737418,5.12 L85.7137418,5.12 C87.4737418,5.12 88.3137418,5.08 89.3137418,4.92 L89.3137418,7.64 C88.3137418,7.48 87.3537418,7.44 85.7137418,7.44 L76.6737418,7.44 L76.6737418,13.96 L83.9137418,13.96 C85.5537418,13.96 86.4337418,13.92 87.4737418,13.76 L87.4737418,16.4 C86.4337418,16.28 85.4737418,16.24 83.9537418,16.24 L76.6737418,16.24 L76.6737418,24.08 Z M74.0337418,24.08 L74.0337418,16.24 L65.2337418,16.24 L65.2337418,24.08 L74.0337418,24.08 Z M117.150613,13.88 C117.150613,22.76 108.830613,31.6 96.1106127,35.4 L95.7906127,34.6 C105.110613,31.08 110.750613,24.92 112.430613,18.24 C110.470613,20.24 107.910613,21.52 104.950613,21.52 C100.270613,21.52 96.1106127,18.6 96.1106127,12.56 C96.1106127,6.8 100.910613,2.72 106.430613,2.72 C113.030613,2.72 117.150613,7.56 117.150613,13.88 Z M100.310613,11.72 C100.310613,16.64 102.950613,19.72 106.790613,19.72 C108.950613,19.72 111.110613,18.96 112.670613,17.2 C112.870613,16.16 112.950613,15.08 112.950613,14.04 C112.950613,8.12 110.390613,3.84 106.310613,3.84 C102.710613,3.84 100.310613,6.96 100.310613,11.72 Z M149.427484,23.52 L130.867484,23.52 C130.507484,25.8 129.987484,27.8 129.227484,29.72 C128.187484,32.32 127.067484,34.12 124.827484,36.68 C124.107484,35.76 123.547484,35.2 122.627484,34.56 C125.107484,32.08 126.387484,29.96 127.347484,26.72 C128.467484,22.88 128.907484,18.04 128.907484,8.84 C128.907484,5.48 128.867484,3.8 128.747484,2.32 C130.187484,2.48 131.227484,2.52 132.947484,2.52 L147.987484,2.52 C149.747484,2.52 150.787484,2.48 152.147484,2.32 C152.027484,3.4 151.987484,4.4 151.987484,6.44 L151.987484,32.76 C151.987484,34.16 151.627484,35.04 150.867484,35.52 C150.227484,35.92 149.507484,36.04 147.627484,36.04 C146.227484,36.04 144.747484,36 142.867484,35.92 C142.747484,34.88 142.587484,34.24 142.227484,33.2 C144.267484,33.44 145.987484,33.56 147.947484,33.56 C149.107484,33.56 149.427484,33.32 149.427484,32.36 L149.427484,23.52 Z M149.427484,21.12 L149.427484,14 L131.587484,14 C131.547484,16.16 131.467484,17.84 131.147484,21.12 L149.427484,21.12 Z M149.427484,11.6 L149.427484,4.96 L131.627484,4.96 L131.587484,10.64 L131.587484,11.6 L149.427484,11.6 Z M161.504355,33.72 L161.504355,33.56 C172.024355,23.16 176.864355,16.64 176.864355,10.8 C176.864355,7.16 174.824355,4.84 171.224355,4.84 C167.664355,4.84 164.944355,7.24 164.544355,12.16 L163.584355,12.16 C163.624355,6.12 167.464355,2.72 172.704355,2.72 C178.304355,2.72 180.904355,6.04 180.904355,9.96 C180.904355,15.24 176.304355,20.56 168.304355,27.8 L165.464355,30.4 L176.784355,30.4 C178.984355,30.4 179.704355,30.24 180.304355,28.8 L181.544355,25.8 L182.504355,25.8 L180.344355,33.72 L161.504355,33.72 Z M187.021225,18.48 C187.021225,10.28 191.181225,2.72 198.381225,2.72 C205.581225,2.72 209.741225,10.28 209.741225,18.48 C209.741225,26.64 205.581225,34.2 198.381225,34.2 C191.181225,34.2 187.021225,26.64 187.021225,18.48 Z M191.261225,18.48 C191.261225,27.04 193.661225,33 198.381225,33 C203.101225,33 205.501225,27.04 205.501225,18.48 C205.501225,9.88 203.101225,3.92 198.381225,3.92 C193.661225,3.92 191.261225,9.88 191.261225,18.48 Z M219.618096,31.92 L219.618096,6.48 C219.618096,4.88 219.578096,3.72 219.418096,2.56 C220.698096,2.72 221.858096,2.76 223.698096,2.76 L241.698096,2.76 C243.538096,2.76 244.658096,2.72 245.818096,2.56 C245.658096,3.72 245.618096,4.72 245.618096,6.24 L245.618096,31.88 C245.618096,33.8 245.698096,34.92 245.858096,36.16 L242.938096,36.16 L242.938096,33.56 L222.298096,33.56 L222.298096,36.16 L219.378096,36.16 C219.538096,34.96 219.618096,33.72 219.618096,31.92 Z M222.298096,5.2 L222.298096,16.4 L242.938096,16.4 L242.938096,5.2 L222.298096,5.2 Z M222.298096,18.84 L222.298096,31.12 L242.938096,31.12 L242.938096,18.84 L222.298096,18.84 Z M266.451838,24.32 L266.451838,22.2 L278.211838,22.2 L278.211838,24.32 L266.451838,24.32 Z M293.04558,33.72 L293.04558,33.56 C303.56558,23.16 308.40558,16.64 308.40558,10.8 C308.40558,7.16 306.36558,4.84 302.76558,4.84 C299.20558,4.84 296.48558,7.24 296.08558,12.16 L295.12558,12.16 C295.16558,6.12 299.00558,2.72 304.24558,2.72 C309.84558,2.72 312.44558,6.04 312.44558,9.96 C312.44558,15.24 307.84558,20.56 299.84558,27.8 L297.00558,30.4 L308.32558,30.4 C310.52558,30.4 311.24558,30.24 311.84558,28.8 L313.08558,25.8 L314.04558,25.8 L311.88558,33.72 L293.04558,33.72 Z M318.562451,18.48 C318.562451,10.28 322.722451,2.72 329.922451,2.72 C337.122451,2.72 341.282451,10.28 341.282451,18.48 C341.282451,26.64 337.122451,34.2 329.922451,34.2 C322.722451,34.2 318.562451,26.64 318.562451,18.48 Z M322.802451,18.48 C322.802451,27.04 325.202451,33 329.922451,33 C334.642451,33 337.042451,27.04 337.042451,18.48 C337.042451,9.88 334.642451,3.92 329.922451,3.92 C325.202451,3.92 322.802451,9.88 322.802451,18.48 Z M367.479322,24.08 L377.559322,24.08 C379.359322,24.08 380.479322,24 381.599322,23.84 L381.599322,26.72 C380.439322,26.56 379.199322,26.48 377.559322,26.48 L367.479322,26.48 L367.479322,33.08 C367.479322,34.8 367.559322,35.76 367.759322,36.8 L364.599322,36.8 C364.799322,35.8 364.839322,34.92 364.839322,33.08 L364.839322,26.48 L350.399322,26.48 C348.759322,26.48 347.519322,26.56 346.359322,26.72 L346.359322,23.84 C347.519322,24 348.639322,24.08 350.399322,24.08 L353.439322,24.08 L353.439322,16.2 C353.439322,15.32 353.399322,14.64 353.319322,13.84 C354.159322,13.92 355.039322,13.96 356.159322,13.96 L364.839322,13.96 L364.839322,7.44 L355.439322,7.44 C353.119322,11.24 351.559322,13.16 348.799322,15.6 C348.159322,14.68 347.759322,14.28 346.879322,13.68 C350.839322,10.32 352.999322,7.4 354.879322,2.92 C355.399322,1.76 355.679322,0.84 355.879322,1.70530257e-13 L358.719322,0.8 C358.359322,1.48 358.319322,1.64 356.959322,4.52 C356.879322,4.72 356.799322,4.88 356.679322,5.12 L376.519322,5.12 C378.279322,5.12 379.119322,5.08 380.119322,4.92 L380.119322,7.64 C379.119322,7.48 378.159322,7.44 376.519322,7.44 L367.479322,7.44 L367.479322,13.96 L374.719322,13.96 C376.359322,13.96 377.239322,13.92 378.279322,13.76 L378.279322,16.4 C377.239322,16.28 376.279322,16.24 374.759322,16.24 L367.479322,16.24 L367.479322,24.08 Z M364.839322,24.08 L364.839322,16.24 L356.039322,16.24 L356.039322,24.08 L364.839322,24.08 Z M401.356193,33.72 L401.356193,25.64 L385.076193,25.64 L401.796193,3.4 L405.116193,3.4 L405.116193,22.88 L410.876193,22.88 L410.876193,25.64 L405.116193,25.64 L405.116193,33.72 L401.356193,33.72 Z M388.676193,22.88 L401.356193,22.88 L401.356193,6.2 L388.676193,22.88 Z M442.353064,23.52 L423.793064,23.52 C423.433064,25.8 422.913064,27.8 422.153064,29.72 C421.113064,32.32 419.993064,34.12 417.753064,36.68 C417.033064,35.76 416.473064,35.2 415.553064,34.56 C418.033064,32.08 419.313064,29.96 420.273064,26.72 C421.393064,22.88 421.833064,18.04 421.833064,8.84 C421.833064,5.48 421.793064,3.8 421.673064,2.32 C423.113064,2.48 424.153064,2.52 425.873064,2.52 L440.913064,2.52 C442.673064,2.52 443.713064,2.48 445.073064,2.32 C444.953064,3.4 444.913064,4.4 444.913064,6.44 L444.913064,32.76 C444.913064,34.16 444.553064,35.04 443.793064,35.52 C443.153064,35.92 442.433064,36.04 440.553064,36.04 C439.153064,36.04 437.673064,36 435.793064,35.92 C435.673064,34.88 435.513064,34.24 435.153064,33.2 C437.193064,33.44 438.913064,33.56 440.873064,33.56 C442.033064,33.56 442.353064,33.32 442.353064,32.36 L442.353064,23.52 Z M442.353064,21.12 L442.353064,14 L424.513064,14 C424.473064,16.16 424.393064,17.84 424.073064,21.12 L442.353064,21.12 Z M442.353064,11.6 L442.353064,4.96 L424.553064,4.96 L424.513064,10.64 L424.513064,11.6 L442.353064,11.6 Z M460.309935,31.4 L460.309935,5.64 L454.349935,8.12 L454.349935,7.04 L464.069935,2.96 L464.069935,31.4 C464.069935,32.48 464.269935,32.64 465.629935,32.72 L466.989935,32.8 L466.989935,33.72 L456.669935,33.72 L456.669935,32.8 L458.789935,32.72 C460.109935,32.68 460.309935,32.48 460.309935,31.4 Z M479.426805,34.2 C474.466805,34.2 471.386805,31.4 471.386805,29.04 C471.386805,27.48 473.066805,26.4 474.946805,26.8 C475.466805,30.28 476.986805,32.88 480.986805,32.88 C484.266805,32.88 488.186805,30.52 488.186805,25.4 C488.186805,20.4 484.146805,17.48 480.706805,17.48 C479.506805,17.48 478.386805,17.88 477.546805,18.24 L477.186805,17.2 L478.706805,16.64 C482.786805,15.12 485.906805,12.32 485.906805,9.2 C485.906805,6.4 483.826805,4.84 480.866805,4.84 C477.866805,4.84 474.786805,6.36 474.186805,10.72 L473.186805,10.72 C473.706805,5.56 477.226805,2.72 482.346805,2.72 C486.586805,2.72 489.546805,4.92 489.546805,8 C489.546805,11.12 486.626805,13.12 483.426805,14.4 L483.426805,14.48 C488.186805,15.36 491.586805,18.6 491.586805,23.2 C491.586805,29.84 485.466805,34.2 479.426805,34.2 Z M501.263676,31.92 L501.263676,6.48 C501.263676,4.88 501.223676,3.72 501.063676,2.56 C502.343676,2.72 503.503676,2.76 505.343676,2.76 L523.343676,2.76 C525.183676,2.76 526.303676,2.72 527.463676,2.56 C527.303676,3.72 527.263676,4.72 527.263676,6.24 L527.263676,31.88 C527.263676,33.8 527.343676,34.92 527.503676,36.16 L524.583676,36.16 L524.583676,33.56 L503.943676,33.56 L503.943676,36.16 L501.023676,36.16 C501.183676,34.96 501.263676,33.72 501.263676,31.92 Z M503.943676,5.2 L503.943676,16.4 L524.583676,16.4 L524.583676,5.2 L503.943676,5.2 Z M503.943676,18.84 L503.943676,31.12 L524.583676,31.12 L524.583676,18.84 L503.943676,18.84 Z M99.1859191,84.2 L99.1859191,90.08 L103.305919,90.08 C105.465919,90.08 106.305919,90.04 107.225919,89.84 L107.225919,92.52 C106.225919,92.4 105.025919,92.32 103.305919,92.32 L90.7059191,92.32 L90.7059191,94.88 L88.1059191,94.88 C88.2659191,93.88 88.3459191,92.6 88.3459191,90.8 L88.3459191,75.52 C88.3459191,74.2 88.3859191,72 88.4659191,71.12 C87.8259191,72.28 86.6259191,73.88 84.9859191,75.76 C84.5859191,75.08 83.9059191,74.36 83.2259191,73.88 C86.1859191,70.92 88.1459191,68.08 90.0659191,64 C91.1059191,61.8 91.6259191,60.32 91.8659191,58.92 L94.4659191,59.72 C94.2659191,60.08 94.1459191,60.28 93.8659191,60.96 C93.2659191,62.44 91.9059191,65.32 91.2659191,66.52 L98.7459191,66.52 C98.0659191,64.36 97.1459191,62.36 95.9059191,60.12 L98.0259191,59.24 C99.5059191,62.08 100.385919,64.04 101.225919,66.52 L102.985919,66.52 C104.665919,66.52 106.025919,66.44 106.905919,66.28 L106.905919,68.96 C105.985919,68.8 104.825919,68.76 102.985919,68.76 L99.1859191,68.76 L99.1859191,74.16 L102.225919,74.16 C103.865919,74.16 105.105919,74.08 105.905919,73.92 L105.905919,76.56 C105.025919,76.4 104.025919,76.36 102.265919,76.36 L99.1859191,76.36 L99.1859191,82 L102.305919,82 C103.945919,82 105.145919,81.92 105.985919,81.76 L105.985919,84.4 C105.305919,84.28 104.945919,84.24 104.545919,84.24 C104.265919,84.24 104.265919,84.24 102.265919,84.2 L99.1859191,84.2 Z M90.7059191,74.16 L96.8659191,74.16 L96.8659191,68.76 L90.7059191,68.76 L90.7059191,74.16 Z M90.7059191,76.36 L90.7059191,82 L96.8659191,82 L96.8659191,76.36 L90.7059191,76.36 Z M90.7059191,84.2 L90.7059191,90.08 L96.8659191,90.08 L96.8659191,84.2 L90.7059191,84.2 Z M72.5459191,84.12 L71.7459191,81.4 C71.9059191,81.32 71.9059191,81.32 72.5059191,81.2 C73.1859191,81 73.5059191,80.68 75.9459191,77.6 C77.6659191,75.4 77.6659191,75.4 79.1059191,73.28 C78.8659191,73.32 78.8659191,73.32 78.5859191,73.32 C75.7059191,73.52 73.5059191,73.84 72.2659191,74.24 L71.5859191,71.72 C72.8259191,71.24 73.0259191,70.96 74.4259191,68.16 C75.0659191,66.92 76.1459191,64.44 76.7859191,62.76 C76.8659191,62.6 77.1459191,61.8 77.6259191,60.4 C77.7059191,60.12 77.8659191,59.72 78.0659191,59.16 L80.6659191,60.2 C79.5859191,62.48 79.5859191,62.48 79.3059191,63.12 C77.5059191,67.24 76.4259191,69.28 74.9459191,71.56 C77.9859191,71.36 77.9859191,71.36 80.5459191,71.16 C81.6659191,69.4 81.7459191,69.24 82.5859191,67.72 L84.9059191,69 C81.1859191,74.56 79.2659191,77.08 75.6659191,81.08 C81.5059191,79.92 81.9459191,79.8 84.7059191,79.08 L84.4259191,81.56 C83.1459191,81.8 83.1459191,81.8 76.7859191,83.04 C75.2659191,83.36 74.2259191,83.6 72.5459191,84.12 Z M84.7459191,86.24 L84.8659191,88.8 C81.3459191,90.2 78.5859191,91.08 74.1059191,92.36 C72.6259191,92.76 72.6259191,92.76 72.3059191,92.92 L71.5059191,90.12 C72.2659191,90.08 72.9059191,89.96 74.7459191,89.52 C76.1059191,89.2 78.1859191,88.6 80.5059191,87.88 C82.3459191,87.28 82.9059191,87.08 84.7459191,86.24 Z M139.90279,61.52 L141.26279,63.04 C138.78279,66.08 138.50279,66.44 137.66279,67.32 C134.50279,70.76 130.50279,73.96 126.38279,76.44 C122.78279,78.56 119.50279,80.04 114.86279,81.6 C114.58279,80.76 114.14279,80.08 113.46279,79.24 C118.70279,77.84 123.34279,75.72 127.82279,72.64 C126.46279,71.44 124.90279,70.32 122.70279,69.04 L124.58279,67.56 C126.74279,68.88 128.50279,70.08 129.86279,71.16 C133.38279,68.44 134.90279,66.96 137.46279,63.8 L126.62279,63.8 C123.06279,67.24 119.82279,69.44 115.18279,71.76 C114.70279,70.92 114.30279,70.4 113.62279,69.76 C118.34279,67.68 122.14279,65.08 125.46279,61.64 C126.90279,60.16 127.70279,59.12 128.26279,58 L131.14279,58.72 C130.74279,59.16 130.70279,59.24 129.86279,60.24 C129.38279,60.8 129.14279,61.12 128.58279,61.72 L136.18279,61.72 C137.82279,61.72 138.94279,61.64 139.90279,61.52 Z M134.78279,76.2 L141.86279,76.2 C143.54279,76.2 144.66279,76.12 145.62279,76 L147.06279,77.56 C146.58279,78.16 146.58279,78.16 145.90279,79.04 C142.26279,83.84 138.90279,86.84 134.18279,89.56 C129.62279,92.2 125.50279,93.72 117.94279,95.6 C117.46279,94.44 117.30279,94.16 116.50279,93.08 C122.66279,92.16 128.74279,90.04 133.50279,87.12 C133.42279,87.04 133.42279,87.04 133.10279,86.76 C131.90279,85.68 130.34279,84.56 128.14279,83.32 L130.18279,81.84 C132.42279,83.24 133.70279,84.12 135.66279,85.72 C138.54279,83.68 140.74279,81.56 143.34279,78.28 L132.58279,78.28 C130.30279,80.24 129.50279,80.84 127.74279,81.92 C125.38279,83.36 122.66279,84.68 119.50279,85.92 C118.94279,84.84 118.62279,84.4 117.98279,83.76 C123.30279,81.96 127.30279,79.8 130.54279,77.04 C132.62279,75.28 134.06279,73.72 134.90279,72.24 L137.50279,73.24 C135.98279,74.96 135.66279,75.32 134.78279,76.2 Z M161.499661,70 L161.499661,64.44 C159.979661,64.84 157.379661,65.4 154.819661,65.84 C154.499661,64.92 154.219661,64.36 153.659661,63.56 C158.579661,62.92 161.779661,62.16 166.339661,60.52 C167.779661,60.04 168.259661,59.8 168.939661,59.36 L170.739661,61.48 C169.859661,61.8 169.859661,61.8 169.139661,62.04 C167.299661,62.72 165.899661,63.2 163.899661,63.76 L163.899661,70 L167.819661,70 C169.219661,70 170.259661,69.96 171.299661,69.8 L171.299661,72.44 C170.299661,72.28 169.339661,72.24 167.739661,72.24 L163.899661,72.24 L163.899661,73.56 C168.059661,77.88 168.779661,78.64 170.979661,81.48 L169.059661,83.16 C168.339661,82 168.339661,82 167.259661,80.6 C164.579661,77.16 164.099661,76.56 163.899661,76.32 L163.899661,90.4 C163.899661,92.84 163.939661,94.12 164.139661,95.28 L161.179661,95.28 C161.379661,93.88 161.459661,92.56 161.459661,90.4 L161.459661,82.6 C161.459661,80.36 161.499661,78.88 161.659661,75.8 C159.779661,80.84 157.819661,84.04 154.219661,87.92 C153.659661,86.88 153.219661,86.28 152.579661,85.64 C155.339661,83.04 157.059661,80.8 158.819661,77.48 C159.979661,75.24 160.619661,73.76 161.099661,72.24 L157.299661,72.24 C155.699661,72.24 154.619661,72.32 153.539661,72.48 L153.539661,69.76 C154.459661,69.96 155.419661,70 157.339661,70 L161.499661,70 Z M174.099661,61.76 L177.099661,61.76 C176.939661,63.04 176.899661,64 176.899661,66.32 L176.899661,81.76 C176.899661,84.48 176.939661,85.28 177.099661,86.4 L174.139661,86.4 C174.299661,85.28 174.339661,84.44 174.339661,81.76 L174.339661,66.32 C174.339661,64.08 174.259661,63 174.099661,61.76 Z M183.899661,59.52 L187.019661,59.52 C186.819661,60.84 186.739661,62.32 186.739661,64.56 L186.739661,90.84 C186.739661,93.68 185.819661,94.36 181.939661,94.36 C180.739661,94.36 179.259661,94.32 177.899661,94.24 C177.699661,93.2 177.499661,92.6 177.059661,91.6 C179.259661,91.84 180.859661,91.96 182.259661,91.96 C183.859661,91.96 184.139661,91.76 184.139661,90.76 L184.139661,64.56 C184.139661,62.28 184.059661,60.8 183.899661,59.52 Z M194.576532,63.96 L194.576532,61.12 C195.936532,61.32 196.936532,61.36 198.696532,61.36 L224.576532,61.36 C226.336532,61.36 227.376532,61.32 228.696532,61.12 L228.696532,63.96 C227.376532,63.8 226.256532,63.72 224.616532,63.72 L216.376532,63.72 L216.376532,90.16 L225.216532,90.16 C226.976532,90.16 228.096532,90.08 229.376532,89.92 L229.376532,92.8 C227.976532,92.64 226.856532,92.56 225.216532,92.56 L197.856532,92.56 C196.216532,92.56 195.096532,92.64 193.696532,92.8 L193.696532,89.92 C194.896532,90.08 196.056532,90.16 197.856532,90.16 L206.136532,90.16 L206.136532,63.72 L198.696532,63.72 C197.056532,63.72 195.976532,63.8 194.576532,63.96 Z M208.696532,90.16 L213.816532,90.16 L213.816532,63.72 L208.696532,63.72 L208.696532,90.16 Z M196.296532,70.44 L198.656532,69.56 C200.936532,74.28 201.616532,76.04 203.216532,81.92 L200.736532,82.84 C199.016532,76.2 198.496532,74.8 196.296532,70.44 Z M223.976532,69.64 L226.496532,70.72 C224.216532,77.08 223.496532,78.76 220.976532,83.24 L218.696532,82.12 C221.136532,77.92 222.336532,75.08 223.976532,69.64 Z M237.053403,68.6 L239.373403,69.12 C238.733403,73.96 237.933403,77.04 236.413403,80.4 L234.093403,79.48 C235.093403,77.48 235.453403,76.56 236.013403,74.56 C236.573403,72.44 236.813403,71.24 237.053403,68.6 Z M246.173403,69.52 L248.213403,68.76 C249.653403,72.24 250.213403,74.08 251.133403,78.44 L248.813403,79.44 C248.213403,75.44 247.573403,73 246.173403,69.52 Z M252.973403,60.24 L255.973403,60.24 C255.773403,61.36 255.733403,62.12 255.733403,64.16 L255.733403,87.72 C255.733403,90.08 255.813403,91.24 255.973403,92.36 L252.973403,92.36 C253.133403,91.24 253.213403,89.88 253.213403,87.6 L253.213403,64.2 C253.213403,62.24 253.173403,61.28 252.973403,60.24 Z M257.173403,69.44 L259.133403,68.56 C260.933403,71.88 261.693403,73.6 263.173403,77.68 L261.053403,79 C259.853403,75 258.933403,72.72 257.173403,69.44 Z M264.773403,59.04 L267.773403,59.04 C267.613403,60.32 267.533403,61.48 267.533403,63.48 L267.533403,89.68 C267.533403,92.24 267.573403,93.48 267.773403,94.76 L264.773403,94.76 C264.933403,93.44 265.013403,92.2 265.013403,89.64 L265.013403,63.44 C265.013403,61.24 264.973403,60.16 264.773403,59.04 Z M244.493403,63.04 L244.493403,72.32 C244.493403,82.92 242.213403,89.72 236.933403,95 C236.293403,94.24 235.573403,93.6 234.773403,93.08 C237.133403,90.96 238.613403,88.8 239.853403,85.72 C241.173403,82.4 241.973403,77.28 241.973403,72.12 L241.973403,63.04 C241.973403,61.32 241.893403,60.04 241.733403,59.12 L244.733403,59.12 C244.573403,60 244.493403,61.04 244.493403,63.04 Z M293.970274,68.8 L293.970274,75 L298.890274,75 C300.690274,75 301.490274,74.96 302.490274,74.8 L302.490274,77.32 C301.490274,77.16 300.570274,77.12 298.890274,77.12 L293.970274,77.12 L293.970274,84.44 L300.690274,84.44 C302.330274,84.44 303.490274,84.36 304.610274,84.2 L304.610274,86.84 C303.450274,86.68 302.250274,86.6 300.690274,86.6 L285.450274,86.6 C283.810274,86.6 282.690274,86.68 281.490274,86.84 L281.490274,84.2 C282.610274,84.36 283.770274,84.44 285.450274,84.44 L291.490274,84.44 L291.490274,77.12 L287.210274,77.12 C285.530274,77.12 284.570274,77.16 283.570274,77.32 L283.570274,74.8 C284.570274,74.96 285.370274,75 287.210274,75 L291.490274,75 L291.490274,68.8 L285.970274,68.8 C284.250274,68.8 283.290274,68.84 282.210274,69 L282.210274,66.44 C283.330274,66.64 284.210274,66.68 285.970274,66.68 L300.090274,66.68 C301.890274,66.68 302.970274,66.6 304.010274,66.44 L304.010274,69 C302.890274,68.84 301.930274,68.8 300.130274,68.8 L293.970274,68.8 Z M297.130274,78.84 L298.810274,77.84 C300.450274,79.48 301.090274,80.36 302.570274,82.6 L300.690274,83.8 C299.290274,81.36 298.650274,80.48 297.130274,78.84 Z M276.570274,89.68 L276.570274,65.32 C276.570274,63.4 276.490274,62 276.330274,60.4 C277.650274,60.56 278.850274,60.6 281.010274,60.6 L304.930274,60.6 C307.050274,60.6 308.210274,60.56 309.690274,60.4 C309.530274,61.88 309.450274,63.24 309.450274,65.32 L309.450274,89.68 C309.450274,92.6 309.530274,94.08 309.690274,95.16 L306.890274,95.16 L306.890274,92.72 L279.130274,92.72 L279.130274,95.16 L276.330274,95.16 C276.490274,94.08 276.570274,92.64 276.570274,89.68 Z M279.130274,62.88 L279.130274,90.44 L306.890274,90.44 L306.890274,62.88 L279.130274,62.88 Z M333.607145,65.64 L345.447145,65.64 C347.447145,65.64 348.807145,65.56 350.047145,65.36 L350.047145,68.36 C348.727145,68.2 347.367145,68.12 345.447145,68.12 L322.007145,68.12 C320.167145,68.12 318.847145,68.2 317.567145,68.36 L317.567145,65.36 C318.687145,65.56 320.007145,65.64 322.007145,65.64 L332.967145,65.64 C331.687145,63.44 330.927145,62.4 329.007145,60.24 L331.207145,58.84 C333.207145,61.08 334.527145,62.8 335.487145,64.44 L333.607145,65.64 Z M320.607145,89.96 L335.167145,89.96 C338.087145,84 341.287145,74.56 341.887145,70.12 L344.967145,71.16 C344.567145,72.12 344.567145,72.12 343.367145,76 C341.847145,80.96 340.047145,85.6 338.007145,89.96 L347.247145,89.96 C349.087145,89.96 350.447145,89.88 351.647145,89.72 L351.647145,92.76 C350.367145,92.56 349.207145,92.48 347.247145,92.48 L320.607145,92.48 C318.607145,92.48 317.287145,92.56 316.007145,92.76 L316.007145,89.72 C317.287145,89.88 318.647145,89.96 320.607145,89.96 Z M322.927145,71.52 L325.567145,70.56 C327.487145,75.8 328.607145,79.8 329.887145,86.36 L327.287145,87.36 C326.247145,81.4 324.847145,76.32 322.927145,71.52 Z M387.164015,83.72 L376.444015,83.72 C377.404015,85.2 377.644015,85.52 378.724015,86.52 C382.164015,89.76 386.484015,91.64 392.164015,92.32 C391.524015,93.32 391.164015,94.08 390.924015,95.04 C386.204015,94 383.044015,92.72 380.084015,90.72 C377.524015,88.96 375.444015,86.68 374.204015,84.32 C373.044015,87.04 370.964015,89.44 368.164015,91.24 C365.524015,92.96 362.964015,93.88 358.244015,94.96 C357.964015,94 357.644015,93.36 357.004015,92.4 C361.604015,91.68 364.604015,90.64 367.324015,88.8 C369.444015,87.36 370.844015,85.76 371.764015,83.72 L361.964015,83.72 C360.364015,83.72 359.044015,83.8 357.884015,83.96 L357.884015,81.28 C359.044015,81.44 360.204015,81.52 361.884015,81.52 L372.484015,81.52 C372.644015,80.8 372.724015,79.96 372.724015,79.28 C372.724015,78.96 372.684015,78.76 372.644015,78.32 L375.524015,78.36 C375.444015,78.76 375.444015,78.84 375.404015,79.32 C375.324015,80.12 375.284015,80.52 375.044015,81.52 L387.284015,81.52 C389.004015,81.52 390.204015,81.44 391.284015,81.28 L391.284015,83.96 C390.084015,83.8 388.844015,83.72 387.164015,83.72 Z M371.364015,63.6 L377.364015,63.6 C378.604015,62.2 379.564015,60.72 380.444015,58.92 L382.924015,59.84 C382.004015,61.24 381.004015,62.56 380.084015,63.6 L386.084015,63.6 C387.804015,63.6 388.964015,63.52 390.084015,63.36 L390.084015,66 C389.004015,65.84 387.724015,65.76 386.084015,65.76 L375.564015,65.76 L375.564015,69.36 L384.804015,69.36 C386.404015,69.36 387.164015,69.32 388.244015,69.16 L388.244015,71.72 C387.244015,71.56 386.364015,71.52 384.804015,71.52 L375.564015,71.52 L375.564015,75.4 L387.764015,75.4 C389.484015,75.4 390.644015,75.32 391.764015,75.16 L391.764015,77.8 C390.644015,77.64 389.404015,77.6 387.764015,77.6 L361.324015,77.6 C359.724015,77.6 358.444015,77.68 357.324015,77.84 L357.324015,75.16 C358.404015,75.32 359.604015,75.4 361.324015,75.4 L373.084015,75.4 L373.084015,71.52 L364.284015,71.52 C362.724015,71.52 361.844015,71.56 360.844015,71.72 L360.844015,69.16 C361.884015,69.32 362.684015,69.36 364.284015,69.36 L373.084015,69.36 L373.084015,65.76 L363.004015,65.76 C361.324015,65.76 360.164015,65.84 359.004015,66 L359.004015,63.36 C360.204015,63.52 361.284015,63.6 363.004015,63.6 L368.644015,63.6 C368.564015,63.44 368.564015,63.44 368.404015,63.24 C367.644015,62 366.764015,60.88 365.724015,59.8 L367.964015,58.76 C369.524015,60.68 370.524015,62.08 371.364015,63.6 Z M432.600886,67.76 L432.600886,70.64 C430.960886,70.48 429.680886,70.4 428.120886,70.4 L416.640886,70.4 C418.800886,73.92 420.520886,76.08 423.480886,79.12 C426.800886,82.52 429.440886,84.56 433.800886,87.04 C432.680886,88.16 432.400886,88.48 431.800886,89.56 C429.040886,87.72 428.080886,86.96 425.200886,84.36 C422.520886,82 421.360886,80.68 419.280886,77.88 C419.240886,77.84 419.160886,77.72 419.000886,77.48 C417.840886,75.96 417.360886,75.2 416.160886,73 C416.280886,74.84 416.320886,76 416.320886,77.56 L416.320886,90.48 C416.320886,92.44 416.400886,93.68 416.600886,95.08 L413.360886,95.08 C413.560886,93.56 413.640886,92.36 413.640886,90.48 L413.640886,77.56 C413.640886,77.36 413.720886,75.88 413.920886,73.08 C411.960886,77.12 410.200886,79.52 406.600886,83.16 C404.120886,85.64 402.000886,87.44 398.800886,89.68 C398.080886,88.56 397.600886,88.04 396.760886,87.36 C401.280886,84.56 404.320886,81.96 408.080886,77.64 C410.480886,74.96 411.520886,73.48 413.280886,70.4 L402.520886,70.4 C401.000886,70.4 399.920886,70.44 398.120886,70.64 L398.120886,67.76 C399.600886,67.96 400.720886,68.04 402.480886,68.04 L413.640886,68.04 L413.640886,62.88 C413.640886,61.52 413.560886,60.56 413.360886,59.2 L416.600886,59.2 C416.400886,60.48 416.320886,61.52 416.320886,62.84 L416.320886,68.04 L428.080886,68.04 C430.160886,68.04 431.280886,67.96 432.600886,67.76 Z M420.680886,62.08 L422.360886,60.28 C425.280886,62 425.960886,62.52 428.560886,64.8 L426.800886,66.76 C424.520886,64.48 423.600886,63.8 420.680886,62.08 Z M445.717757,77 L445.717757,89.6 C448.477757,87.72 449.317757,87.08 450.797757,85.72 L450.997757,88.52 C448.717757,90.12 447.557757,90.92 446.157757,91.84 C444.717757,92.76 444.477757,92.92 443.637757,93.6 L442.437757,91.32 C443.077757,90.88 443.157757,90.68 443.197757,89.88 L443.197757,77 C443.197757,74.88 443.157757,73.84 442.957757,72.76 L445.957757,72.76 C445.797757,73.72 445.717757,74.88 445.717757,77 Z M455.317757,64.92 L455.317757,68.76 L455.517757,68.76 C456.037757,68.84 457.317757,68.88 458.677757,68.88 L466.917757,68.88 C468.717757,68.88 469.717757,68.84 470.517757,68.72 C470.397757,69.68 470.357757,70.44 470.357757,71.8 L470.357757,75.84 C470.357757,77.32 470.397757,78.08 470.517757,78.76 C469.677757,78.64 468.637757,78.6 467.077757,78.6 L457.677757,78.6 L457.677757,82.32 L468.717757,82.32 C470.277757,82.32 471.317757,82.28 472.117757,82.16 C472.037757,83.16 471.997757,84.12 471.997757,85.52 L471.997757,91.2 C471.997757,92.96 472.037757,94.04 472.157757,95 L469.597757,95 L469.597757,92.8 L457.677757,92.8 L457.677757,95.08 L455.157757,95.08 C455.277757,93.64 455.317757,92.72 455.317757,90.52 L455.317757,72.72 C455.317757,71.28 455.317757,69.92 455.277757,69.4 L452.797757,69.4 C452.877757,68.68 452.917757,67.96 452.917757,67 L452.917757,65.12 C452.917757,64.04 452.877757,63.36 452.797757,62.64 C453.917757,62.72 454.877757,62.76 456.677757,62.76 L462.037757,62.76 C461.037757,61.12 460.837757,60.8 460.037757,59.8 L461.917757,58.56 C463.357757,60.32 463.717757,60.92 464.677757,62.76 L469.117757,62.76 C470.997757,62.76 472.277757,62.72 473.677757,62.56 C473.597757,63.32 473.557757,64.16 473.557757,65.28 L473.557757,67.04 C473.557757,68.12 473.597757,68.88 473.677757,69.44 L471.117757,69.44 L471.117757,64.92 L455.317757,64.92 Z M457.677757,71.08 L457.677757,76.48 L467.997757,76.48 L467.997757,71.08 L457.677757,71.08 Z M457.677757,84.52 L457.677757,90.56 L469.597757,90.56 L469.597757,84.52 L457.677757,84.52 Z M449.277757,67.76 L443.077757,67.76 C441.877757,71.16 441.077757,72.84 439.077757,75.96 C438.317757,75.04 437.757757,74.56 437.077757,74.2 C439.357757,71.16 440.637757,68.16 441.797757,63.36 C442.277757,61.28 442.477757,60 442.477757,58.88 L445.397757,59.28 C445.197757,59.88 445.197757,59.88 444.837757,61.64 C444.597757,62.64 444.197757,64.16 443.757757,65.56 L447.037757,65.56 C448.917757,65.56 449.957757,65.52 450.717757,65.36 L452.117757,66.88 C451.877757,67.32 451.877757,67.32 450.877757,70.36 C450.477757,71.52 449.997757,72.56 448.997757,74.52 C448.157757,74 447.677757,73.76 446.757757,73.44 C447.957757,71.64 448.397757,70.64 449.277757,67.76 Z" id="19年9月20日-20年4月13日维多利亚州国立美术馆" fill="#FFFFFF" fill-rule="nonzero"></path>
                <rect id="Rectangle" stroke="#FFFFFF" opacity="0.01" x="0.5" y="0.5" width="539" height="128"></rect>
            </g>
        </g>
    </g>
</svg>