<?xml version="1.0" encoding="UTF-8"?>
<svg width="599px" height="313px" viewBox="0 0 599 313" version="1.1" xmlns="http://www.w3.org/2000/svg" xmlns:xlink="http://www.w3.org/1999/xlink">
    <!-- Generator: Sketch 56.3 (81716) - https://sketch.com -->
    <title>Group 4</title>
    <desc>Created with Sketch.</desc>
    <defs>
        <polygon id="path-1" points="0 -0.0002953125 374.38435 -0.0002953125 374.38435 188.210925 0 188.210925"></polygon>
    </defs>
    <g id="Page-1" stroke="none" stroke-width="1" fill="none" fill-rule="evenodd">
        <g id="KAWS-Microsite-Pink-Open" transform="translate(-199.000000, -498.000000)">
            <g id="Group-4" transform="translate(199.000000, 498.000000)">
                <g id="Group-37" transform="translate(112.000000, 0.000000)">
                    <g id="Group-3">
                        <mask id="mask-2" fill="white">
                            <use xlink:href="#path-1"></use>
                        </mask>
                        <g id="Clip-2"></g>
                        <path d="M28.0172244,106.132064 L51.3233268,186.22672 L80.086122,186.22672 L51.3233268,87.5332828 L77.3577756,1.73614219 L50.0831693,1.73614219 L28.0172244,75.6321891 L28.0172244,1.73614219 L-0.00147637795,1.73614219 L-0.00147637795,186.22672 L28.0172244,186.22672 L28.0172244,106.132064 Z M139.093996,186.22672 L166.120571,186.22672 L142.070374,1.73614219 L108.845965,1.73614219 L86.2810039,186.22672 L111.323327,186.22672 L114.795768,151.509783 L135.373524,151.509783 L139.093996,186.22672 Z M124.962106,55.7930953 L132.400098,123.986658 L117.772146,123.986658 L124.962106,55.7930953 Z M216.946358,1.73614219 L204.547736,121.009908 L191.904035,1.73614219 L163.637303,1.73614219 L186.695374,186.22672 L217.690453,186.22672 L229.590059,78.8540484 L241.244587,186.22672 L271.244587,186.22672 L294.79872,1.73614219 L268.51624,1.73614219 L255.624508,121.25797 L242.977854,1.73614219 L216.946358,1.73614219 Z M334.466043,-0.0002953125 C312.400098,-0.0002953125 300.004429,11.1595641 300.004429,35.9569547 L300.004429,41.9075016 C300.004429,60.2582203 303.473917,72.1593141 315.376476,87.5332828 L333.225886,110.346173 C343.392224,123.738595 344.632382,127.952705 344.632382,141.345127 L344.632382,145.559236 C344.632382,157.21522 342.152067,161.42933 335.458169,161.42933 C329.260335,161.42933 326.283957,157.21522 326.283957,148.535986 L326.283957,116.299673 L298.51624,116.299673 L298.51624,153.24622 C298.51624,176.059111 310.167815,188.21122 332.732776,188.21122 L338.186516,188.21122 C362.980807,188.21122 374.38435,172.093064 374.38435,145.063111 L374.38435,139.112564 C374.38435,118.036111 370.418799,108.860752 357.772146,92.4945328 L339.922736,69.4335797 C330.500492,57.2814703 328.51624,51.5789859 328.51624,41.1633141 L328.51624,37.6904391 C328.51624,29.0141578 330.004429,24.7970953 336.698327,24.7970953 C343.392224,24.7970953 344.632382,29.5073297 344.632382,35.7088922 L344.632382,62.2397672 L371.658957,62.2397672 L371.658957,31.9879547 C371.658957,10.1673141 362.732776,-0.0002953125 339.674705,-0.0002953125 L334.466043,-0.0002953125 Z" id="Fill-1" fill="#FEFEFE" mask="url(#mask-2)"></path>
                    </g>
                    <path d="M75.5309518,258.52 L74.2509518,258.88 C73.1309518,259.24 73.1309518,259.24 70.6109518,259.92 C69.4909518,260.24 68.8909518,260.4 68.0909518,260.76 L67.2109518,258.6 C68.0909518,257.92 68.2509518,257.64 68.3709518,256.52 L68.3309518,232.04 C67.2109518,232.2 65.3709518,232.36 63.6109518,232.48 L63.6109518,236.92 C63.6109518,245.36 62.9709518,251.8 61.6909518,255.84 C61.0109518,258 60.0109518,259.92 58.2109518,262.56 C57.6109518,261.76 57.0509518,261.2 56.2109518,260.64 C57.8109518,258.64 58.8909518,256.68 59.5709518,254.32 C60.6509518,250.64 61.2109518,244.72 61.2109518,236.84 C61.2109518,233.68 61.1709518,231.76 61.0109518,230.36 C61.5709518,230.4 62.0109518,230.44 62.2509518,230.44 C67.4509518,230.44 76.9309518,228.4 79.7309518,226.68 L81.8909518,228.8 C80.8909518,229.16 79.7709518,229.56 78.6109518,229.88 C78.6909518,238.56 78.6909518,238.56 79.0509518,242.48 C79.4509518,247.28 80.1309518,250.8 81.2909518,254.16 C82.0909518,256.48 82.6909518,257.64 84.5709518,260.44 C83.6509518,261.36 83.2909518,261.8 82.6509518,262.92 C79.8509518,258.28 78.4109518,254.36 77.4509518,248.72 C76.8909518,245.52 76.4909518,240.92 76.3709518,236.84 C76.3309518,236.2 76.3309518,236.2 76.2509518,230.52 C72.9709518,231.28 72.9709518,231.28 70.7709518,231.68 L70.7309518,257.68 L74.9309518,256.6 C74.2909518,254.68 73.9709518,253.88 73.0109518,251.76 L74.9709518,251.12 C76.8109518,255.32 77.3709518,256.88 78.7309518,261.28 L76.5309518,262.16 C76.0909518,260.56 76.0909518,260.56 75.5309518,258.52 Z M52.4509518,244.12 L52.4509518,240.8 C52.4509518,239.16 52.3709518,238.2 52.1709518,237 L53.6509518,237 C55.1309518,235 56.0909518,233.36 57.2909518,230.88 L51.1709518,230.88 C49.6109518,230.88 48.4509518,230.96 47.4509518,231.12 L47.4509518,228.4 C48.3709518,228.6 49.3309518,228.64 51.2909518,228.64 L56.8909518,228.64 C57.9309518,228.64 58.6509518,228.6 59.0909518,228.52 L60.5709518,230.04 C60.2509518,230.48 60.0509518,230.8 59.6509518,231.56 C58.5309518,233.76 56.8109518,236.48 54.9709518,238.96 L54.9709518,243.4 C56.7309518,242.84 57.4109518,242.6 59.4909518,241.8 L59.4909518,244.24 C57.6109518,244.92 57.4509518,245 54.9709518,245.8 L54.9709518,259.32 C54.9709518,261.56 54.1709518,262.28 51.7709518,262.28 C50.5309518,262.28 49.2509518,262.2 47.4909518,262.04 C47.4109518,260.92 47.3309518,260.4 47.0109518,259.48 C48.9309518,259.76 50.2909518,259.92 51.2509518,259.92 C52.2509518,259.92 52.4509518,259.76 52.4509518,259.04 L52.4509518,246.56 C51.2509518,246.88 50.1709518,247.16 48.8509518,247.48 C48.6909518,247.52 48.0909518,247.68 47.0109518,247.96 L46.4509518,245.28 C47.8109518,245.24 50.3309518,244.76 52.4509518,244.12 Z M91.8478227,228.12 L93.0478227,229.6 C93.5678227,230.28 94.3678227,231.44 95.0078227,232.52 C97.0878227,230.64 98.6478227,228.68 99.4078227,227 L101.607823,228.64 C101.407823,228.88 101.367823,228.92 101.087823,229.28 C99.3278227,231.52 97.8478227,233.08 96.0478227,234.68 C97.8478227,238.96 98.7278227,244.24 98.7278227,250.8 C98.7278227,256.44 98.1678227,259.96 97.0478227,261.44 C96.3278227,262.32 95.4478227,262.68 93.8878227,262.68 C92.7278227,262.68 91.4478227,262.48 89.7278227,262.08 C89.6878227,261.04 89.6078227,260.4 89.3278227,259.36 C91.1278227,259.96 92.7278227,260.32 93.8078227,260.32 C94.6078227,260.32 95.0878227,259.96 95.4078227,259.04 C95.9678227,257.6 96.2878227,254.36 96.2878227,250.36 C96.2878227,248.08 96.2478227,246.72 96.0478227,244.76 C94.2078227,247.6 92.0878227,249.8 88.5278227,252.48 C88.1278227,251.56 87.6878227,250.88 87.1278227,250.36 C90.9278227,247.88 93.4078227,245.28 95.5678227,241.6 C95.2478227,239.76 94.7678227,238.16 94.0878227,236.32 C92.1678227,237.8 90.8878227,238.68 88.4478227,240.08 C88.0078227,239.2 87.6078227,238.56 87.0078227,237.92 C89.7678227,236.6 90.6878227,236 93.1278227,234.16 C91.9678227,231.88 90.9278227,230.52 89.2878227,229.16 L91.4078227,227.6 C91.4078227,227.6 91.5678227,227.8 91.8478227,228.12 Z M112.527823,249.24 L112.527823,258.12 C114.847823,257.84 117.047823,257.48 119.567823,256.96 C118.607823,254.84 118.247823,254.16 117.047823,252.04 L119.287823,251.28 C121.447823,254.96 122.287823,256.8 124.087823,261.76 L121.727823,262.96 C121.087823,260.84 120.847823,260.12 120.367823,259 C115.327823,260.04 110.847823,260.72 102.447823,261.72 C101.687823,261.8 101.127823,261.88 100.287823,262.08 L99.6878227,259.2 C100.127823,259.24 100.287823,259.24 100.687823,259.24 C102.087823,259.24 105.727823,258.92 110.087823,258.4 L110.087823,249.24 L105.207823,249.24 C103.527823,249.24 102.487823,249.28 101.367823,249.4 C101.447823,248.2 101.487823,247.16 101.487823,245.52 L101.487823,238.4 C101.487823,236.6 101.447823,235.56 101.327823,234.4 C102.607823,234.56 103.687823,234.6 105.247823,234.6 L110.087823,234.6 L110.087823,231.16 C110.087823,229.48 110.047823,228.68 109.807823,227.4 L112.807823,227.4 C112.607823,228.52 112.527823,229.44 112.527823,231.12 L112.527823,234.6 L118.047823,234.6 C119.567823,234.6 120.567823,234.56 121.847823,234.4 C121.727823,235.48 121.687823,236.48 121.687823,238.2 L121.687823,245.44 C121.687823,247.32 121.727823,248.36 121.847823,249.4 C120.727823,249.28 119.807823,249.24 117.967823,249.24 L112.527823,249.24 Z M110.087823,246.96 L110.087823,236.88 L103.887823,236.88 L103.887823,246.96 L110.087823,246.96 Z M112.527823,246.96 L119.247823,246.96 L119.247823,236.88 L112.527823,236.88 L112.527823,246.96 Z M159.204694,238.64 L159.204694,258.64 C159.204694,261.28 158.364694,261.92 154.804694,261.92 C153.164694,261.92 151.764694,261.84 149.924694,261.68 C149.804694,260.56 149.604694,259.96 149.164694,258.96 C151.604694,259.32 152.764694,259.44 154.644694,259.44 C156.284694,259.44 156.644694,259.28 156.644694,258.4 L156.644694,238.64 L146.644694,238.64 C145.004694,238.64 143.444694,238.72 142.404694,238.88 L142.404694,236.08 C143.444694,236.24 144.884694,236.32 146.564694,236.32 L156.644694,236.32 L156.644694,231.72 C156.644694,229.84 156.564694,228.2 156.364694,227.04 L159.444694,227.04 C159.284694,228.4 159.204694,229.76 159.204694,231.72 L159.204694,236.32 L160.484694,236.32 C162.124694,236.32 163.284694,236.24 164.324694,236.08 L164.324694,238.8 C163.084694,238.68 161.804694,238.64 160.524694,238.64 L159.204694,238.64 Z M144.124694,243.6 L146.124694,242.28 C148.804694,245.48 150.204694,247.48 152.084694,250.92 L149.884694,252.52 C148.164694,248.92 146.524694,246.44 144.124694,243.6 Z M129.404694,256.32 L129.404694,233.48 C129.404694,231.88 129.404694,231.24 129.284694,229.64 C130.124694,229.72 131.244694,229.76 132.924694,229.76 L137.244694,229.76 C138.964694,229.76 139.964694,229.72 140.884694,229.64 C140.804694,230.56 140.764694,231.52 140.764694,233.36 L140.764694,255.6 C140.764694,257 140.804694,257.8 140.924694,259.08 L138.324694,259.08 L138.324694,256.8 L131.884694,256.8 L131.884694,260.56 L129.204694,260.56 C129.364694,259.2 129.404694,258 129.404694,256.32 Z M131.884694,232 L131.884694,241.64 L138.324694,241.64 L138.324694,232 L131.884694,232 Z M131.884694,243.88 L131.884694,254.56 L138.324694,254.56 L138.324694,243.88 L131.884694,243.88 Z M189.001565,240.64 L183.561565,241.2 C181.881565,241.36 180.801565,241.52 179.601565,241.8 L179.441565,238.92 C179.801565,238.96 179.961565,238.96 180.241565,238.96 C181.121565,238.96 182.241565,238.88 183.481565,238.76 L188.681565,238.24 C188.441565,236.24 188.241565,233.36 188.201565,231.24 C188.161565,229.48 188.081565,228.4 187.921565,227.6 L191.001565,227.56 C190.841565,228.32 190.801565,229 190.801565,230.2 C190.801565,232.4 191.001565,235.28 191.321565,237.96 L200.721565,237 C203.001565,236.76 203.801565,236.64 204.761565,236.36 L205.001565,239.24 L204.281565,239.24 C203.521565,239.24 202.361565,239.32 201.001565,239.44 L191.641565,240.4 C192.601565,246.68 194.161565,251.16 196.681565,254.96 C198.521565,257.72 200.521565,259.68 201.521565,259.68 C202.041565,259.68 202.321565,259.36 202.641565,258.36 C203.001565,257.24 203.281565,255.44 203.561565,253.08 C204.561565,253.96 205.161565,254.4 205.921565,254.8 C205.001565,260.6 203.881565,262.64 201.721565,262.64 C199.001565,262.64 194.961565,258.28 192.281565,252.56 C190.801565,249.32 189.721565,245.44 189.001565,240.64 Z M174.721565,258.16 L174.721565,245.48 C174.721565,243.6 174.761565,242.24 174.881565,240.52 C173.361565,243.12 172.401565,244.28 169.681565,246.96 C168.921565,245.6 168.801565,245.48 168.001565,244.72 C172.041565,241 174.881565,237.04 177.001565,232.16 C177.841565,230.2 178.481565,228.24 178.721565,226.8 L181.521565,227.8 C181.161565,228.68 181.161565,228.68 180.601565,230.12 C179.801565,232.24 178.481565,234.88 177.281565,237 L177.281565,258.28 C177.281565,260.16 177.361565,261.6 177.561565,263.04 L174.441565,263.04 C174.641565,261.68 174.721565,260.4 174.721565,258.16 Z M193.801565,229.16 L195.521565,227.64 C198.081565,229.64 199.441565,230.88 201.961565,233.52 L200.041565,235.36 C198.401565,233.24 196.321565,231.2 193.801565,229.16 Z M218.198435,232.92 L220.798435,232.92 C222.798435,232.88 223.958435,232.84 224.318435,232.8 C224.238435,233.84 224.198435,234.88 224.198435,236.32 L224.198435,256.68 C224.198435,258.48 224.278435,259.84 224.398435,260.8 L221.758435,260.8 L221.758435,258.24 L213.958435,258.24 L213.958435,261.76 L211.278435,261.76 C211.438435,260.72 211.478435,259.24 211.478435,256.88 L211.478435,236.6 C211.478435,234.72 211.438435,233.8 211.318435,232.8 C212.158435,232.88 212.878435,232.92 214.878435,232.92 L215.678435,232.92 C216.478435,230.96 217.078435,228.96 217.398435,226.88 L220.238435,227.44 C219.518435,229.6 218.798435,231.6 218.198435,232.92 Z M213.958435,235.12 L213.958435,244.04 L221.758435,244.04 L221.758435,235.12 L213.958435,235.12 Z M213.958435,246.24 L213.958435,256 L221.758435,256 L221.758435,246.24 L213.958435,246.24 Z M231.918435,232.88 L241.598435,232.88 C243.198435,232.88 244.318435,232.84 245.118435,232.72 C244.998435,233.44 244.998435,233.76 244.958435,235.24 C244.598435,251.08 244.078435,256.44 242.638435,259.64 C241.838435,261.48 240.558435,262.2 238.158435,262.2 C236.718435,262.2 235.558435,262.12 233.078435,261.92 C232.998435,260.76 232.838435,260.08 232.398435,259.08 C234.838435,259.56 236.638435,259.76 238.078435,259.76 C239.558435,259.76 240.078435,259.4 240.598435,258.12 C241.278435,256.28 241.798435,252.44 242.078435,247.08 C242.278435,243.88 242.318435,241.12 242.358435,235.24 L230.838435,235.24 C229.478435,238 228.318435,239.84 226.238435,242.52 C225.718435,241.84 224.998435,241.16 224.318435,240.72 C226.758435,238.12 228.718435,234.72 230.198435,230.64 C230.758435,229.12 231.158435,227.64 231.238435,226.76 L233.998435,227.28 C233.878435,227.52 233.678435,228.08 233.438435,228.8 C232.958435,230.2 232.558435,231.28 231.918435,232.88 Z M237.518435,250.32 L235.238435,251.72 C232.998435,246.92 231.478435,244.4 229.158435,241.6 L231.198435,240.36 C233.718435,243.4 235.398435,246.04 237.518435,250.32 Z M276.675306,231.52 L282.275306,231.52 C284.195306,231.52 285.235306,231.48 286.115306,231.32 L286.115306,234 C285.155306,233.84 284.235306,233.8 282.235306,233.8 L268.435306,233.8 C266.475306,233.8 265.595306,233.84 264.595306,234 L264.595306,231.32 C265.515306,231.48 266.515306,231.52 268.435306,231.52 L274.115306,231.52 C273.275306,229.72 272.875306,229 271.835306,227.44 L274.035306,226.6 C275.315306,228.6 276.075306,230 276.675306,231.52 Z M279.355306,242.2 L283.235306,242.2 C285.115306,242.2 286.235306,242.16 287.155306,242 L287.155306,244.68 C286.155306,244.52 285.235306,244.48 283.275306,244.48 L267.035306,244.48 C265.235306,244.48 264.395306,244.52 263.395306,244.68 L263.395306,242 C264.315306,242.16 265.275306,242.2 267.035306,242.2 L276.955306,242.2 C278.475306,239.56 279.355306,237.44 280.195306,234.4 L282.635306,235.2 C281.515306,238.24 280.835306,239.72 279.355306,242.2 Z M252.635306,259.08 L252.635306,230.84 C252.635306,229.72 252.595306,229.2 252.515306,227.88 C253.115306,227.96 254.035306,228 255.315306,228 L260.355306,228 C261.595306,228 262.195306,227.96 262.835306,227.84 L264.155306,229.4 C263.995306,229.72 263.995306,229.72 262.955306,232.2 C262.035306,234.44 260.755306,237 259.235306,239.6 C260.995306,241.76 261.675306,242.88 262.315306,244.64 C262.875306,246.12 263.155306,247.72 263.155306,249.24 C263.155306,251.28 262.515306,252.68 261.315306,253.32 C260.475306,253.76 259.515306,253.92 257.715306,253.92 C257.315306,253.92 257.035306,253.92 256.435306,253.88 C256.315306,252.72 256.195306,252.24 255.835306,251.32 C256.995306,251.52 257.595306,251.6 258.395306,251.6 C260.235306,251.6 260.755306,251.04 260.755306,249.04 C260.755306,247.12 260.315306,245.28 259.395306,243.56 C258.835306,242.48 258.075306,241.48 256.555306,239.84 C258.555306,236.56 259.795306,234 261.155306,230.24 L255.155306,230.24 L255.155306,259.08 C255.155306,260.68 255.195306,261.64 255.355306,262.8 L252.395306,262.8 C252.555306,261.72 252.635306,260.68 252.635306,259.08 Z M272.275306,240.8 L269.955306,241.68 C269.115306,239 268.515306,237.6 267.275306,235.36 L269.555306,234.52 C270.875306,237 271.435306,238.28 272.275306,240.8 Z M268.435306,260.2 L268.435306,262.6 L265.755306,262.6 C265.875306,261.8 265.915306,260.84 265.915306,259.04 L265.915306,251.36 C265.915306,249.4 265.915306,248.88 265.795306,248 C266.635306,248.08 267.555306,248.12 268.995306,248.12 L280.875306,248.12 C282.235306,248.12 283.115306,248.08 283.915306,248 C283.835306,248.8 283.795306,249.44 283.795306,251.44 L283.795306,259.28 C283.795306,260.8 283.835306,261.64 283.955306,262.6 L281.195306,262.6 L281.195306,260.2 L268.435306,260.2 Z M268.435306,250.36 L268.435306,257.96 L281.275306,257.96 L281.275306,250.36 L268.435306,250.36 Z M314.832177,240.88 L321.792177,240.88 C323.792177,240.88 324.992177,240.8 326.272177,240.64 L326.272177,243.48 C324.912177,243.36 323.432177,243.28 321.672177,243.28 L314.832177,243.28 L314.832177,249.36 L322.912177,249.36 C324.952177,249.36 326.272177,249.28 327.552177,249.12 L327.552177,252 C326.112177,251.8 324.912177,251.76 322.992177,251.76 L314.832177,251.76 L314.832177,258.48 C314.832177,260.28 314.912177,261.6 315.112177,263.04 L311.952177,263.04 C312.152177,261.68 312.232177,260.28 312.232177,258.52 L312.232177,251.76 L304.752177,251.76 C302.792177,251.76 301.552177,251.84 300.152177,252 L300.152177,249.12 C301.352177,249.28 302.712177,249.36 304.752177,249.36 L312.232177,249.36 L312.232177,243.28 L306.312177,243.28 C304.592177,243.28 303.072177,243.36 301.792177,243.48 L301.792177,240.64 C302.912177,240.8 304.152177,240.88 306.072177,240.88 L312.232177,240.88 L312.232177,230.92 C312.232177,229.08 312.152177,227.96 311.952177,226.76 L315.112177,226.76 C314.912177,228 314.832177,229 314.832177,230.92 L314.832177,240.88 Z M295.552177,258.2 L295.552177,245.48 C295.552177,243.44 295.592177,242.44 295.712177,240.64 C294.592177,242.92 294.032177,243.88 292.112177,246.4 C291.592177,245.48 291.232177,244.96 290.512177,244.2 C293.312177,241.04 295.512177,237.16 297.312177,232.32 C298.192177,229.8 298.512177,228.76 298.792177,226.8 L301.592177,227.52 C301.112177,228.8 301.112177,228.8 300.352177,231.16 C299.952177,232.4 299.512177,233.44 298.112177,236.76 L298.112177,258.32 C298.112177,260.16 298.192177,261.64 298.312177,263 L295.312177,263 C295.512177,261.44 295.552177,260.28 295.552177,258.2 Z M308.512177,237.8 L306.032177,238.92 C304.912177,235.16 304.072177,233.16 302.112177,229.96 L304.512177,228.92 C306.312177,232.28 307.112177,234 308.512177,237.8 Z M322.992177,228.48 L325.632177,229.76 C323.832177,233.84 322.672177,236 320.392177,239.48 L318.152177,238.28 C320.712177,234.48 321.872177,232.12 322.992177,228.48 Z" id="孤独时代的陪伴" fill="#FFFFFF" fill-rule="nonzero"></path>
                </g>
                <rect id="Rectangle" stroke="#FFFFFF" opacity="0.010765439" x="0.5" y="0.5" width="598" height="312"></rect>
            </g>
        </g>
    </g>
</svg>