<?xml version="1.0" encoding="UTF-8"?>
<svg width="540px" height="129px" viewBox="0 0 540 129" version="1.1" xmlns="http://www.w3.org/2000/svg" xmlns:xlink="http://www.w3.org/1999/xlink">
    <!-- Generator: Sketch 56.3 (81716) - https://sketch.com -->
    <title>20SEP19-13APR20ATNATIONALGALLERYOFVICTORIA</title>
    <desc>Created with Sketch.</desc>
    <g id="Page-1" stroke="none" stroke-width="1" fill="none" fill-rule="evenodd">
        <g id="KAWS-Microsite-Pink" transform="translate(-1265.000000, -589.000000)" fill="#FFFFFF" fill-rule="nonzero">
            <path d="M1314.89286,621 L1314.89286,620.84 C1325.41286,610.44 1330.25286,603.92 1330.25286,598.08 C1330.25286,594.44 1328.21286,592.12 1324.61286,592.12 C1321.05286,592.12 1318.33286,594.52 1317.93286,599.44 L1316.97286,599.44 C1317.01286,593.4 1320.85286,590 1326.09286,590 C1331.69286,590 1334.29286,593.32 1334.29286,597.24 C1334.29286,602.52 1329.69286,607.84 1321.69286,615.08 L1318.85286,617.68 L1330.17286,617.68 C1332.37286,617.68 1333.09286,617.52 1333.69286,616.08 L1334.93286,613.08 L1335.89286,613.08 L1333.73286,621 L1314.89286,621 Z M1340.40973,605.76 C1340.40973,597.56 1344.56973,590 1351.76973,590 C1358.96973,590 1363.12973,597.56 1363.12973,605.76 C1363.12973,613.92 1358.96973,621.48 1351.76973,621.48 C1344.56973,621.48 1340.40973,613.92 1340.40973,605.76 Z M1344.64973,605.76 C1344.64973,614.32 1347.04973,620.28 1351.76973,620.28 C1356.48973,620.28 1358.88973,614.32 1358.88973,605.76 C1358.88973,597.16 1356.48973,591.2 1351.76973,591.2 C1347.04973,591.2 1344.64973,597.16 1344.64973,605.76 Z M1388.00347,621.48 C1384.92347,621.48 1382.44347,621.16 1380.24347,620.44 L1379.32347,611.28 L1380.04347,611.28 L1383.48347,618.36 C1383.84347,619.08 1384.40347,619.56 1385.04347,619.8 C1385.76347,620.08 1386.60347,620.2 1388.04347,620.2 C1392.20347,620.2 1395.72347,618.12 1395.72347,614.56 C1395.72347,610.72 1392.88347,608.92 1388.64347,607.56 L1386.52347,606.88 C1381.88347,605.4 1379.16347,602.48 1379.16347,598.04 C1379.16347,592.88 1384.28347,590 1389.64347,590 C1392.16347,590 1394.48347,590.32 1396.44347,591.08 L1397.88347,599.24 L1397.16347,599.24 L1393.28347,592.88 C1392.68347,591.88 1392.24347,591.72 1391.44347,591.52 C1390.72347,591.36 1389.96347,591.32 1389.08347,591.32 C1385.84347,591.32 1382.68347,593.28 1382.68347,596.72 C1382.68347,599.44 1384.24347,601.44 1387.68347,602.56 L1389.80347,603.24 C1395.40347,605.04 1399.36347,607.4 1399.36347,612.84 C1399.36347,618.08 1394.24347,621.48 1388.00347,621.48 Z M1404.48034,621 L1404.48034,620.04 L1406.28034,619.92 C1407.44034,619.84 1408.08034,619.6 1408.08034,618.48 L1408.08034,593.2 C1408.08034,592.08 1407.44034,591.84 1406.28034,591.76 L1404.48034,591.64 L1404.48034,590.68 L1426.76034,590.68 L1428.08034,599.56 L1427.36034,599.56 L1423.28034,592.6 C1422.96034,592.04 1422.80034,591.96 1422.12034,591.96 L1412.12034,591.96 L1412.12034,604.48 L1418.12034,604.48 C1418.80034,604.48 1418.88034,604.36 1419.00034,603.96 L1420.60034,599.24 L1421.32034,599.24 L1421.32034,611.12 L1420.60034,611.12 L1419.00034,606.44 C1418.84034,606 1418.80034,605.92 1418.12034,605.92 L1412.12034,605.92 L1412.12034,619.72 L1424.08034,619.72 C1424.72034,619.72 1424.84034,619.64 1425.20034,619.16 L1430.68034,612.04 L1431.40034,612.04 L1428.68034,621 L1404.48034,621 Z M1435.23721,621 L1435.23721,620.04 L1437.03721,619.92 C1438.19721,619.84 1438.83721,619.6 1438.83721,618.48 L1438.83721,593.2 C1438.83721,592.08 1438.19721,591.84 1437.03721,591.76 L1435.23721,591.64 L1435.23721,590.68 L1447.87721,590.68 C1454.87721,590.68 1460.63721,592.16 1460.63721,598.72 C1460.63721,605.24 1454.87721,607 1447.87721,607 L1443.87721,607 L1443.87721,605.72 L1447.51721,605.72 C1452.91721,605.72 1456.11721,604.04 1456.11721,598.84 C1456.11721,593.68 1452.91721,591.92 1447.51721,591.92 L1442.87721,591.92 L1442.87721,618.48 C1442.87721,619.6 1443.51721,619.84 1444.71721,619.88 L1448.15721,619.96 L1448.15721,621 L1435.23721,621 Z M1478.23095,618.68 L1478.23095,592.92 L1472.27095,595.4 L1472.27095,594.32 L1481.99095,590.24 L1481.99095,618.68 C1481.99095,619.76 1482.19095,619.92 1483.55095,620 L1484.91095,620.08 L1484.91095,621 L1474.59095,621 L1474.59095,620.08 L1476.71095,620 C1478.03095,619.96 1478.23095,619.76 1478.23095,618.68 Z M1511.02782,601.16 C1511.02782,610.04 1502.70782,618.88 1489.98782,622.68 L1489.66782,621.88 C1498.98782,618.36 1504.62782,612.2 1506.30782,605.52 C1504.34782,607.52 1501.78782,608.8 1498.82782,608.8 C1494.14782,608.8 1489.98782,605.88 1489.98782,599.84 C1489.98782,594.08 1494.78782,590 1500.30782,590 C1506.90782,590 1511.02782,594.84 1511.02782,601.16 Z M1494.18782,599 C1494.18782,603.92 1496.82782,607 1500.66782,607 C1502.82782,607 1504.98782,606.24 1506.54782,604.48 C1506.74782,603.44 1506.82782,602.36 1506.82782,601.32 C1506.82782,595.4 1504.26782,591.12 1500.18782,591.12 C1496.58782,591.12 1494.18782,594.24 1494.18782,599 Z M1526.70156,611.6 L1526.70156,609.48 L1538.46156,609.48 L1538.46156,611.6 L1526.70156,611.6 Z M1559.17531,618.68 L1559.17531,592.92 L1553.21531,595.4 L1553.21531,594.32 L1562.93531,590.24 L1562.93531,618.68 C1562.93531,619.76 1563.13531,619.92 1564.49531,620 L1565.85531,620.08 L1565.85531,621 L1555.53531,621 L1555.53531,620.08 L1557.65531,620 C1558.97531,619.96 1559.17531,619.76 1559.17531,618.68 Z M1578.29218,621.48 C1573.33218,621.48 1570.25218,618.68 1570.25218,616.32 C1570.25218,614.76 1571.93218,613.68 1573.81218,614.08 C1574.33218,617.56 1575.85218,620.16 1579.85218,620.16 C1583.13218,620.16 1587.05218,617.8 1587.05218,612.68 C1587.05218,607.68 1583.01218,604.76 1579.57218,604.76 C1578.37218,604.76 1577.25218,605.16 1576.41218,605.52 L1576.05218,604.48 L1577.57218,603.92 C1581.65218,602.4 1584.77218,599.6 1584.77218,596.48 C1584.77218,593.68 1582.69218,592.12 1579.73218,592.12 C1576.73218,592.12 1573.65218,593.64 1573.05218,598 L1572.05218,598 C1572.57218,592.84 1576.09218,590 1581.21218,590 C1585.45218,590 1588.41218,592.2 1588.41218,595.28 C1588.41218,598.4 1585.49218,600.4 1582.29218,601.68 L1582.29218,601.76 C1587.05218,602.64 1590.45218,605.88 1590.45218,610.48 C1590.45218,617.12 1584.33218,621.48 1578.29218,621.48 Z M1629.04592,618.56 C1629.44592,619.56 1629.92592,619.84 1631.12592,619.92 L1632.88592,620.04 L1632.88592,621 L1621.32592,621 L1621.32592,620.04 L1623.32592,619.92 C1624.60592,619.84 1625.04592,619.56 1624.64592,618.56 L1621.20592,609.84 L1609.88592,609.84 L1606.44592,618.56 C1606.04592,619.56 1606.48592,619.84 1607.76592,619.92 L1609.76592,620.04 L1609.76592,621 L1601.04592,621 L1601.04592,620.04 L1602.80592,619.92 C1603.96592,619.84 1604.44592,619.56 1604.84592,618.56 L1616.64592,589.24 L1617.28592,589.24 L1629.04592,618.56 Z M1610.52592,608.24 L1620.60592,608.24 L1615.56592,595.44 L1610.52592,608.24 Z M1635.20279,621 L1635.20279,620.04 L1637.00279,619.92 C1638.16279,619.84 1638.80279,619.6 1638.80279,618.48 L1638.80279,593.2 C1638.80279,592.08 1638.16279,591.84 1637.00279,591.76 L1635.20279,591.64 L1635.20279,590.68 L1647.84279,590.68 C1654.84279,590.68 1660.60279,592.16 1660.60279,598.72 C1660.60279,605.24 1654.84279,607 1647.84279,607 L1643.84279,607 L1643.84279,605.72 L1647.48279,605.72 C1652.88279,605.72 1656.08279,604.04 1656.08279,598.84 C1656.08279,593.68 1652.88279,591.92 1647.48279,591.92 L1642.84279,591.92 L1642.84279,618.48 C1642.84279,619.6 1643.48279,619.84 1644.68279,619.88 L1648.12279,619.96 L1648.12279,621 L1635.20279,621 Z M1664.35966,621 L1664.35966,620.04 L1666.15966,619.92 C1667.31966,619.84 1667.95966,619.6 1667.95966,618.48 L1667.95966,593.2 C1667.95966,592.08 1667.31966,591.84 1666.15966,591.76 L1664.35966,591.64 L1664.35966,590.68 L1675.83966,590.68 C1683.07966,590.68 1688.39966,592.24 1688.39966,598.08 C1688.39966,602.52 1685.03966,604.92 1679.55966,605.6 L1693.55966,621 L1688.39966,621 L1674.91966,606.08 L1671.99966,606.08 L1671.99966,618.48 C1671.99966,619.6 1672.63966,619.84 1673.83966,619.92 L1675.63966,620.04 L1675.63966,621 L1664.35966,621 Z M1671.99966,604.84 L1675.51966,604.84 C1680.63966,604.84 1683.87966,603.12 1683.87966,598.36 C1683.87966,593.64 1680.63966,591.92 1675.51966,591.92 L1671.99966,591.92 L1671.99966,604.84 Z M1703.9934,621 L1703.9934,620.84 C1714.5134,610.44 1719.3534,603.92 1719.3534,598.08 C1719.3534,594.44 1717.3134,592.12 1713.7134,592.12 C1710.1534,592.12 1707.4334,594.52 1707.0334,599.44 L1706.0734,599.44 C1706.1134,593.4 1709.9534,590 1715.1934,590 C1720.7934,590 1723.3934,593.32 1723.3934,597.24 C1723.3934,602.52 1718.7934,607.84 1710.7934,615.08 L1707.9534,617.68 L1719.2734,617.68 C1721.4734,617.68 1722.1934,617.52 1722.7934,616.08 L1724.0334,613.08 L1724.9934,613.08 L1722.8334,621 L1703.9934,621 Z M1729.51027,605.76 C1729.51027,597.56 1733.67027,590 1740.87027,590 C1748.07027,590 1752.23027,597.56 1752.23027,605.76 C1752.23027,613.92 1748.07027,621.48 1740.87027,621.48 C1733.67027,621.48 1729.51027,613.92 1729.51027,605.76 Z M1733.75027,605.76 C1733.75027,614.32 1736.15027,620.28 1740.87027,620.28 C1745.59027,620.28 1747.99027,614.32 1747.99027,605.76 C1747.99027,597.16 1745.59027,591.2 1740.87027,591.2 C1736.15027,591.2 1733.75027,597.16 1733.75027,605.76 Z M1293.50973,666.56 C1293.90973,667.56 1294.38973,667.84 1295.58973,667.92 L1297.34973,668.04 L1297.34973,669 L1285.78973,669 L1285.78973,668.04 L1287.78973,667.92 C1289.06973,667.84 1289.50973,667.56 1289.10973,666.56 L1285.66973,657.84 L1274.34973,657.84 L1270.90973,666.56 C1270.50973,667.56 1270.94973,667.84 1272.22973,667.92 L1274.22973,668.04 L1274.22973,669 L1265.50973,669 L1265.50973,668.04 L1267.26973,667.92 C1268.42973,667.84 1268.90973,667.56 1269.30973,666.56 L1281.10973,637.24 L1281.74973,637.24 L1293.50973,666.56 Z M1274.98973,656.24 L1285.06973,656.24 L1280.02973,643.44 L1274.98973,656.24 Z M1303.5866,669 L1303.5866,668 L1305.9866,667.88 C1307.1466,667.84 1307.7866,667.6 1307.7866,666.48 L1307.7866,639.84 L1300.8266,639.84 C1300.1466,639.84 1299.9066,639.92 1299.6666,640.48 L1296.1466,648.04 L1295.4266,648.04 L1296.3866,638.68 L1323.2266,638.68 L1324.2266,648.04 L1323.5066,648.04 L1319.9466,640.48 C1319.6666,639.92 1319.4666,639.84 1318.8266,639.84 L1311.8666,639.84 L1311.8666,666.48 C1311.8666,667.6 1312.4666,667.8 1313.6666,667.88 L1316.0666,668 L1316.0666,669 L1303.5866,669 Z M1336.98034,669 L1336.98034,668.04 L1338.78034,667.92 C1339.98034,667.84 1340.58034,667.6 1340.58034,666.48 L1340.58034,642.88 L1336.94034,638.76 L1336.94034,638.68 L1342.22034,638.68 L1363.02034,661.96 L1363.02034,641.2 C1363.02034,640.08 1362.38034,639.84 1361.18034,639.76 L1359.38034,639.64 L1359.38034,638.68 L1368.18034,638.68 L1368.18034,639.64 L1366.38034,639.76 C1365.18034,639.84 1364.58034,640.08 1364.58034,641.2 L1364.58034,669.76 L1364.42034,669.76 L1342.14034,644.64 L1342.14034,666.48 C1342.14034,667.6 1342.78034,667.84 1343.98034,667.92 L1345.74034,668.04 L1345.74034,669 L1336.98034,669 Z M1397.89721,666.56 C1398.29721,667.56 1398.77721,667.84 1399.97721,667.92 L1401.73721,668.04 L1401.73721,669 L1390.17721,669 L1390.17721,668.04 L1392.17721,667.92 C1393.45721,667.84 1393.89721,667.56 1393.49721,666.56 L1390.05721,657.84 L1378.73721,657.84 L1375.29721,666.56 C1374.89721,667.56 1375.33721,667.84 1376.61721,667.92 L1378.61721,668.04 L1378.61721,669 L1369.89721,669 L1369.89721,668.04 L1371.65721,667.92 C1372.81721,667.84 1373.29721,667.56 1373.69721,666.56 L1385.49721,637.24 L1386.13721,637.24 L1397.89721,666.56 Z M1379.37721,656.24 L1389.45721,656.24 L1384.41721,643.44 L1379.37721,656.24 Z M1407.97408,669 L1407.97408,668 L1410.37408,667.88 C1411.53408,667.84 1412.17408,667.6 1412.17408,666.48 L1412.17408,639.84 L1405.21408,639.84 C1404.53408,639.84 1404.29408,639.92 1404.05408,640.48 L1400.53408,648.04 L1399.81408,648.04 L1400.77408,638.68 L1427.61408,638.68 L1428.61408,648.04 L1427.89408,648.04 L1424.33408,640.48 C1424.05408,639.92 1423.85408,639.84 1423.21408,639.84 L1416.25408,639.84 L1416.25408,666.48 C1416.25408,667.6 1416.85408,667.8 1418.05408,667.88 L1420.45408,668 L1420.45408,669 L1407.97408,669 Z M1432.29095,669 L1432.29095,668.04 L1434.09095,667.92 C1435.25095,667.84 1435.89095,667.6 1435.89095,666.48 L1435.89095,641.2 C1435.89095,640.08 1435.25095,639.84 1434.09095,639.76 L1432.29095,639.64 L1432.29095,638.68 L1443.57095,638.68 L1443.57095,639.64 L1441.77095,639.76 C1440.57095,639.84 1439.93095,640.08 1439.93095,641.2 L1439.93095,666.48 C1439.93095,667.6 1440.57095,667.84 1441.77095,667.92 L1443.57095,668.04 L1443.57095,669 L1432.29095,669 Z M1464.00782,669.48 C1455.20782,669.48 1448.04782,663.2 1448.04782,653.76 C1448.04782,644.28 1455.20782,638 1464.00782,638 C1472.80782,638 1479.96782,644.28 1479.96782,653.76 C1479.96782,663.2 1472.80782,669.48 1464.00782,669.48 Z M1464.00782,668.16 C1470.48782,668.16 1475.32782,662.96 1475.32782,653.76 C1475.32782,644.52 1470.48782,639.32 1464.00782,639.32 C1457.52782,639.32 1452.64782,644.52 1452.64782,653.76 C1452.64782,662.96 1457.52782,668.16 1464.00782,668.16 Z M1484.60469,669 L1484.60469,668.04 L1486.40469,667.92 C1487.60469,667.84 1488.20469,667.6 1488.20469,666.48 L1488.20469,642.88 L1484.56469,638.76 L1484.56469,638.68 L1489.84469,638.68 L1510.64469,661.96 L1510.64469,641.2 C1510.64469,640.08 1510.00469,639.84 1508.80469,639.76 L1507.00469,639.64 L1507.00469,638.68 L1515.80469,638.68 L1515.80469,639.64 L1514.00469,639.76 C1512.80469,639.84 1512.20469,640.08 1512.20469,641.2 L1512.20469,669.76 L1512.04469,669.76 L1489.76469,644.64 L1489.76469,666.48 C1489.76469,667.6 1490.40469,667.84 1491.60469,667.92 L1493.36469,668.04 L1493.36469,669 L1484.60469,669 Z M1545.52156,666.56 C1545.92156,667.56 1546.40156,667.84 1547.60156,667.92 L1549.36156,668.04 L1549.36156,669 L1537.80156,669 L1537.80156,668.04 L1539.80156,667.92 C1541.08156,667.84 1541.52156,667.56 1541.12156,666.56 L1537.68156,657.84 L1526.36156,657.84 L1522.92156,666.56 C1522.52156,667.56 1522.96156,667.84 1524.24156,667.92 L1526.24156,668.04 L1526.24156,669 L1517.52156,669 L1517.52156,668.04 L1519.28156,667.92 C1520.44156,667.84 1520.92156,667.56 1521.32156,666.56 L1533.12156,637.24 L1533.76156,637.24 L1545.52156,666.56 Z M1527.00156,656.24 L1537.08156,656.24 L1532.04156,643.44 L1527.00156,656.24 Z M1551.67844,669 L1551.67844,668.04 L1553.47844,667.92 C1554.63844,667.84 1555.27844,667.6 1555.27844,666.48 L1555.27844,641.2 C1555.27844,640.08 1554.63844,639.84 1553.47844,639.76 L1551.67844,639.64 L1551.67844,638.68 L1562.95844,638.68 L1562.95844,639.64 L1561.15844,639.76 C1559.95844,639.84 1559.31844,640.08 1559.31844,641.2 L1559.31844,667.72 L1569.71844,667.72 C1570.35844,667.72 1570.47844,667.64 1570.83844,667.16 L1576.31844,660.04 L1577.03844,660.04 L1574.31844,669 L1551.67844,669 Z M1606.59218,669.48 C1596.55218,669.48 1589.35218,663.44 1589.35218,653.76 C1589.35218,644.08 1596.71218,638 1606.79218,638 C1610.15218,638 1613.99218,638.56 1616.39218,639.8 L1618.07218,648.48 L1617.35218,648.48 L1612.83218,641.2 C1612.27218,640.28 1611.91218,640 1610.95218,639.72 C1609.71218,639.36 1608.39218,639.28 1606.63218,639.28 C1600.23218,639.28 1593.95218,643.16 1593.95218,652.96 C1593.95218,661.8 1598.75218,668.16 1606.95218,668.16 C1609.19218,668.16 1612.03218,667.8 1614.07218,666.72 L1614.07218,657.84 C1614.07218,656.72 1613.43218,656.4 1612.27218,656.36 L1607.55218,656.24 L1607.55218,654.96 L1621.75218,654.96 L1621.75218,656.4 L1618.15218,656.44 L1618.15218,664.28 L1618.27218,667.04 C1615.23218,668.28 1610.47218,669.48 1606.59218,669.48 Z M1650.38905,666.56 C1650.78905,667.56 1651.26905,667.84 1652.46905,667.92 L1654.22905,668.04 L1654.22905,669 L1642.66905,669 L1642.66905,668.04 L1644.66905,667.92 C1645.94905,667.84 1646.38905,667.56 1645.98905,666.56 L1642.54905,657.84 L1631.22905,657.84 L1627.78905,666.56 C1627.38905,667.56 1627.82905,667.84 1629.10905,667.92 L1631.10905,668.04 L1631.10905,669 L1622.38905,669 L1622.38905,668.04 L1624.14905,667.92 C1625.30905,667.84 1625.78905,667.56 1626.18905,666.56 L1637.98905,637.24 L1638.62905,637.24 L1650.38905,666.56 Z M1631.86905,656.24 L1641.94905,656.24 L1636.90905,643.44 L1631.86905,656.24 Z M1656.54592,669 L1656.54592,668.04 L1658.34592,667.92 C1659.50592,667.84 1660.14592,667.6 1660.14592,666.48 L1660.14592,641.2 C1660.14592,640.08 1659.50592,639.84 1658.34592,639.76 L1656.54592,639.64 L1656.54592,638.68 L1667.82592,638.68 L1667.82592,639.64 L1666.02592,639.76 C1664.82592,639.84 1664.18592,640.08 1664.18592,641.2 L1664.18592,667.72 L1674.58592,667.72 C1675.22592,667.72 1675.34592,667.64 1675.70592,667.16 L1681.18592,660.04 L1681.90592,660.04 L1679.18592,669 L1656.54592,669 Z M1685.42279,669 L1685.42279,668.04 L1687.22279,667.92 C1688.38279,667.84 1689.02279,667.6 1689.02279,666.48 L1689.02279,641.2 C1689.02279,640.08 1688.38279,639.84 1687.22279,639.76 L1685.42279,639.64 L1685.42279,638.68 L1696.70279,638.68 L1696.70279,639.64 L1694.90279,639.76 C1693.70279,639.84 1693.06279,640.08 1693.06279,641.2 L1693.06279,667.72 L1703.46279,667.72 C1704.10279,667.72 1704.22279,667.64 1704.58279,667.16 L1710.06279,660.04 L1710.78279,660.04 L1708.06279,669 L1685.42279,669 Z M1714.29966,669 L1714.29966,668.04 L1716.09966,667.92 C1717.25966,667.84 1717.89966,667.6 1717.89966,666.48 L1717.89966,641.2 C1717.89966,640.08 1717.25966,639.84 1716.09966,639.76 L1714.29966,639.64 L1714.29966,638.68 L1736.57966,638.68 L1737.89966,647.56 L1737.17966,647.56 L1733.09966,640.6 C1732.77966,640.04 1732.61966,639.96 1731.93966,639.96 L1721.93966,639.96 L1721.93966,652.48 L1727.93966,652.48 C1728.61966,652.48 1728.69966,652.36 1728.81966,651.96 L1730.41966,647.24 L1731.13966,647.24 L1731.13966,659.12 L1730.41966,659.12 L1728.81966,654.44 C1728.65966,654 1728.61966,653.92 1727.93966,653.92 L1721.93966,653.92 L1721.93966,667.72 L1733.89966,667.72 C1734.53966,667.72 1734.65966,667.64 1735.01966,667.16 L1740.49966,660.04 L1741.21966,660.04 L1738.49966,669 L1714.29966,669 Z M1745.05653,669 L1745.05653,668.04 L1746.85653,667.92 C1748.01653,667.84 1748.65653,667.6 1748.65653,666.48 L1748.65653,641.2 C1748.65653,640.08 1748.01653,639.84 1746.85653,639.76 L1745.05653,639.64 L1745.05653,638.68 L1756.53653,638.68 C1763.77653,638.68 1769.09653,640.24 1769.09653,646.08 C1769.09653,650.52 1765.73653,652.92 1760.25653,653.6 L1774.25653,669 L1769.09653,669 L1755.61653,654.08 L1752.69653,654.08 L1752.69653,666.48 C1752.69653,667.6 1753.33653,667.84 1754.53653,667.92 L1756.33653,668.04 L1756.33653,669 L1745.05653,669 Z M1752.69653,652.84 L1756.21653,652.84 C1761.33653,652.84 1764.57653,651.12 1764.57653,646.36 C1764.57653,641.64 1761.33653,639.92 1756.21653,639.92 L1752.69653,639.92 L1752.69653,652.84 Z M1782.2134,669 L1782.2134,668 L1784.6134,667.88 C1785.7734,667.84 1786.4134,667.6 1786.4134,666.48 L1786.4134,655.32 L1776.4934,641.12 C1775.8134,640.16 1775.6134,639.84 1774.4534,639.76 L1772.6934,639.64 L1772.6934,638.68 L1784.2934,638.68 L1784.2934,639.64 L1782.2934,639.76 C1781.0534,639.84 1780.3334,640.2 1780.9734,641.12 L1789.8134,653.8 L1798.6934,641.12 C1799.3734,640.16 1798.6134,639.84 1797.3734,639.76 L1795.3734,639.64 L1795.3734,638.68 L1804.1734,638.68 L1804.1734,639.64 L1802.4134,639.76 C1801.2534,639.84 1801.0134,640.2 1800.3734,641.12 L1790.4534,655.32 L1790.4534,666.48 C1790.4534,667.6 1791.0934,667.8 1792.2934,667.88 L1794.6934,668 L1794.6934,669 L1782.2134,669 Z M1402.69721,717.48 C1393.89721,717.48 1386.73721,711.2 1386.73721,701.76 C1386.73721,692.28 1393.89721,686 1402.69721,686 C1411.49721,686 1418.65721,692.28 1418.65721,701.76 C1418.65721,711.2 1411.49721,717.48 1402.69721,717.48 Z M1402.69721,716.16 C1409.17721,716.16 1414.01721,710.96 1414.01721,701.76 C1414.01721,692.52 1409.17721,687.32 1402.69721,687.32 C1396.21721,687.32 1391.33721,692.52 1391.33721,701.76 C1391.33721,710.96 1396.21721,716.16 1402.69721,716.16 Z M1423.17408,717 L1423.17408,716.04 L1424.97408,715.92 C1426.13408,715.84 1426.77408,715.6 1426.77408,714.48 L1426.77408,689.2 C1426.77408,688.08 1426.13408,687.84 1424.97408,687.76 L1423.17408,687.64 L1423.17408,686.68 L1446.77408,686.68 L1448.13408,695.56 L1447.41408,695.56 L1443.29408,688.6 C1442.97408,688.04 1442.81408,687.96 1442.17408,687.96 L1430.81408,687.96 L1430.81408,700.48 L1437.13408,700.48 C1437.77408,700.48 1437.89408,700.36 1438.01408,699.96 L1439.57408,695.24 L1440.29408,695.24 L1440.29408,707.12 L1439.57408,707.12 L1438.01408,702.44 C1437.85408,702 1437.77408,701.92 1437.13408,701.92 L1430.81408,701.92 L1430.81408,714.48 C1430.81408,715.6 1431.45408,715.84 1432.65408,715.88 L1436.09408,715.96 L1436.09408,717 L1423.17408,717 Z M1472.12782,718 L1460.08782,689.12 C1459.64782,688.12 1459.20782,687.84 1458.04782,687.76 L1456.28782,687.64 L1456.28782,686.68 L1467.76782,686.68 L1467.76782,687.64 L1465.76782,687.76 C1464.48782,687.84 1464.04782,688.12 1464.44782,689.12 L1473.84782,712 L1483.28782,689.12 C1483.68782,688.12 1483.20782,687.84 1481.96782,687.76 L1479.96782,687.64 L1479.96782,686.68 L1488.68782,686.68 L1488.68782,687.64 L1486.92782,687.76 C1485.76782,687.84 1485.28782,688.12 1484.88782,689.12 L1472.80782,718 L1472.12782,718 Z M1490.96469,717 L1490.96469,716.04 L1492.76469,715.92 C1493.92469,715.84 1494.56469,715.6 1494.56469,714.48 L1494.56469,689.2 C1494.56469,688.08 1493.92469,687.84 1492.76469,687.76 L1490.96469,687.64 L1490.96469,686.68 L1502.24469,686.68 L1502.24469,687.64 L1500.44469,687.76 C1499.24469,687.84 1498.60469,688.08 1498.60469,689.2 L1498.60469,714.48 C1498.60469,715.6 1499.24469,715.84 1500.44469,715.92 L1502.24469,716.04 L1502.24469,717 L1490.96469,717 Z M1523.96156,717.48 C1513.92156,717.48 1506.72156,711.44 1506.72156,701.76 C1506.72156,692.08 1513.96156,686 1524.16156,686 C1527.52156,686 1531.36156,686.56 1533.76156,687.8 L1535.44156,696.48 L1534.72156,696.48 L1530.20156,689.2 C1529.64156,688.28 1529.28156,688 1528.32156,687.72 C1527.08156,687.36 1525.76156,687.28 1524.00156,687.28 C1517.48156,687.28 1511.32156,691.16 1511.32156,700.96 C1511.32156,709.8 1516.12156,716.2 1524.32156,716.2 C1526.08156,716.2 1527.40156,716.12 1528.64156,715.76 C1529.60156,715.48 1529.96156,715.2 1530.52156,714.28 L1535.04156,707 L1535.76156,707 L1534.08156,715.68 C1531.68156,716.92 1527.32156,717.48 1523.96156,717.48 Z M1547.19844,717 L1547.19844,716 L1549.59844,715.88 C1550.75844,715.84 1551.39844,715.6 1551.39844,714.48 L1551.39844,687.84 L1544.43844,687.84 C1543.75844,687.84 1543.51844,687.92 1543.27844,688.48 L1539.75844,696.04 L1539.03844,696.04 L1539.99844,686.68 L1566.83844,686.68 L1567.83844,696.04 L1567.11844,696.04 L1563.55844,688.48 C1563.27844,687.92 1563.07844,687.84 1562.43844,687.84 L1555.47844,687.84 L1555.47844,714.48 C1555.47844,715.6 1556.07844,715.8 1557.27844,715.88 L1559.67844,716 L1559.67844,717 L1547.19844,717 Z M1586.91531,717.48 C1578.11531,717.48 1570.95531,711.2 1570.95531,701.76 C1570.95531,692.28 1578.11531,686 1586.91531,686 C1595.71531,686 1602.87531,692.28 1602.87531,701.76 C1602.87531,711.2 1595.71531,717.48 1586.91531,717.48 Z M1586.91531,716.16 C1593.39531,716.16 1598.23531,710.96 1598.23531,701.76 C1598.23531,692.52 1593.39531,687.32 1586.91531,687.32 C1580.43531,687.32 1575.55531,692.52 1575.55531,701.76 C1575.55531,710.96 1580.43531,716.16 1586.91531,716.16 Z M1607.39218,717 L1607.39218,716.04 L1609.19218,715.92 C1610.35218,715.84 1610.99218,715.6 1610.99218,714.48 L1610.99218,689.2 C1610.99218,688.08 1610.35218,687.84 1609.19218,687.76 L1607.39218,687.64 L1607.39218,686.68 L1618.87218,686.68 C1626.11218,686.68 1631.43218,688.24 1631.43218,694.08 C1631.43218,698.52 1628.07218,700.92 1622.59218,701.6 L1636.59218,717 L1631.43218,717 L1617.95218,702.08 L1615.03218,702.08 L1615.03218,714.48 C1615.03218,715.6 1615.67218,715.84 1616.87218,715.92 L1618.67218,716.04 L1618.67218,717 L1607.39218,717 Z M1615.03218,700.84 L1618.55218,700.84 C1623.67218,700.84 1626.91218,699.12 1626.91218,694.36 C1626.91218,689.64 1623.67218,687.92 1618.55218,687.92 L1615.03218,687.92 L1615.03218,700.84 Z M1638.66905,717 L1638.66905,716.04 L1640.46905,715.92 C1641.62905,715.84 1642.26905,715.6 1642.26905,714.48 L1642.26905,689.2 C1642.26905,688.08 1641.62905,687.84 1640.46905,687.76 L1638.66905,687.64 L1638.66905,686.68 L1649.94905,686.68 L1649.94905,687.64 L1648.14905,687.76 C1646.94905,687.84 1646.30905,688.08 1646.30905,689.2 L1646.30905,714.48 C1646.30905,715.6 1646.94905,715.84 1648.14905,715.92 L1649.94905,716.04 L1649.94905,717 L1638.66905,717 Z M1680.22592,714.56 C1680.62592,715.56 1681.10592,715.84 1682.30592,715.92 L1684.06592,716.04 L1684.06592,717 L1672.50592,717 L1672.50592,716.04 L1674.50592,715.92 C1675.78592,715.84 1676.22592,715.56 1675.82592,714.56 L1672.38592,705.84 L1661.06592,705.84 L1657.62592,714.56 C1657.22592,715.56 1657.66592,715.84 1658.94592,715.92 L1660.94592,716.04 L1660.94592,717 L1652.22592,717 L1652.22592,716.04 L1653.98592,715.92 C1655.14592,715.84 1655.62592,715.56 1656.02592,714.56 L1667.82592,685.24 L1668.46592,685.24 L1680.22592,714.56 Z M1661.70592,704.24 L1671.78592,704.24 L1666.74592,691.44 L1661.70592,704.24 Z" id="20SEP19-13APR20ATNATIONALGALLERYOFVICTORIA"></path>
        </g>
    </g>
</svg>