<?xml version="1.0" encoding="UTF-8"?>
<svg width="169px" height="93px" viewBox="0 0 169 93" version="1.1" xmlns="http://www.w3.org/2000/svg" xmlns:xlink="http://www.w3.org/1999/xlink">
    <!-- Generator: Sketch 56.3 (81716) - https://sketch.com -->
    <title>Group 39</title>
    <desc>Created with Sketch.</desc>
    <defs>
        <polygon id="path-1" points="0 -0.0001015625 128.216576 -0.0001015625 128.216576 64.728625 0 64.728625"></polygon>
    </defs>
    <g id="Page-1" stroke="none" stroke-width="1" fill="none" fill-rule="evenodd">
        <g id="Group-39">
            <g id="Group" transform="translate(19.000000, 0.000000)">
                <g id="Group-3" transform="translate(0.228355, 0.000000)">
                    <mask id="mask-2" fill="white">
                        <use xlink:href="#path-1"></use>
                    </mask>
                    <g id="Clip-2"></g>
                    <path d="M9.59514621,36.5004453 L17.5768598,64.0462266 L27.4273439,64.0462266 L17.5768598,30.1040391 L26.4929586,0.597085938 L17.1521392,0.597085938 L9.59514621,26.0110703 L9.59514621,0.597085938 L-0.000505619761,0.597085938 L-0.000505619761,64.0462266 L9.59514621,64.0462266 L9.59514621,36.5004453 Z M47.6359546,64.0462266 L56.8918299,64.0462266 L48.655284,0.597085938 L37.2768169,0.597085938 L29.5489245,64.0462266 L38.1252469,64.0462266 L39.3144645,52.1065391 L46.3617928,52.1065391 L47.6359546,64.0462266 Z M42.7961622,19.1881016 L45.3434746,42.6409141 L40.333794,42.6409141 L42.7961622,19.1881016 Z M74.2982958,0.597085938 L70.0521011,41.6171641 L65.7219734,0.597085938 L56.0413775,0.597085938 L63.9381469,64.0462266 L74.5531282,64.0462266 L78.6284235,27.1191172 L82.6197858,64.0462266 L92.8939794,64.0462266 L100.960637,0.597085938 L91.9595941,0.597085938 L87.5445223,41.7024766 L83.2133834,0.597085938 L74.2982958,0.597085938 Z M114.545629,-0.0001015625 C106.988636,-0.0001015625 102.743452,3.83794531 102.743452,12.3661484 L102.743452,14.4126328 C102.743452,20.7237266 103.931659,24.8166953 108.007965,30.1040391 L114.120908,37.9497422 C117.602606,42.5556016 118.027326,44.0048984 118.027326,48.6107578 L118.027326,50.0600547 C118.027326,54.0687266 117.177885,55.5180234 114.885405,55.5180234 C112.762814,55.5180234 111.743484,54.0687266 111.743484,51.0838047 L111.743484,39.9972422 L102.233788,39.9972422 L102.233788,52.7037266 C102.233788,60.5494297 106.224139,64.7287266 113.952031,64.7287266 L115.819791,64.7287266 C124.311169,64.7287266 128.216576,59.1854453 128.216576,49.8894297 L128.216576,47.8429453 C128.216576,40.5944297 126.858481,37.4388828 122.527342,31.8102891 L116.414399,23.8792734 C113.187534,19.6999766 112.507981,17.7388047 112.507981,14.1566953 L112.507981,12.9623203 C112.507981,9.97841406 113.017646,8.52810156 115.310126,8.52810156 C117.602606,8.52810156 118.027326,10.1480234 118.027326,12.2808359 L118.027326,21.4052109 L127.283202,21.4052109 L127.283202,11.0011484 C127.283202,3.49669531 124.226225,-0.0001015625 116.329455,-0.0001015625 L114.545629,-0.0001015625 Z" id="Fill-1" fill="#FEFEFE" mask="url(#mask-2)"></path>
                </g>
            </g>
            <path d="M3.18768781,87.9298348 L3.18768781,83.0587613 L1.71920242,83.0587613 C1.11031823,83.0587613 0.823784491,83.0766697 0.411892246,83.1483031 L0.411892246,81.9842598 C0.805876133,82.0558933 1.09240987,82.0738016 1.79083585,82.0738016 L3.02651259,82.0738016 C3.61748842,82.0738016 3.93983887,82.0558933 4.36963948,81.9842598 C4.3159144,82.5215106 4.29800604,82.9871279 4.29800604,83.793004 L4.29800604,88.1626435 C4.38754783,88.2521853 4.45918127,88.3059104 4.56663142,88.3954522 C5.46204935,89.1834199 5.74858308,89.3445952 6.55445921,89.5236788 C7.2528852,89.6669456 8.77509567,89.7564874 10.6733817,89.7564874 C13.2342769,89.7564874 15.2579215,89.6669456 16.7980403,89.4699537 C16.5652316,89.935571 16.4935982,90.1683797 16.386148,90.7593555 C14.5953122,90.8309889 12.7149345,90.8668056 10.1540393,90.8668056 C8.18411984,90.8668056 6.59027593,90.7056304 5.82021652,90.4190967 C5.39041591,90.2758298 4.96061531,90.0430211 4.70989829,89.8460292 C4.6203565,89.7923041 4.6203565,89.7923041 4.06519738,89.2550534 C3.86820544,89.0938781 3.65330514,88.986428 3.49212991,88.986428 C3.09814602,88.986428 2.6325287,89.2908701 1.898286,90.0430211 C1.18195166,90.7593555 1.1640433,90.7951722 0.895417925,91.0996143 L-8.52651283e-14,90.2758298 C1.4684854,88.8252528 2.4176284,88.1268268 3.18768781,87.9298348 Z M0.877509567,76.3610352 L1.71920242,75.6267925 C2.91906244,76.7729275 3.45631319,77.3639033 4.54872306,78.7428469 L3.61748842,79.5666314 C2.54298691,78.0444209 2.13109466,77.5429869 0.877509567,76.3610352 Z M11.3359909,77.5429869 L13.6819859,77.5429869 C14.5953122,77.5429869 15.0072044,77.5250785 15.4011883,77.4534451 L15.4011883,78.6533051 C14.8460292,78.5995801 14.3804119,78.5816717 13.6819859,78.5816717 L11.3359909,78.5816717 L11.3359909,81.0172085 L14.7027623,81.0172085 C15.2758298,81.0172085 15.6877221,80.9993001 16.2428812,80.9276667 L16.2428812,82.1275267 C15.7414471,82.0558933 15.2758298,82.0379849 14.7206707,82.0379849 L12.4642175,82.0379849 L12.4642175,86.4971662 C12.4642175,86.9090584 12.8044763,87.0523253 13.7715277,87.0523253 C14.5415871,87.0523253 14.7027623,87.0165086 14.8818459,86.837425 C14.9176626,86.8195166 14.9176626,86.8016083 14.9534794,86.7836999 C15.1146546,86.4971662 15.2041964,85.7808318 15.2400131,84.4377049 C15.6877221,84.6705136 15.9026224,84.7600554 16.332423,84.8316888 C16.2786979,85.2614894 16.2607895,85.4763897 16.2428812,85.7808318 C16.1533394,86.9806918 16.0279809,87.4284008 15.6698137,87.7149345 C15.3295549,88.0014683 14.7206707,88.1268268 13.735711,88.1268268 C11.9806918,88.1268268 11.4434411,87.8940181 11.4434411,87.1060504 L11.4434411,82.0379849 L9.7958721,82.0379849 C9.65260524,83.6318288 9.33025478,84.5988802 8.56019537,85.6733817 C7.80804431,86.7120665 6.98425982,87.3925841 5.49786606,88.1626435 C5.46204935,88.1089184 5.46204935,88.1089184 5.39041591,88.0193766 C5.15760725,87.6612095 5.0501571,87.5179426 4.81734844,87.3030423 C6.12465861,86.6762497 6.85890131,86.1210906 7.53941893,85.2614894 C8.27366163,84.3123464 8.57810373,83.4706536 8.73927895,82.0379849 L6.89471803,82.0379849 C6.28583384,82.0379849 5.76649144,82.0738016 5.24714904,82.1275267 L5.24714904,80.9276667 C5.71276636,80.9813917 6.23210876,81.0172085 6.85890131,81.0172085 L10.2614894,81.0172085 L10.2614894,78.5816717 L7.52151057,78.5816717 C7.19916012,79.1368308 6.9484431,79.494998 6.44700906,80.0680655 C6.16047533,79.7278066 5.98139174,79.6024481 5.5694995,79.3875478 C6.14256697,78.7786636 6.53655086,78.2055962 6.85890131,77.5071702 C7.1633434,76.8624693 7.36033535,76.2714935 7.44987714,75.7163343 L8.61392044,75.9670514 C8.52437865,76.1640433 8.48856193,76.2535851 8.38111178,76.5759355 C8.18411984,77.0952779 8.13039476,77.2564532 7.96921954,77.5429869 L10.2614894,77.5429869 L10.2614894,76.7012941 C10.2614894,76.0386848 10.2256727,75.7163343 10.1540393,75.250717 L11.4434411,75.250717 C11.3538993,75.7342427 11.3359909,76.1103182 11.3359909,76.7012941 L11.3359909,77.5429869 Z M20.8632377,79.7994401 L19.8782779,79.7994401 C19.3768439,79.7994401 19.179852,79.8173484 18.4097925,79.9068902 L18.4097925,78.7070302 C19.0544935,78.796572 19.3410272,78.8144804 19.8782779,78.8144804 L20.8632377,78.8144804 L20.8632377,77.0415529 C20.8632377,76.1461349 20.8453293,75.8237845 20.7557875,75.2865337 L22.0989144,75.2865337 C22.0093726,75.8775096 21.9914642,76.2894018 21.9914642,77.0415529 L21.9914642,78.8144804 L22.7257069,78.8144804 C23.1734159,78.8144804 23.5853082,78.7786636 24.0330171,78.7249386 L24.0330171,79.8889819 C23.6032165,79.8352568 23.1555076,79.7994401 22.7077986,79.7994401 L21.9914642,79.7994401 L21.9914642,83.3811118 C22.8331571,83.040853 23.0838741,82.9154945 23.7643917,82.593144 L23.7643917,83.6676455 C23.1017825,83.989996 22.8331571,84.1153545 21.9914642,84.49143 L21.9914642,90.0251128 C21.9914642,90.9205307 21.5079386,91.2786979 20.2722618,91.2786979 C19.8066445,91.2786979 19.3589355,91.2607895 18.7142346,91.2249728 C18.6784179,90.7414471 18.6426012,90.5802719 18.4635176,90.0788379 C19.2693938,90.1683797 19.6633776,90.2041964 20.18272,90.2041964 C20.7378792,90.2041964 20.8632377,90.1146546 20.8632377,89.7027623 L20.8632377,84.939139 L19.430569,85.4763897 C19.1440352,85.5838399 19.0007684,85.6554733 18.5888761,85.8703736 L18.2665257,84.6346969 C19.0724018,84.49143 19.3052105,84.4197966 20.8632377,83.8288207 L20.8632377,79.7994401 Z M29.5129748,83.8467291 L31.7515196,83.8467291 C32.5215791,83.8467291 32.8081128,83.8288207 33.2558218,83.7571873 L33.2558218,84.9033223 C32.7902044,84.8316888 32.5036707,84.8137805 31.7515196,84.8137805 L29.5129748,84.8137805 L29.5129748,86.837425 L32.8081128,86.837425 C33.5781722,86.837425 33.9005227,86.8195166 34.36614,86.7478832 L34.36614,87.9298348 C33.9005227,87.8582014 33.5781722,87.8402931 32.8260211,87.8402931 L29.5129748,87.8402931 L29.5129748,89.9713877 C29.5129748,90.5802719 29.5308832,90.9742558 29.620425,91.5652316 L28.3489315,91.5652316 C28.4384733,90.9205307 28.4563817,90.5623635 28.4563817,89.9534794 L28.4563817,87.8402931 L25.0537936,87.8402931 C24.3016425,87.8402931 23.9613837,87.8582014 23.5673998,87.9298348 L23.5673998,86.7478832 C23.9972004,86.8195166 24.3195509,86.837425 25.0537936,86.837425 L28.4563817,86.837425 L28.4563817,84.8137805 L26.2894703,84.8137805 C25.573136,84.8137805 25.2866022,84.8316888 24.8030765,84.9033223 L24.8030765,83.7571873 C25.2686939,83.8288207 25.5373192,83.8467291 26.2894703,83.8467291 L28.4563817,83.8467291 C28.4563817,83.1662115 28.420565,82.4498771 28.3668399,82.0379849 L29.6025166,82.0379849 C29.5487915,82.4856939 29.5308832,82.8259527 29.5129748,83.8467291 Z M32.3245871,75.8596012 L33.0946465,76.4326687 C32.8797462,76.7012941 32.8797462,76.7012941 32.7006626,76.9878278 C31.9664199,78.1160544 31.0172769,79.1547392 29.8890504,80.0680655 C31.1068187,80.8560332 31.9126949,81.2142004 34.5810403,82.0558933 C34.2765982,82.3066103 34.0975146,82.5752356 33.8647059,83.0766697 C31.3754441,82.09171 30.318851,81.5544592 29.0652659,80.6590413 C28.4384733,81.1246586 27.9370393,81.4291007 26.9699879,81.9126264 C26.1641118,82.3245186 25.7880363,82.4856939 24.3911843,83.0229446 C24.1583756,82.6110524 23.9972004,82.3961521 23.6569416,82.1275267 C25.3224189,81.6798177 27.0416213,80.9097583 28.223573,80.0859738 C26.6476375,78.796572 26.1820201,78.2772296 25.2866022,76.9161944 L25.0358852,76.9161944 C24.7314431,76.9161944 24.3911843,76.9341027 24.0330171,76.9699194 L24.0330171,75.8775096 C24.6060846,75.9312346 25.2866022,75.949143 26.3431954,75.949143 L30.6412014,75.949143 C31.4112608,75.949143 31.8947865,75.9312346 32.3245871,75.8596012 Z M31.4112608,76.9161944 L26.522279,76.9161944 C27.2027966,77.9011541 27.6146888,78.3309547 29.0652659,79.5129063 C30.3367593,78.4563132 30.9098268,77.8116123 31.4112608,76.9161944 Z M45.7200393,79.2084642 L42.9800604,79.2084642 C42.3711762,80.3725076 41.8339255,81.1246586 40.9205992,82.145435 C40.5803404,81.8051762 40.4549819,81.7156344 39.9893646,81.4828258 C41.2429496,80.1396989 41.9771923,78.9935639 42.6935267,77.2385448 C43.0696022,76.3431269 43.2845025,75.5909758 43.3382276,75 L44.5918127,75.2865337 C44.5022709,75.5193424 44.5022709,75.5193424 44.2873706,76.1640433 C44.0903787,76.7550191 43.9650201,77.0415529 43.4456777,78.2414129 L50.2150373,78.2414129 C50.9671883,78.2414129 51.3790806,78.2235045 51.6835227,78.1697795 L52.2386818,78.6712135 C52.14914,78.796572 52.14914,78.796572 51.8626062,79.4770896 C51.5044391,80.2829658 51.003005,81.1604753 50.5194794,81.7872679 C50.1613122,81.5186425 50.0359537,81.4291007 49.5882447,81.2679255 C50.1971289,80.5157744 50.501571,80.0143404 50.8418298,79.2084642 L46.8303575,79.2084642 L46.8303575,89.8102125 C46.8303575,90.884714 46.4005569,91.2070645 45.0037049,91.2070645 C44.4843625,91.2070645 43.9112951,91.1712477 43.1949607,91.1175227 C43.1770524,90.6160886 43.1233273,90.38328 42.9800604,89.9176626 C43.7859366,90.0609295 44.4127291,90.1325629 45.0037049,90.1325629 C45.6125891,90.1325629 45.7200393,90.0609295 45.7200393,89.6311289 L45.7200393,79.2084642 Z M39.0581299,79.8889819 L39.0581299,89.2729617 C39.0581299,90.1504713 39.0939466,90.8668056 39.1476717,91.4398731 L37.8045448,91.4398731 C37.8761782,90.7772638 37.911995,90.2041964 37.911995,89.2550534 L37.911995,83.5960121 C37.911995,82.8796777 37.9299033,82.3782437 37.9836284,81.4470091 C37.4463776,82.4140604 36.9986687,83.0587613 36.2465176,83.9362709 C35.9241672,83.3632034 35.7988087,83.2199366 35.4585498,82.9334028 C36.8374935,81.6619094 38.162712,79.494998 38.9864965,77.1669114 C39.3267553,76.19986 39.4342054,75.7879678 39.5416556,75.1432669 L40.7952407,75.4656173 C40.6877905,75.7700594 40.6340655,75.9133263 40.4549819,76.4326687 C39.9893646,77.8116123 39.7565559,78.348863 39.0581299,79.8889819 Z M52.2207734,88.5566274 L51.1641803,89.0759698 C50.6269295,87.4284008 50.6269295,87.4284008 49.6240614,84.9749557 C48.9793605,83.3990201 48.8719104,83.1841198 48.2451178,82.0558933 L49.1942608,81.5902759 C50.3045791,83.6318288 51.4328056,86.2106324 52.2207734,88.5566274 Z M42.9442437,81.7693595 L44.0545619,81.9663515 C43.5531279,84.4197966 43.409861,84.9749557 42.9979688,86.0673656 C42.5681682,87.2135005 42.1025509,88.1268268 41.4936667,89.0401531 C41.1354995,88.7178026 40.9743243,88.6103525 40.4728902,88.3954522 C41.7443837,86.7120665 42.5144431,84.6346969 42.9442437,81.7693595 Z M57.7186395,77.9906959 L58.8826828,77.9906959 C59.7781007,77.9727875 60.2974431,77.9548792 60.4586183,77.9369708 C60.4228016,78.4025881 60.4048933,78.8682054 60.4048933,79.5129063 L60.4048933,88.6282608 C60.4048933,89.434137 60.44071,90.0430211 60.494435,90.4728218 L59.3124834,90.4728218 L59.3124834,89.3266868 L55.8203535,89.3266868 L55.8203535,90.9026224 L54.6204935,90.9026224 C54.6921269,90.437005 54.7100352,89.7743958 54.7100352,88.7178026 L54.7100352,79.6382649 C54.7100352,78.796572 54.6921269,78.3846798 54.6384018,77.9369708 C55.0144773,77.9727875 55.3368278,77.9906959 56.2322457,77.9906959 L56.5904129,77.9906959 C56.9485801,77.1131863 57.2172054,76.2177684 57.3604723,75.2865337 L58.6319658,75.5372508 C58.3096153,76.5043021 57.9872649,77.39972 57.7186395,77.9906959 Z M55.8203535,78.9756556 L55.8203535,82.9692195 L59.3124834,82.9692195 L59.3124834,78.9756556 L55.8203535,78.9756556 Z M55.8203535,83.9541793 L55.8203535,88.3238187 L59.3124834,88.3238187 L59.3124834,83.9541793 L55.8203535,83.9541793 Z M63.8612064,77.9727875 L68.1950292,77.9727875 C68.9113635,77.9727875 69.4127976,77.9548792 69.7709648,77.9011541 C69.7172397,78.2235045 69.7172397,78.3667714 69.6993313,79.0293807 C69.5381561,86.1210906 69.3053474,88.5208107 68.6606465,89.9534794 C68.3024794,90.7772638 67.7294119,91.0996143 66.6549104,91.0996143 C66.0102095,91.0996143 65.4908671,91.0637976 64.3805488,90.9742558 C64.3447321,90.4549134 64.2730987,90.1504713 64.0761067,89.7027623 C65.1685166,89.9176626 65.9743927,90.0072044 66.6190937,90.0072044 C67.2817029,90.0072044 67.5145116,89.8460292 67.7473202,89.2729617 C68.0517623,88.4491772 68.284571,86.7299748 68.4099295,84.3302548 C68.4994713,82.8975861 68.5173797,81.6619094 68.535288,79.0293807 L63.3776808,79.0293807 C62.7687966,80.2650574 62.2494542,81.0888419 61.3182195,82.2887019 C61.0854109,81.9842598 60.7630604,81.6798177 60.4586183,81.4828258 C61.5510282,80.3187825 62.4285378,78.796572 63.091147,76.9699194 C63.341864,76.2894018 63.5209476,75.6267925 63.5567644,75.2328087 L64.7924411,75.4656173 C64.738716,75.5730675 64.6491742,75.8237845 64.5417241,76.1461349 C64.3268238,76.7729275 64.1477402,77.2564532 63.8612064,77.9727875 Z M66.3683766,85.7808318 L65.3476002,86.4076244 C64.3447321,84.2586213 63.6642145,83.1303948 62.6255297,81.8768097 L63.538856,81.3216506 C64.6670826,82.6826858 65.4192336,83.8646375 66.3683766,85.7808318 Z M82.3963575,81.5544592 L85.5124119,81.5544592 C86.4078298,81.5544592 86.9450806,81.5186425 87.518148,81.4470091 L87.518148,82.7185025 C86.9092638,82.6647774 86.2466546,82.6289607 85.4586868,82.6289607 L82.3963575,82.6289607 L82.3963575,85.3510312 L86.0138459,85.3510312 C86.9271722,85.3510312 87.518148,85.3152145 88.0912155,85.2435811 L88.0912155,86.5329829 C87.4465146,86.4434411 86.9092638,86.4255327 86.0496626,86.4255327 L82.3963575,86.4255327 L82.3963575,89.434137 C82.3963575,90.2400131 82.4321742,90.8309889 82.521716,91.4756898 L81.1069557,91.4756898 C81.1964975,90.8668056 81.2323142,90.2400131 81.2323142,89.4520453 L81.2323142,86.4255327 L77.8834512,86.4255327 C77.0059416,86.4255327 76.4507825,86.4613494 75.8239899,86.5329829 L75.8239899,85.2435811 C76.3612407,85.3152145 76.9701249,85.3510312 77.8834512,85.3510312 L81.2323142,85.3510312 L81.2323142,82.6289607 L78.5818771,82.6289607 C77.8118177,82.6289607 77.1313001,82.6647774 76.5582326,82.7185025 L76.5582326,81.4470091 C77.0596667,81.5186425 77.6148258,81.5544592 78.474427,81.5544592 L81.2323142,81.5544592 L81.2323142,77.0952779 C81.2323142,76.2714935 81.1964975,75.7700594 81.1069557,75.2328087 L82.521716,75.2328087 C82.4321742,75.7879678 82.3963575,76.2356767 82.3963575,77.0952779 L82.3963575,81.5544592 Z M73.7645287,89.3087784 L73.7645287,83.6139204 C73.7645287,82.7005942 73.7824371,82.2528852 73.8361621,81.4470091 C73.3347281,82.4677855 73.0840111,82.8975861 72.2244099,84.0258127 C71.9916012,83.6139204 71.830426,83.3811118 71.5080755,83.040853 C72.7616606,81.6260926 73.7466203,79.8889819 74.5524965,77.7220705 C74.9464804,76.5938439 75.0897472,76.1282266 75.2151057,75.250717 L76.4686908,75.5730675 C76.2537905,76.1461349 76.2537905,76.1461349 75.9135317,77.2027281 C75.7344481,77.7578872 75.5374562,78.2235045 74.9106636,79.7098983 L74.9106636,89.3625035 C74.9106636,90.186288 74.9464804,90.8488973 75.0002054,91.4577815 L73.6570785,91.4577815 C73.7466203,90.7593555 73.7645287,90.2400131 73.7645287,89.3087784 Z M79.5668369,80.1755156 L78.4565186,80.6769496 C77.9550846,78.9935639 77.5790091,78.098146 76.7014995,76.6654773 L77.776001,76.19986 C78.5818771,77.7041621 78.9400443,78.4742216 79.5668369,80.1755156 Z M86.0496626,76.0028681 L87.2316143,76.5759355 C86.4257382,78.4025881 85.9063958,79.3696395 84.8856193,80.9276667 L83.8827513,80.3904159 C85.0288862,78.6891219 85.5482286,77.6325287 86.0496626,76.0028681 Z M95.7201762,76.396852 L97.0453948,76.396852 L90.5983857,92.783 L89.2552588,92.783 L95.7201762,76.396852 Z M105.963757,83.040853 L105.963757,88.288002 C106.393558,88.1984602 106.59055,88.1626435 107.235251,88.0014683 L107.235251,88.9327029 C106.859175,89.0043364 106.447283,89.0938781 105.963757,89.2013283 L105.963757,89.8281208 C105.963757,90.633997 105.981666,91.0458892 106.071207,91.4935982 L104.835531,91.4935982 C104.907164,91.0637976 104.942981,90.6160886 104.942981,89.8281208 L104.942981,89.3983202 C104.011746,89.5774038 102.722344,89.7923041 101.397126,89.9713877 C99.552565,90.2221047 99.2839396,90.2579215 98.5855136,90.4190967 L98.2989799,89.237145 L98.5855136,89.237145 C98.9257724,89.237145 99.4092981,89.2013283 100.268899,89.1296949 L100.268899,83.040853 L99.9107321,83.040853 C99.2302145,83.040853 98.854139,83.0587613 98.2989799,83.1483031 L98.2989799,81.9842598 C98.7287805,82.0738016 99.1406727,82.09171 99.9286405,82.09171 L112.786842,82.09171 C113.592718,82.09171 113.986702,82.0738016 114.452319,81.9842598 L114.452319,83.1483031 C113.89716,83.0587613 113.503176,83.040853 112.80475,83.040853 L105.963757,83.040853 Z M104.942981,83.040853 L101.325492,83.040853 L101.325492,84.3123464 L104.942981,84.3123464 L104.942981,83.040853 Z M104.942981,85.1540393 L101.325492,85.1540393 L101.325492,86.4792578 L104.942981,86.4792578 L104.942981,85.1540393 Z M104.942981,87.3209507 L101.325492,87.3209507 L101.325492,89.0222447 C102.686528,88.8431611 103.958021,88.6640775 104.942981,88.484994 L104.942981,87.3209507 Z M112.786842,84.2228046 L113.413634,84.8854139 C113.288276,85.0644975 113.234551,85.1540393 113.091284,85.4047563 C112.231683,86.9090584 111.640707,87.7507513 110.888556,88.484994 C111.837699,89.2550534 112.894292,89.8102125 114.344869,90.3116465 C114.040427,90.6698137 113.915068,90.8309889 113.664351,91.2966062 C112.142141,90.6519053 111.049731,90.0072044 110.136405,89.1834199 C109.043995,90.0967462 108.453019,90.4728218 107.038259,91.1533394 C106.80545,90.7235388 106.680092,90.5623635 106.339833,90.2400131 C107.772502,89.6490373 108.470927,89.2550534 109.42007,88.484994 C108.560469,87.589576 108.041127,86.7120665 107.450151,85.2077644 C107.109892,85.2256727 106.948717,85.2435811 106.572641,85.2793978 L106.572641,84.2228046 C106.984534,84.2765297 107.378518,84.2944381 108.094852,84.2944381 L111.425807,84.2944381 C112.088416,84.2944381 112.518217,84.2765297 112.786842,84.2228046 Z M112.016782,85.2077644 L108.453019,85.2077644 C108.954453,86.389716 109.384254,87.0344169 110.136405,87.8223847 C110.924373,87.0165086 111.318356,86.4613494 112.016782,85.2077644 Z M112.339133,77.2385448 L112.339133,79.6740816 C112.339133,80.3187825 112.357041,80.6411329 112.410766,81.0888419 C111.837699,81.0351168 111.264631,81.0172085 110.566205,81.0172085 L102.364177,81.0172085 C101.576209,81.0172085 101.074775,81.0351168 100.430075,81.0888419 C100.4838,80.6769496 100.501708,80.247149 100.501708,79.6740816 L100.501708,77.2385448 C100.501708,76.647569 100.4838,76.2177684 100.430075,75.8058761 C101.038959,75.8596012 101.558301,75.8775096 102.382086,75.8775096 L110.476664,75.8775096 C111.300448,75.8775096 111.801882,75.8596012 112.410766,75.8058761 C112.357041,76.2356767 112.339133,76.5938439 112.339133,77.2385448 Z M101.558301,76.7908359 L101.558301,78.0444209 L111.28254,78.0444209 L111.28254,76.7908359 L101.558301,76.7908359 Z M101.558301,78.9040222 L101.558301,80.1576073 L111.28254,80.1576073 L111.28254,78.9040222 L101.558301,78.9040222 Z M126.66582,81.4828258 L130.444483,81.4828258 C131.286176,81.4828258 131.751794,81.4649174 132.181594,81.393284 L132.181594,82.5752356 C131.644343,82.5215106 131.089184,82.4856939 130.462392,82.4856939 L122.170822,82.4856939 C121.544029,82.4856939 120.970962,82.5215106 120.433711,82.5752356 L120.433711,81.393284 C120.845603,81.4649174 121.347037,81.4828258 122.170822,81.4828258 L125.537593,81.4828258 L125.537593,78.7428469 L123.048331,78.7428469 C122.385722,78.7428469 121.955921,78.7607553 121.436579,78.8323887 L121.436579,77.6504371 C121.884288,77.7220705 122.29618,77.7399789 123.06624,77.7399789 L125.537593,77.7399789 L125.537593,77.1848197 C125.537593,76.1461349 125.519685,75.698426 125.430143,75.2328087 L126.77327,75.2328087 C126.683728,75.6805176 126.66582,76.1282266 126.66582,77.1848197 L126.66582,77.7399789 L129.710241,77.7399789 C130.534025,77.7399789 130.981734,77.7041621 131.393626,77.6325287 L131.393626,78.8323887 C130.838467,78.7607553 130.408667,78.7428469 129.728149,78.7428469 L126.66582,78.7428469 L126.66582,81.4828258 Z M126.66582,85.2435811 L129.943049,85.2435811 C130.748925,85.2435811 131.178726,85.2256727 131.626435,85.1361309 L131.626435,86.3538993 C131.071276,86.2822659 130.58775,86.2643575 129.943049,86.2643575 L126.66582,86.2643575 L126.66582,89.4699537 L130.569842,89.4699537 C131.304085,89.4699537 131.877152,89.434137 132.360678,89.3625035 L132.360678,90.5981803 C131.841335,90.5265468 131.268268,90.4907301 130.569842,90.4907301 L121.794746,90.4907301 C121.060504,90.4907301 120.469528,90.5265468 119.968094,90.5981803 L119.968094,89.3625035 C120.451619,89.434137 121.042595,89.4699537 121.812655,89.4699537 L125.537593,89.4699537 L125.537593,86.2643575 L122.708073,86.2643575 C122.045463,86.2643575 121.597754,86.2822659 121.024687,86.3538993 L121.024687,85.1540393 C121.508212,85.2256727 121.920105,85.2435811 122.708073,85.2435811 L125.537593,85.2435811 L125.537593,84.9749557 C125.537593,83.989996 125.519685,83.5064703 125.430143,83.040853 L126.77327,83.040853 C126.683728,83.4706536 126.66582,83.9541793 126.66582,84.9749557 L126.66582,85.2435811 Z M118.159349,89.1834199 L118.159349,83.3452951 C118.159349,82.5394189 118.177258,81.9305347 118.230983,81.1604753 C117.657915,82.1812518 117.246023,82.7543192 116.386422,83.7571873 C116.18943,83.3273867 115.992438,83.040853 115.687996,82.7185025 C117.084848,81.2858338 118.159349,79.6382649 118.983134,77.6325287 C119.412935,76.6117523 119.699468,75.7342427 119.78901,75.1253585 L121.042595,75.5193424 C120.970962,75.7163343 120.970962,75.7163343 120.66652,76.4863938 C120.236719,77.6325287 119.824827,78.5100383 119.287576,79.5308147 L119.287576,89.237145 C119.287576,90.0609295 119.323393,90.6877221 119.412935,91.332423 L118.033991,91.332423 C118.123533,90.7056304 118.159349,90.1683797 118.159349,89.1834199 Z M136.282608,79.8173484 L135.745358,79.8173484 C135.17229,79.8173484 134.724581,79.8531652 134.276872,79.9247986 L134.276872,78.7070302 C134.724581,78.7786636 135.208107,78.8144804 135.852808,78.8144804 L136.497509,78.8144804 C136.801951,77.5250785 136.998943,76.1282266 136.998943,75.4118922 C136.998943,75.3581672 136.998943,75.2686254 136.981034,75.1611752 L138.288344,75.2865337 C138.216711,75.5730675 138.180894,75.7521511 138.037627,76.6654773 C137.965994,77.149003 137.769002,78.2235045 137.643644,78.8144804 L139.201671,78.8144804 C139.935913,78.8144804 140.419439,78.796572 140.831331,78.7428469 C140.795515,78.9935639 140.795515,78.9935639 140.74179,79.5487231 C140.473164,82.4677855 139.86428,84.8137805 138.950954,86.4971662 C138.897229,86.586708 138.897229,86.586708 138.861412,86.640433 C139.506113,87.2135005 139.86428,87.5716677 140.84924,88.6819859 L140.061272,89.6311289 C139.291212,88.6640775 139.022587,88.3775438 138.288344,87.6253927 L138.180894,87.7686596 C137.303385,89.1476032 136.407967,90.0072044 134.760398,91.1712477 C134.509681,90.7772638 134.29478,90.5086385 133.97243,90.2221047 C135.548366,89.2550534 136.533325,88.3059104 137.46456,86.8732417 C136.228883,85.8345569 135.888624,85.6017482 134.599223,84.8137805 C135.297649,83.2378449 135.816991,81.6977261 136.282608,79.8173484 Z M139.595655,79.8173484 L137.410835,79.8173484 C136.891492,81.7514512 136.58705,82.7364109 135.942349,84.4018882 C136.909401,85.0644975 137.213843,85.2793978 138.019719,85.9061903 C138.861412,84.2765297 139.309121,82.5036022 139.595655,79.8173484 Z M146.114297,82.8259527 L149.069176,82.8259527 C149.839236,82.8259527 150.197403,82.8080443 150.66302,82.7185025 L150.66302,83.989996 C150.179494,83.9004542 149.803419,83.8825458 149.069176,83.8825458 L146.114297,83.8825458 L146.114297,89.7385791 C146.114297,90.9384391 145.791947,91.1891561 144.34137,91.1891561 C143.857844,91.1891561 143.14151,91.135431 142.192367,91.0458892 C142.15655,90.5265468 142.102825,90.3116465 141.94165,89.8281208 C142.980334,89.9892961 143.750394,90.0788379 144.269736,90.0788379 C144.842804,90.0788379 144.968162,90.0251128 144.968162,89.7027623 L144.968162,83.8825458 L142.550534,83.8825458 C141.834199,83.8825458 141.404399,83.9183625 140.920873,83.989996 L140.920873,82.7185025 C141.350674,82.8080443 141.708841,82.8259527 142.532625,82.8259527 L144.968162,82.8259527 L144.968162,82.0738016 C144.968162,81.4291007 144.932345,80.9634834 144.842804,80.3187825 L145.469596,80.3187825 C146.615731,79.4054562 147.314157,78.6533051 148.227483,77.3639033 L143.177326,77.3639033 C142.514717,77.3639033 141.870016,77.39972 141.422307,77.4713535 L141.422307,76.19986 C141.887924,76.2714935 142.4789,76.3073102 143.231051,76.3073102 L147.833499,76.3073102 C148.567742,76.3073102 148.925909,76.2894018 149.212443,76.2177684 L149.875052,77.0415529 C149.749694,77.1669114 149.749694,77.1669114 148.603559,78.6353968 C148.030491,79.3517311 147.242524,80.1396989 146.114297,81.0888419 L146.114297,82.8259527 Z M165.132974,81.5544592 L165.759766,82.2887019 C165.652316,82.4677855 165.562774,82.6289607 165.258332,83.2557533 C164.506181,84.742147 163.557038,86.0852739 162.392995,87.3030423 C163.32423,87.9835599 163.592855,88.1805519 164.309189,88.5745358 C165.616499,89.3087784 166.673093,89.7385791 168.356478,90.186288 C167.962494,90.6160886 167.801319,90.8488973 167.568511,91.3503313 C165.204607,90.5265468 163.163054,89.4162286 161.587119,88.0731017 C159.814191,89.6311289 158.184531,90.5086385 155.498277,91.3682397 C155.301285,90.9026224 155.158018,90.6877221 154.781943,90.2758298 C157.396563,89.5774038 158.990407,88.7894361 160.745426,87.338859 C159.259032,85.8345569 158.488973,84.688422 157.772638,82.9692195 C156.787679,86.3180826 155.337102,88.6461692 152.74039,91.0100725 C152.274772,90.4011883 152.221047,90.3474632 151.844972,90.0609295 C153.098557,89.0043364 153.779075,88.288002 154.567042,87.1418671 C156.035528,85.0286808 156.948854,82.3782437 157.342838,78.9935639 L154.065608,78.9935639 C153.295549,78.9935639 152.615031,79.0293807 152.185231,79.1010141 L152.185231,77.8116123 C152.686665,77.8832457 153.259732,77.9190624 154.065608,77.9190624 L157.468196,77.9190624 C157.521921,77.3101782 157.575647,76.5938439 157.575647,76.1282266 C157.575647,75.7879678 157.557738,75.5551591 157.504013,75.1611752 L158.900865,75.1790836 C158.829232,75.5372508 158.811323,75.7342427 158.73969,76.8624693 C158.703873,77.3101782 158.685965,77.5429869 158.650148,77.9190624 L166.171659,77.9190624 C166.995443,77.9190624 167.550602,77.8832457 168.069945,77.8116123 L168.069945,79.1010141 C167.496877,79.0293807 167.013351,78.9935639 166.171659,78.9935639 L158.52479,78.9935639 C158.381523,80.2292407 158.291981,80.7485831 158.094989,81.644001 L163.53913,81.644001 C164.327098,81.644001 164.756898,81.6260926 165.132974,81.5544592 Z M164.291281,82.6647774 L158.775507,82.6647774 C159.205307,83.6497372 159.456024,84.0974461 160.047,84.9033223 C160.548434,85.5659315 160.92451,85.9957321 161.551302,86.586708 C162.715345,85.4047563 163.574947,84.1511712 164.291281,82.6647774 Z" id="选择你的伴/最佳好友" fill="#FFFFFF" fill-rule="nonzero"></path>
        </g>
    </g>
</svg>