<?xml version="1.0" encoding="UTF-8"?>
<svg width="301px" height="91px" viewBox="0 0 301 91" version="1.1" xmlns="http://www.w3.org/2000/svg" xmlns:xlink="http://www.w3.org/1999/xlink">
    <!-- Generator: Sketch 56.3 (81716) - https://sketch.com -->
    <title>Group</title>
    <desc>Created with Sketch.</desc>
    <defs>
        <polygon id="path-1" points="0 -0.0001015625 128.216576 -0.0001015625 128.216576 64.728625 0 64.728625"></polygon>
    </defs>
    <g id="Page-1" stroke="none" stroke-width="1" fill="none" fill-rule="evenodd">
        <g id="KAWS-Microsite-Landing-Mobile" transform="translate(-37.000000, -88.000000)">
            <g id="Group" transform="translate(37.771645, 88.000000)">
                <g id="Group-3" transform="translate(85.228355, 0.000000)">
                    <mask id="mask-2" fill="white">
                        <use xlink:href="#path-1"></use>
                    </mask>
                    <g id="Clip-2"></g>
                    <path d="M9.59514621,36.5004453 L17.5768598,64.0462266 L27.4273439,64.0462266 L17.5768598,30.1040391 L26.4929586,0.597085938 L17.1521392,0.597085938 L9.59514621,26.0110703 L9.59514621,0.597085938 L-0.000505619761,0.597085938 L-0.000505619761,64.0462266 L9.59514621,64.0462266 L9.59514621,36.5004453 Z M47.6359546,64.0462266 L56.8918299,64.0462266 L48.655284,0.597085938 L37.2768169,0.597085938 L29.5489245,64.0462266 L38.1252469,64.0462266 L39.3144645,52.1065391 L46.3617928,52.1065391 L47.6359546,64.0462266 Z M42.7961622,19.1881016 L45.3434746,42.6409141 L40.333794,42.6409141 L42.7961622,19.1881016 Z M74.2982958,0.597085938 L70.0521011,41.6171641 L65.7219734,0.597085938 L56.0413775,0.597085938 L63.9381469,64.0462266 L74.5531282,64.0462266 L78.6284235,27.1191172 L82.6197858,64.0462266 L92.8939794,64.0462266 L100.960637,0.597085938 L91.9595941,0.597085938 L87.5445223,41.7024766 L83.2133834,0.597085938 L74.2982958,0.597085938 Z M114.545629,-0.0001015625 C106.988636,-0.0001015625 102.743452,3.83794531 102.743452,12.3661484 L102.743452,14.4126328 C102.743452,20.7237266 103.931659,24.8166953 108.007965,30.1040391 L114.120908,37.9497422 C117.602606,42.5556016 118.027326,44.0048984 118.027326,48.6107578 L118.027326,50.0600547 C118.027326,54.0687266 117.177885,55.5180234 114.885405,55.5180234 C112.762814,55.5180234 111.743484,54.0687266 111.743484,51.0838047 L111.743484,39.9972422 L102.233788,39.9972422 L102.233788,52.7037266 C102.233788,60.5494297 106.224139,64.7287266 113.952031,64.7287266 L115.819791,64.7287266 C124.311169,64.7287266 128.216576,59.1854453 128.216576,49.8894297 L128.216576,47.8429453 C128.216576,40.5944297 126.858481,37.4388828 122.527342,31.8102891 L116.414399,23.8792734 C113.187534,19.6999766 112.507981,17.7388047 112.507981,14.1566953 L112.507981,12.9623203 C112.507981,9.97841406 113.017646,8.52810156 115.310126,8.52810156 C117.602606,8.52810156 118.027326,10.1480234 118.027326,12.2808359 L118.027326,21.4052109 L127.283202,21.4052109 L127.283202,11.0011484 C127.283202,3.49669531 124.226225,-0.0001015625 116.329455,-0.0001015625 L114.545629,-0.0001015625 Z" id="Fill-1" fill="#FEFEFE" mask="url(#mask-2)"></path>
                </g>
                <path d="M6.896,90.192 C2.88,90.192 1.70530257e-13,87.776 1.70530257e-13,83.904 C1.70530257e-13,80.032 2.896,77.6 6.976,77.6 C8.32,77.6 9.856,77.824 10.816,78.32 L11.488,81.792 L11.2,81.792 L9.392,78.88 C9.168,78.512 9.024,78.4 8.64,78.288 C8.144,78.144 7.616,78.112 6.912,78.112 C4.304,78.112 1.84,79.664 1.84,83.584 C1.84,87.12 3.76,89.68 7.04,89.68 C7.744,89.68 8.272,89.648 8.768,89.504 C9.152,89.392 9.296,89.28 9.52,88.912 L11.328,86 L11.616,86 L10.944,89.472 C9.984,89.968 8.24,90.192 6.896,90.192 Z M13.5187484,90 L13.5187484,89.616 L14.2387484,89.568 C14.7027484,89.536 14.9587484,89.44 14.9587484,88.992 L14.9587484,78.88 C14.9587484,78.432 14.7027484,78.336 14.2387484,78.304 L13.5187484,78.256 L13.5187484,77.872 L18.0307484,77.872 L18.0307484,78.256 L17.3107484,78.304 C16.8307484,78.336 16.5747484,78.432 16.5747484,78.88 L16.5747484,83.312 L23.0867484,83.312 L23.0867484,78.88 C23.0867484,78.432 22.8307484,78.336 22.3667484,78.304 L21.6467484,78.256 L21.6467484,77.872 L26.1587484,77.872 L26.1587484,78.256 L25.4387484,78.304 C24.9747484,78.336 24.7187484,78.432 24.7187484,78.88 L24.7187484,88.992 C24.7187484,89.44 24.9747484,89.536 25.4387484,89.568 L26.1587484,89.616 L26.1587484,90 L21.6467484,90 L21.6467484,89.616 L22.3667484,89.568 C22.8307484,89.536 23.0867484,89.44 23.0867484,88.992 L23.0867484,83.952 L16.5747484,83.952 L16.5747484,88.992 C16.5747484,89.44 16.8307484,89.536 17.3107484,89.568 L18.0307484,89.616 L18.0307484,90 L13.5187484,90 Z M34.3494967,90.192 C30.8294967,90.192 27.9654967,87.68 27.9654967,83.904 C27.9654967,80.112 30.8294967,77.6 34.3494967,77.6 C37.8694967,77.6 40.7334967,80.112 40.7334967,83.904 C40.7334967,87.68 37.8694967,90.192 34.3494967,90.192 Z M34.3494967,89.664 C36.9414967,89.664 38.8774967,87.584 38.8774967,83.904 C38.8774967,80.208 36.9414967,78.128 34.3494967,78.128 C31.7574967,78.128 29.8054967,80.208 29.8054967,83.904 C29.8054967,87.584 31.7574967,89.664 34.3494967,89.664 Z M49.1162451,90.192 C45.5962451,90.192 42.7322451,87.68 42.7322451,83.904 C42.7322451,80.112 45.5962451,77.6 49.1162451,77.6 C52.6362451,77.6 55.5002451,80.112 55.5002451,83.904 C55.5002451,87.68 52.6362451,90.192 49.1162451,90.192 Z M49.1162451,89.664 C51.7082451,89.664 53.6442451,87.584 53.6442451,83.904 C53.6442451,80.208 51.7082451,78.128 49.1162451,78.128 C46.5242451,78.128 44.5722451,80.208 44.5722451,83.904 C44.5722451,87.584 46.5242451,89.664 49.1162451,89.664 Z M61.2269935,90.192 C59.9949935,90.192 59.0029935,90.064 58.1229935,89.776 L57.7549935,86.112 L58.0429935,86.112 L59.4189935,88.944 C59.5629935,89.232 59.7869935,89.424 60.0429935,89.52 C60.3309935,89.632 60.6669935,89.68 61.2429935,89.68 C62.9069935,89.68 64.3149935,88.848 64.3149935,87.424 C64.3149935,85.888 63.1789935,85.168 61.4829935,84.624 L60.6349935,84.352 C58.7789935,83.76 57.6909935,82.592 57.6909935,80.816 C57.6909935,78.752 59.7389935,77.6 61.8829935,77.6 C62.8909935,77.6 63.8189935,77.728 64.6029935,78.032 L65.1789935,81.296 L64.8909935,81.296 L63.3389935,78.752 C63.0989935,78.352 62.9229935,78.288 62.6029935,78.208 C62.3149935,78.144 62.0109935,78.128 61.6589935,78.128 C60.3629935,78.128 59.0989935,78.912 59.0989935,80.288 C59.0989935,81.376 59.7229935,82.176 61.0989935,82.624 L61.9469935,82.896 C64.1869935,83.616 65.7709935,84.56 65.7709935,86.736 C65.7709935,88.832 63.7229935,90.192 61.2269935,90.192 Z M67.8177418,90 L67.8177418,89.616 L68.5377418,89.568 C69.0017418,89.536 69.2577418,89.44 69.2577418,88.992 L69.2577418,78.88 C69.2577418,78.432 69.0017418,78.336 68.5377418,78.304 L67.8177418,78.256 L67.8177418,77.872 L76.7297418,77.872 L77.2577418,81.424 L76.9697418,81.424 L75.3377418,78.64 C75.2097418,78.416 75.1457418,78.384 74.8737418,78.384 L70.8737418,78.384 L70.8737418,83.392 L73.2737418,83.392 C73.5457418,83.392 73.5777418,83.344 73.6257418,83.184 L74.2657418,81.296 L74.5537418,81.296 L74.5537418,86.048 L74.2657418,86.048 L73.6257418,84.176 C73.5617418,84 73.5457418,83.968 73.2737418,83.968 L70.8737418,83.968 L70.8737418,89.488 L75.6577418,89.488 C75.9137418,89.488 75.9617418,89.456 76.1057418,89.264 L78.2977418,86.416 L78.5857418,86.416 L77.4977418,90 L67.8177418,90 Z M86.3752385,90 L86.3752385,89.6 L87.3352385,89.552 C87.7992385,89.536 88.0552385,89.44 88.0552385,88.992 L88.0552385,84.528 L84.0872385,78.848 C83.8152385,78.464 83.7352385,78.336 83.2712385,78.304 L82.5672385,78.256 L82.5672385,77.872 L87.2072385,77.872 L87.2072385,78.256 L86.4072385,78.304 C85.9112385,78.336 85.6232385,78.48 85.8792385,78.848 L89.4152385,83.92 L92.9672385,78.848 C93.2392385,78.464 92.9352385,78.336 92.4392385,78.304 L91.6392385,78.256 L91.6392385,77.872 L95.1592385,77.872 L95.1592385,78.256 L94.4552385,78.304 C93.9912385,78.336 93.8952385,78.48 93.6392385,78.848 L89.6712385,84.528 L89.6712385,88.992 C89.6712385,89.44 89.9272385,89.52 90.4072385,89.552 L91.3672385,89.6 L91.3672385,90 L86.3752385,90 Z M101.861987,90.192 C98.3419869,90.192 95.4779869,87.68 95.4779869,83.904 C95.4779869,80.112 98.3419869,77.6 101.861987,77.6 C105.381987,77.6 108.245987,80.112 108.245987,83.904 C108.245987,87.68 105.381987,90.192 101.861987,90.192 Z M101.861987,89.664 C104.453987,89.664 106.389987,87.584 106.389987,83.904 C106.389987,80.208 104.453987,78.128 101.861987,78.128 C99.2699869,78.128 97.3179869,80.208 97.3179869,83.904 C97.3179869,87.584 99.2699869,89.664 101.861987,89.664 Z M116.180735,90.192 C112.996735,90.192 111.204735,88.624 111.204735,85.264 L111.204735,78.88 C111.204735,78.432 110.948735,78.336 110.484735,78.304 L109.764735,78.256 L109.764735,77.872 L114.276735,77.872 L114.276735,78.256 L113.556735,78.304 C113.092735,78.336 112.836735,78.432 112.836735,78.88 L112.836735,85.296 C112.836735,88.112 114.036735,89.424 116.596735,89.424 C119.204735,89.424 120.436735,87.952 120.436735,85.152 L120.436735,78.88 C120.436735,78.432 120.196735,78.336 119.716735,78.304 L118.996735,78.256 L118.996735,77.872 L122.500735,77.872 L122.500735,78.256 L121.796735,78.304 C121.316735,78.336 121.060735,78.432 121.060735,78.88 L121.060735,85.248 C121.060735,88.48 119.364735,90.192 116.180735,90.192 Z M124.195484,90 L124.195484,89.616 L124.915484,89.568 C125.379484,89.536 125.635484,89.44 125.635484,88.992 L125.635484,78.88 C125.635484,78.432 125.379484,78.336 124.915484,78.304 L124.195484,78.256 L124.195484,77.872 L128.787484,77.872 C131.683484,77.872 133.811484,78.496 133.811484,80.832 C133.811484,82.608 132.467484,83.568 130.275484,83.84 L135.875484,90 L133.811484,90 L128.419484,84.032 L127.251484,84.032 L127.251484,88.992 C127.251484,89.44 127.507484,89.536 127.987484,89.568 L128.707484,89.616 L128.707484,90 L124.195484,90 Z M127.251484,83.536 L128.659484,83.536 C130.707484,83.536 132.003484,82.848 132.003484,80.944 C132.003484,79.056 130.707484,78.368 128.659484,78.368 L127.251484,78.368 L127.251484,83.536 Z M147.31298,90.192 C143.29698,90.192 140.41698,87.776 140.41698,83.904 C140.41698,80.032 143.31298,77.6 147.39298,77.6 C148.73698,77.6 150.27298,77.824 151.23298,78.32 L151.90498,81.792 L151.61698,81.792 L149.80898,78.88 C149.58498,78.512 149.44098,78.4 149.05698,78.288 C148.56098,78.144 148.03298,78.112 147.32898,78.112 C144.72098,78.112 142.25698,79.664 142.25698,83.584 C142.25698,87.12 144.17698,89.68 147.45698,89.68 C148.16098,89.68 148.68898,89.648 149.18498,89.504 C149.56898,89.392 149.71298,89.28 149.93698,88.912 L151.74498,86 L152.03298,86 L151.36098,89.472 C150.40098,89.968 148.65698,90.192 147.31298,90.192 Z M160.207729,90.192 C156.687729,90.192 153.823729,87.68 153.823729,83.904 C153.823729,80.112 156.687729,77.6 160.207729,77.6 C163.727729,77.6 166.591729,80.112 166.591729,83.904 C166.591729,87.68 163.727729,90.192 160.207729,90.192 Z M160.207729,89.664 C162.799729,89.664 164.735729,87.584 164.735729,83.904 C164.735729,80.208 162.799729,78.128 160.207729,78.128 C157.615729,78.128 155.663729,80.208 155.663729,83.904 C155.663729,87.584 157.615729,89.664 160.207729,89.664 Z M168.078477,90 L168.078477,89.616 L168.782477,89.568 C169.246477,89.536 169.486477,89.44 169.518477,88.992 L170.158477,78.88 C170.190477,78.432 169.902477,78.336 169.438477,78.304 L168.718477,78.256 L168.718477,77.872 L172.286477,77.872 L175.870477,85.456 L179.454477,77.872 L182.862477,77.872 L182.862477,78.256 L182.142477,78.304 C181.662477,78.336 181.374477,78.432 181.406477,78.88 L182.046477,88.992 C182.078477,89.44 182.302477,89.536 182.782477,89.568 L183.502477,89.616 L183.502477,90 L178.990477,90 L178.990477,89.616 L179.694477,89.568 C180.174477,89.536 180.462477,89.44 180.430477,88.992 L179.790477,78.544 L175.342477,87.952 L175.246477,87.952 L170.782477,78.56 L170.142477,88.992 C170.110477,89.44 170.382477,89.536 170.846477,89.568 L171.582477,89.616 L171.582477,90 L168.078477,90 Z M185.229225,90 L185.229225,89.616 L185.949225,89.568 C186.413225,89.536 186.669225,89.44 186.669225,88.992 L186.669225,78.88 C186.669225,78.432 186.413225,78.336 185.949225,78.304 L185.229225,78.256 L185.229225,77.872 L190.285225,77.872 C193.085225,77.872 195.389225,78.464 195.389225,81.088 C195.389225,83.696 193.085225,84.4 190.285225,84.4 L188.685225,84.4 L188.685225,83.888 L190.141225,83.888 C192.301225,83.888 193.581225,83.216 193.581225,81.136 C193.581225,79.072 192.301225,78.368 190.141225,78.368 L188.285225,78.368 L188.285225,88.992 C188.285225,89.44 188.541225,89.536 189.021225,89.552 L190.397225,89.584 L190.397225,90 L185.229225,90 Z M206.139974,89.024 C206.299974,89.424 206.491974,89.536 206.971974,89.568 L207.675974,89.616 L207.675974,90 L203.051974,90 L203.051974,89.616 L203.851974,89.568 C204.363974,89.536 204.539974,89.424 204.379974,89.024 L203.003974,85.536 L198.475974,85.536 L197.099974,89.024 C196.939974,89.424 197.115974,89.536 197.627974,89.568 L198.427974,89.616 L198.427974,90 L194.939974,90 L194.939974,89.616 L195.643974,89.568 C196.107974,89.536 196.299974,89.424 196.459974,89.024 L201.179974,77.296 L201.435974,77.296 L206.139974,89.024 Z M198.731974,84.896 L202.763974,84.896 L200.747974,79.776 L198.731974,84.896 Z M208.650722,90 L208.650722,89.616 L209.370722,89.568 C209.850722,89.536 210.090722,89.44 210.090722,88.992 L210.090722,79.552 L208.634722,77.904 L208.634722,77.872 L210.746722,77.872 L219.066722,87.184 L219.066722,78.88 C219.066722,78.432 218.810722,78.336 218.330722,78.304 L217.610722,78.256 L217.610722,77.872 L221.130722,77.872 L221.130722,78.256 L220.410722,78.304 C219.930722,78.336 219.690722,78.432 219.690722,78.88 L219.690722,90.304 L219.626722,90.304 L210.714722,80.256 L210.714722,88.992 C210.714722,89.44 210.970722,89.536 211.450722,89.568 L212.154722,89.616 L212.154722,90 L208.650722,90 Z M223.033471,90 L223.033471,89.616 L223.753471,89.568 C224.217471,89.536 224.473471,89.44 224.473471,88.992 L224.473471,78.88 C224.473471,78.432 224.217471,78.336 223.753471,78.304 L223.033471,78.256 L223.033471,77.872 L227.545471,77.872 L227.545471,78.256 L226.825471,78.304 C226.345471,78.336 226.089471,78.432 226.089471,78.88 L226.089471,88.992 C226.089471,89.44 226.345471,89.536 226.825471,89.568 L227.545471,89.616 L227.545471,90 L223.033471,90 Z M235.720219,90.192 C232.200219,90.192 229.336219,87.68 229.336219,83.904 C229.336219,80.112 232.200219,77.6 235.720219,77.6 C239.240219,77.6 242.104219,80.112 242.104219,83.904 C242.104219,87.68 239.240219,90.192 235.720219,90.192 Z M235.720219,89.664 C238.312219,89.664 240.248219,87.584 240.248219,83.904 C240.248219,80.208 238.312219,78.128 235.720219,78.128 C233.128219,78.128 231.176219,80.208 231.176219,83.904 C231.176219,87.584 233.128219,89.664 235.720219,89.664 Z M243.958967,90 L243.958967,89.616 L244.678967,89.568 C245.158967,89.536 245.398967,89.44 245.398967,88.992 L245.398967,79.552 L243.942967,77.904 L243.942967,77.872 L246.054967,77.872 L254.374967,87.184 L254.374967,78.88 C254.374967,78.432 254.118967,78.336 253.638967,78.304 L252.918967,78.256 L252.918967,77.872 L256.438967,77.872 L256.438967,78.256 L255.718967,78.304 C255.238967,78.336 254.998967,78.432 254.998967,78.88 L254.998967,90.304 L254.934967,90.304 L246.022967,80.256 L246.022967,88.992 C246.022967,89.44 246.278967,89.536 246.758967,89.568 L247.462967,89.616 L247.462967,90 L243.958967,90 Z M257.637716,90.832 L263.701716,77.296 L264.741716,77.296 L258.677716,90.832 L257.637716,90.832 Z M266.372464,90 L266.372464,89.616 L267.092464,89.568 C267.556464,89.536 267.812464,89.44 267.812464,88.992 L267.812464,78.88 C267.812464,78.432 267.556464,78.336 267.092464,78.304 L266.372464,78.256 L266.372464,77.872 L271.156464,77.872 C273.908464,77.872 275.796464,78.544 275.796464,80.624 C275.796464,82.224 274.468464,83.312 272.420464,83.536 L272.420464,83.568 C274.932464,83.584 276.692464,84.48 276.692464,86.496 C276.692464,88.624 274.964464,90 271.604464,90 L266.372464,90 Z M269.428464,83.344 L271.316464,83.344 C273.092464,83.344 274.084464,82.416 274.084464,80.816 C274.084464,79.072 273.012464,78.368 271.012464,78.368 L269.428464,78.368 L269.428464,83.344 Z M269.428464,89.504 L271.188464,89.504 C273.684464,89.504 274.884464,88.656 274.884464,86.624 C274.884464,84.592 273.556464,83.84 271.380464,83.84 L269.428464,83.84 L269.428464,89.504 Z M278.579212,90 L278.579212,89.616 L279.299212,89.568 C279.763212,89.536 280.019212,89.44 280.019212,88.992 L280.019212,78.88 C280.019212,78.432 279.763212,78.336 279.299212,78.304 L278.579212,78.256 L278.579212,77.872 L288.019212,77.872 L288.563212,81.424 L288.275212,81.424 L286.627212,78.64 C286.499212,78.416 286.435212,78.384 286.179212,78.384 L281.635212,78.384 L281.635212,83.392 L284.163212,83.392 C284.419212,83.392 284.467212,83.344 284.515212,83.184 L285.139212,81.296 L285.427212,81.296 L285.427212,86.048 L285.139212,86.048 L284.515212,84.176 C284.451212,84 284.419212,83.968 284.163212,83.968 L281.635212,83.968 L281.635212,88.992 C281.635212,89.44 281.891212,89.536 282.371212,89.552 L283.747212,89.584 L283.747212,90 L278.579212,90 Z M290.113961,90 L290.113961,89.616 L290.833961,89.568 C291.297961,89.536 291.553961,89.44 291.553961,88.992 L291.553961,78.88 C291.553961,78.432 291.297961,78.336 290.833961,78.304 L290.113961,78.256 L290.113961,77.872 L299.553961,77.872 L300.097961,81.424 L299.809961,81.424 L298.161961,78.64 C298.033961,78.416 297.969961,78.384 297.713961,78.384 L293.169961,78.384 L293.169961,83.392 L295.697961,83.392 C295.953961,83.392 296.001961,83.344 296.049961,83.184 L296.673961,81.296 L296.961961,81.296 L296.961961,86.048 L296.673961,86.048 L296.049961,84.176 C295.985961,84 295.953961,83.968 295.697961,83.968 L293.169961,83.968 L293.169961,88.992 C293.169961,89.44 293.425961,89.536 293.905961,89.552 L295.281961,89.584 L295.281961,90 L290.113961,90 Z" id="CHOOSEYOURCOMPANION/BFF" fill="#FFFFFF" fill-rule="nonzero"></path>
            </g>
        </g>
    </g>
</svg>