<?xml version="1.0" encoding="UTF-8"?>
<svg width="569px" height="309px" viewBox="0 0 569 309" version="1.1" xmlns="http://www.w3.org/2000/svg" xmlns:xlink="http://www.w3.org/1999/xlink">
    <!-- Generator: Sketch 56.3 (81716) - https://sketch.com -->
    <title>Group 37</title>
    <desc>Created with Sketch.</desc>
    <g id="Page-1" stroke="none" stroke-width="1" fill="none" fill-rule="evenodd">
        <g id="KAWS-Microsite-Pink" transform="translate(-214.000000, -498.000000)">
            <g id="Group-37" transform="translate(199.000000, 498.000000)">
                <g id="Group-3" transform="translate(111.000000, 0.000000)" fill="#FEFEFE">
                    <path d="M29.0172244,106.132064 L52.3233268,186.22672 L81.086122,186.22672 L52.3233268,87.5332828 L78.3577756,1.73614219 L51.0831693,1.73614219 L29.0172244,75.6321891 L29.0172244,1.73614219 L0.998523622,1.73614219 L0.998523622,186.22672 L29.0172244,186.22672 L29.0172244,106.132064 Z M140.093996,186.22672 L167.120571,186.22672 L143.070374,1.73614219 L109.845965,1.73614219 L87.2810039,186.22672 L112.323327,186.22672 L115.795768,151.509783 L136.373524,151.509783 L140.093996,186.22672 Z M125.962106,55.7930953 L133.400098,123.986658 L118.772146,123.986658 L125.962106,55.7930953 Z M217.946358,1.73614219 L205.547736,121.009908 L192.904035,1.73614219 L164.637303,1.73614219 L187.695374,186.22672 L218.690453,186.22672 L230.590059,78.8540484 L242.244587,186.22672 L272.244587,186.22672 L295.79872,1.73614219 L269.51624,1.73614219 L256.624508,121.25797 L243.977854,1.73614219 L217.946358,1.73614219 Z M335.466043,-0.0002953125 C313.400098,-0.0002953125 301.004429,11.1595641 301.004429,35.9569547 L301.004429,41.9075016 C301.004429,60.2582203 304.473917,72.1593141 316.376476,87.5332828 L334.225886,110.346173 C344.392224,123.738595 345.632382,127.952705 345.632382,141.345127 L345.632382,145.559236 C345.632382,157.21522 343.152067,161.42933 336.458169,161.42933 C330.260335,161.42933 327.283957,157.21522 327.283957,148.535986 L327.283957,116.299673 L299.51624,116.299673 L299.51624,153.24622 C299.51624,176.059111 311.167815,188.21122 333.732776,188.21122 L339.186516,188.21122 C363.980807,188.21122 375.38435,172.093064 375.38435,145.063111 L375.38435,139.112564 C375.38435,118.036111 371.418799,108.860752 358.772146,92.4945328 L340.922736,69.4335797 C331.500492,57.2814703 329.51624,51.5789859 329.51624,41.1633141 L329.51624,37.6904391 C329.51624,29.0141578 331.004429,24.7970953 337.698327,24.7970953 C344.392224,24.7970953 345.632382,29.5073297 345.632382,35.7088922 L345.632382,62.2397672 L372.658957,62.2397672 L372.658957,31.9879547 C372.658957,10.1673141 363.732776,-0.0002953125 340.674705,-0.0002953125 L335.466043,-0.0002953125 Z" id="Fill-1"></path>
                </g>
                <path d="M32.7312909,260.48 C22.6912909,260.48 15.4912909,254.44 15.4912909,244.76 C15.4912909,235.08 22.7312909,229 32.9312909,229 C36.2912909,229 40.1312909,229.56 42.5312909,230.8 L44.2112909,239.48 L43.4912909,239.48 L38.9712909,232.2 C38.4112909,231.28 38.0512909,231 37.0912909,230.72 C35.8512909,230.36 34.5312909,230.28 32.7712909,230.28 C26.2512909,230.28 20.0912909,234.16 20.0912909,243.96 C20.0912909,252.8 24.8912909,259.2 33.0912909,259.2 C34.8512909,259.2 36.1712909,259.12 37.4112909,258.76 C38.3712909,258.48 38.7312909,258.2 39.2912909,257.28 L43.8112909,250 L44.5312909,250 L42.8512909,258.68 C40.4512909,259.92 36.0912909,260.48 32.7312909,260.48 Z M64.9681618,260.48 C56.1681618,260.48 49.0081618,254.2 49.0081618,244.76 C49.0081618,235.28 56.1681618,229 64.9681618,229 C73.7681618,229 80.9281618,235.28 80.9281618,244.76 C80.9281618,254.2 73.7681618,260.48 64.9681618,260.48 Z M64.9681618,259.16 C71.4481618,259.16 76.2881618,253.96 76.2881618,244.76 C76.2881618,235.52 71.4481618,230.32 64.9681618,230.32 C58.4881618,230.32 53.6081618,235.52 53.6081618,244.76 C53.6081618,253.96 58.4881618,259.16 64.9681618,259.16 Z M84.6450327,260 L84.6450327,259.04 L86.4050327,258.92 C87.5650327,258.84 88.1650327,258.6 88.2450327,257.48 L89.8450327,232.2 C89.9250327,231.08 89.2050327,230.84 88.0450327,230.76 L86.2450327,230.64 L86.2450327,229.68 L95.1650327,229.68 L104.125033,248.64 L113.085033,229.68 L121.605033,229.68 L121.605033,230.64 L119.805033,230.76 C118.605033,230.84 117.885033,231.08 117.965033,232.2 L119.565033,257.48 C119.645033,258.6 120.205033,258.84 121.405033,258.92 L123.205033,259.04 L123.205033,260 L111.925033,260 L111.925033,259.04 L113.685033,258.92 C114.885033,258.84 115.605033,258.6 115.525033,257.48 L113.925033,231.36 L102.805033,254.88 L102.565033,254.88 L91.4050327,231.4 L89.8050327,257.48 C89.7250327,258.6 90.4050327,258.84 91.5650327,258.92 L93.4050327,259.04 L93.4050327,260 L84.6450327,260 Z M127.521904,260 L127.521904,259.04 L129.321904,258.92 C130.481904,258.84 131.121904,258.6 131.121904,257.48 L131.121904,232.2 C131.121904,231.08 130.481904,230.84 129.321904,230.76 L127.521904,230.64 L127.521904,229.68 L140.161904,229.68 C147.161904,229.68 152.921904,231.16 152.921904,237.72 C152.921904,244.24 147.161904,246 140.161904,246 L136.161904,246 L136.161904,244.72 L139.801904,244.72 C145.201904,244.72 148.401904,243.04 148.401904,237.84 C148.401904,232.68 145.201904,230.92 139.801904,230.92 L135.161904,230.92 L135.161904,257.48 C135.161904,258.6 135.801904,258.84 137.001904,258.88 L140.441904,258.96 L140.441904,260 L127.521904,260 Z M179.798775,257.56 C180.198775,258.56 180.678775,258.84 181.878775,258.92 L183.638775,259.04 L183.638775,260 L172.078775,260 L172.078775,259.04 L174.078775,258.92 C175.358775,258.84 175.798775,258.56 175.398775,257.56 L171.958775,248.84 L160.638775,248.84 L157.198775,257.56 C156.798775,258.56 157.238775,258.84 158.518775,258.92 L160.518775,259.04 L160.518775,260 L151.798775,260 L151.798775,259.04 L153.558775,258.92 C154.718775,258.84 155.198775,258.56 155.598775,257.56 L167.398775,228.24 L168.038775,228.24 L179.798775,257.56 Z M161.278775,247.24 L171.358775,247.24 L166.318775,234.44 L161.278775,247.24 Z M186.075645,260 L186.075645,259.04 L187.875645,258.92 C189.075645,258.84 189.675645,258.6 189.675645,257.48 L189.675645,233.88 L186.035645,229.76 L186.035645,229.68 L191.315645,229.68 L212.115645,252.96 L212.115645,232.2 C212.115645,231.08 211.475645,230.84 210.275645,230.76 L208.475645,230.64 L208.475645,229.68 L217.275645,229.68 L217.275645,230.64 L215.475645,230.76 C214.275645,230.84 213.675645,231.08 213.675645,232.2 L213.675645,260.76 L213.515645,260.76 L191.235645,235.64 L191.235645,257.48 C191.235645,258.6 191.875645,258.84 193.075645,258.92 L194.835645,259.04 L194.835645,260 L186.075645,260 Z M222.032516,260 L222.032516,259.04 L223.832516,258.92 C224.992516,258.84 225.632516,258.6 225.632516,257.48 L225.632516,232.2 C225.632516,231.08 224.992516,230.84 223.832516,230.76 L222.032516,230.64 L222.032516,229.68 L233.312516,229.68 L233.312516,230.64 L231.512516,230.76 C230.312516,230.84 229.672516,231.08 229.672516,232.2 L229.672516,257.48 C229.672516,258.6 230.312516,258.84 231.512516,258.92 L233.312516,259.04 L233.312516,260 L222.032516,260 Z M253.749387,260.48 C244.949387,260.48 237.789387,254.2 237.789387,244.76 C237.789387,235.28 244.949387,229 253.749387,229 C262.549387,229 269.709387,235.28 269.709387,244.76 C269.709387,254.2 262.549387,260.48 253.749387,260.48 Z M253.749387,259.16 C260.229387,259.16 265.069387,253.96 265.069387,244.76 C265.069387,235.52 260.229387,230.32 253.749387,230.32 C247.269387,230.32 242.389387,235.52 242.389387,244.76 C242.389387,253.96 247.269387,259.16 253.749387,259.16 Z M274.346258,260 L274.346258,259.04 L276.146258,258.92 C277.346258,258.84 277.946258,258.6 277.946258,257.48 L277.946258,233.88 L274.306258,229.76 L274.306258,229.68 L279.586258,229.68 L300.386258,252.96 L300.386258,232.2 C300.386258,231.08 299.746258,230.84 298.546258,230.76 L296.746258,230.64 L296.746258,229.68 L305.546258,229.68 L305.546258,230.64 L303.746258,230.76 C302.546258,230.84 301.946258,231.08 301.946258,232.2 L301.946258,260.76 L301.786258,260.76 L279.506258,235.64 L279.506258,257.48 C279.506258,258.6 280.146258,258.84 281.346258,258.92 L283.106258,259.04 L283.106258,260 L274.346258,260 Z M319.743129,260.48 C316.663129,260.48 314.183129,260.16 311.983129,259.44 L311.063129,250.28 L311.783129,250.28 L315.223129,257.36 C315.583129,258.08 316.143129,258.56 316.783129,258.8 C317.503129,259.08 318.343129,259.2 319.783129,259.2 C323.943129,259.2 327.463129,257.12 327.463129,253.56 C327.463129,249.72 324.623129,247.92 320.383129,246.56 L318.263129,245.88 C313.623129,244.4 310.903129,241.48 310.903129,237.04 C310.903129,231.88 316.023129,229 321.383129,229 C323.903129,229 326.223129,229.32 328.183129,230.08 L329.623129,238.24 L328.903129,238.24 L325.023129,231.88 C324.423129,230.88 323.983129,230.72 323.183129,230.52 C322.463129,230.36 321.703129,230.32 320.823129,230.32 C317.583129,230.32 314.423129,232.28 314.423129,235.72 C314.423129,238.44 315.983129,240.44 319.423129,241.56 L321.543129,242.24 C327.143129,244.04 331.103129,246.4 331.103129,251.84 C331.103129,257.08 325.983129,260.48 319.743129,260.48 Z M336.22,260 L336.22,259.04 L338.02,258.92 C339.18,258.84 339.82,258.6 339.82,257.48 L339.82,232.2 C339.82,231.08 339.18,230.84 338.02,230.76 L336.22,230.64 L336.22,229.68 L347.5,229.68 L347.5,230.64 L345.7,230.76 C344.5,230.84 343.86,231.08 343.86,232.2 L343.86,243.28 L360.14,243.28 L360.14,232.2 C360.14,231.08 359.5,230.84 358.34,230.76 L356.54,230.64 L356.54,229.68 L367.82,229.68 L367.82,230.64 L366.02,230.76 C364.86,230.84 364.22,231.08 364.22,232.2 L364.22,257.48 C364.22,258.6 364.86,258.84 366.02,258.92 L367.82,259.04 L367.82,260 L356.54,260 L356.54,259.04 L358.34,258.92 C359.5,258.84 360.14,258.6 360.14,257.48 L360.14,244.88 L343.86,244.88 L343.86,257.48 C343.86,258.6 344.5,258.84 345.7,258.92 L347.5,259.04 L347.5,260 L336.22,260 Z M372.976871,260 L372.976871,259.04 L374.776871,258.92 C375.936871,258.84 376.576871,258.6 376.576871,257.48 L376.576871,232.2 C376.576871,231.08 375.936871,230.84 374.776871,230.76 L372.976871,230.64 L372.976871,229.68 L384.256871,229.68 L384.256871,230.64 L382.456871,230.76 C381.256871,230.84 380.616871,231.08 380.616871,232.2 L380.616871,257.48 C380.616871,258.6 381.256871,258.84 382.456871,258.92 L384.256871,259.04 L384.256871,260 L372.976871,260 Z M389.373742,260 L389.373742,259.04 L391.173742,258.92 C392.333742,258.84 392.973742,258.6 392.973742,257.48 L392.973742,232.2 C392.973742,231.08 392.333742,230.84 391.173742,230.76 L389.373742,230.64 L389.373742,229.68 L402.013742,229.68 C409.013742,229.68 414.773742,231.16 414.773742,237.72 C414.773742,244.24 409.013742,246 402.013742,246 L398.013742,246 L398.013742,244.72 L401.653742,244.72 C407.053742,244.72 410.253742,243.04 410.253742,237.84 C410.253742,232.68 407.053742,230.92 401.653742,230.92 L397.013742,230.92 L397.013742,257.48 C397.013742,258.6 397.653742,258.84 398.853742,258.88 L402.293742,258.96 L402.293742,260 L389.373742,260 Z M427.687484,260 L427.687484,259.04 L429.487484,258.92 C430.647484,258.84 431.287484,258.6 431.287484,257.48 L431.287484,232.2 C431.287484,231.08 430.647484,230.84 429.487484,230.76 L427.687484,230.64 L427.687484,229.68 L438.967484,229.68 L438.967484,230.64 L437.167484,230.76 C435.967484,230.84 435.327484,231.08 435.327484,232.2 L435.327484,257.48 C435.327484,258.6 435.967484,258.84 437.167484,258.92 L438.967484,259.04 L438.967484,260 L427.687484,260 Z M444.204355,260 L444.204355,259.04 L446.004355,258.92 C447.204355,258.84 447.804355,258.6 447.804355,257.48 L447.804355,233.88 L444.164355,229.76 L444.164355,229.68 L449.444355,229.68 L470.244355,252.96 L470.244355,232.2 C470.244355,231.08 469.604355,230.84 468.404355,230.76 L466.604355,230.64 L466.604355,229.68 L475.404355,229.68 L475.404355,230.64 L473.604355,230.76 C472.404355,230.84 471.804355,231.08 471.804355,232.2 L471.804355,260.76 L471.644355,260.76 L449.364355,235.64 L449.364355,257.48 C449.364355,258.6 450.004355,258.84 451.204355,258.92 L452.964355,259.04 L452.964355,260 L444.204355,260 Z M495.798096,260 L495.798096,259 L498.198096,258.88 C499.358096,258.84 499.998096,258.6 499.998096,257.48 L499.998096,230.84 L493.038096,230.84 C492.358096,230.84 492.118096,230.92 491.878096,231.48 L488.358096,239.04 L487.638096,239.04 L488.598096,229.68 L515.438096,229.68 L516.438096,239.04 L515.718096,239.04 L512.158096,231.48 C511.878096,230.92 511.678096,230.84 511.038096,230.84 L504.078096,230.84 L504.078096,257.48 C504.078096,258.6 504.678096,258.8 505.878096,258.88 L508.278096,259 L508.278096,260 L495.798096,260 Z M520.114967,260 L520.114967,259.04 L521.914967,258.92 C523.074967,258.84 523.714967,258.6 523.714967,257.48 L523.714967,232.2 C523.714967,231.08 523.074967,230.84 521.914967,230.76 L520.114967,230.64 L520.114967,229.68 L531.394967,229.68 L531.394967,230.64 L529.594967,230.76 C528.394967,230.84 527.754967,231.08 527.754967,232.2 L527.754967,243.28 L544.034967,243.28 L544.034967,232.2 C544.034967,231.08 543.394967,230.84 542.234967,230.76 L540.434967,230.64 L540.434967,229.68 L551.714967,229.68 L551.714967,230.64 L549.914967,230.76 C548.754967,230.84 548.114967,231.08 548.114967,232.2 L548.114967,257.48 C548.114967,258.6 548.754967,258.84 549.914967,258.92 L551.714967,259.04 L551.714967,260 L540.434967,260 L540.434967,259.04 L542.234967,258.92 C543.394967,258.84 544.034967,258.6 544.034967,257.48 L544.034967,244.88 L527.754967,244.88 L527.754967,257.48 C527.754967,258.6 528.394967,258.84 529.594967,258.92 L531.394967,259.04 L531.394967,260 L520.114967,260 Z M556.871838,260 L556.871838,259.04 L558.671838,258.92 C559.831838,258.84 560.471838,258.6 560.471838,257.48 L560.471838,232.2 C560.471838,231.08 559.831838,230.84 558.671838,230.76 L556.871838,230.64 L556.871838,229.68 L579.151838,229.68 L580.471838,238.56 L579.751838,238.56 L575.671838,231.6 C575.351838,231.04 575.191838,230.96 574.511838,230.96 L564.511838,230.96 L564.511838,243.48 L570.511838,243.48 C571.191838,243.48 571.271838,243.36 571.391838,242.96 L572.991838,238.24 L573.711838,238.24 L573.711838,250.12 L572.991838,250.12 L571.391838,245.44 C571.231838,245 571.191838,244.92 570.511838,244.92 L564.511838,244.92 L564.511838,258.72 L576.471838,258.72 C577.111838,258.72 577.231838,258.64 577.591838,258.16 L583.071838,251.04 L583.791838,251.04 L581.071838,260 L556.871838,260 Z M88.5065973,305.56 C88.9065973,306.56 89.3865973,306.84 90.5865973,306.92 L92.3465973,307.04 L92.3465973,308 L80.7865973,308 L80.7865973,307.04 L82.7865973,306.92 C84.0665973,306.84 84.5065973,306.56 84.1065973,305.56 L80.6665973,296.84 L69.3465973,296.84 L65.9065973,305.56 C65.5065973,306.56 65.9465973,306.84 67.2265973,306.92 L69.2265973,307.04 L69.2265973,308 L60.5065973,308 L60.5065973,307.04 L62.2665973,306.92 C63.4265973,306.84 63.9065973,306.56 64.3065973,305.56 L76.1065973,276.24 L76.7465973,276.24 L88.5065973,305.56 Z M69.9865973,295.24 L80.0665973,295.24 L75.0265973,282.44 L69.9865973,295.24 Z M110.383468,308.48 C100.343468,308.48 93.1434682,302.44 93.1434682,292.76 C93.1434682,283.08 100.503468,277 110.583468,277 C113.943468,277 117.783468,277.56 120.183468,278.8 L121.863468,287.48 L121.143468,287.48 L116.623468,280.2 C116.063468,279.28 115.703468,279 114.743468,278.72 C113.503468,278.36 112.183468,278.28 110.423468,278.28 C104.023468,278.28 97.7434682,282.16 97.7434682,291.96 C97.7434682,300.8 102.543468,307.16 110.743468,307.16 C112.983468,307.16 115.823468,306.8 117.863468,305.72 L117.863468,296.84 C117.863468,295.72 117.223468,295.4 116.063468,295.36 L111.343468,295.24 L111.343468,293.96 L125.543468,293.96 L125.543468,295.4 L121.943468,295.44 L121.943468,303.28 L122.063468,306.04 C119.023468,307.28 114.263468,308.48 110.383468,308.48 Z M129.500339,308 L129.500339,307.04 L131.300339,306.92 C132.460339,306.84 133.100339,306.6 133.100339,305.48 L133.100339,280.2 C133.100339,279.08 132.460339,278.84 131.300339,278.76 L129.500339,278.64 L129.500339,277.68 L151.780339,277.68 L153.100339,286.56 L152.380339,286.56 L148.300339,279.6 C147.980339,279.04 147.820339,278.96 147.140339,278.96 L137.140339,278.96 L137.140339,291.48 L143.140339,291.48 C143.820339,291.48 143.900339,291.36 144.020339,290.96 L145.620339,286.24 L146.340339,286.24 L146.340339,298.12 L145.620339,298.12 L144.020339,293.44 C143.860339,293 143.820339,292.92 143.140339,292.92 L137.140339,292.92 L137.140339,306.72 L149.100339,306.72 C149.740339,306.72 149.860339,306.64 150.220339,306.16 L155.700339,299.04 L156.420339,299.04 L153.700339,308 L129.500339,308 Z M186.294081,308.48 C177.494081,308.48 170.334081,302.2 170.334081,292.76 C170.334081,283.28 177.494081,277 186.294081,277 C195.094081,277 202.254081,283.28 202.254081,292.76 C202.254081,302.2 195.094081,308.48 186.294081,308.48 Z M186.294081,307.16 C192.774081,307.16 197.614081,301.96 197.614081,292.76 C197.614081,283.52 192.774081,278.32 186.294081,278.32 C179.814081,278.32 174.934081,283.52 174.934081,292.76 C174.934081,301.96 179.814081,307.16 186.294081,307.16 Z M206.770952,308 L206.770952,307.04 L208.570952,306.92 C209.730952,306.84 210.370952,306.6 210.370952,305.48 L210.370952,280.2 C210.370952,279.08 209.730952,278.84 208.570952,278.76 L206.770952,278.64 L206.770952,277.68 L230.370952,277.68 L231.730952,286.56 L231.010952,286.56 L226.890952,279.6 C226.570952,279.04 226.410952,278.96 225.770952,278.96 L214.410952,278.96 L214.410952,291.48 L220.730952,291.48 C221.370952,291.48 221.490952,291.36 221.610952,290.96 L223.170952,286.24 L223.890952,286.24 L223.890952,298.12 L223.170952,298.12 L221.610952,293.44 C221.450952,293 221.370952,292.92 220.730952,292.92 L214.410952,292.92 L214.410952,305.48 C214.410952,306.6 215.050952,306.84 216.250952,306.88 L219.690952,306.96 L219.690952,308 L206.770952,308 Z M244.604694,308 L244.604694,307.04 L246.404694,306.92 C247.564694,306.84 248.204694,306.6 248.204694,305.48 L248.204694,280.2 C248.204694,279.08 247.564694,278.84 246.404694,278.76 L244.604694,278.64 L244.604694,277.68 L255.884694,277.68 L255.884694,278.64 L254.084694,278.76 C252.884694,278.84 252.244694,279.08 252.244694,280.2 L252.244694,306.72 L262.644694,306.72 C263.284694,306.72 263.404694,306.64 263.764694,306.16 L269.244694,299.04 L269.964694,299.04 L267.244694,308 L244.604694,308 Z M288.801565,308.48 C280.001565,308.48 272.841565,302.2 272.841565,292.76 C272.841565,283.28 280.001565,277 288.801565,277 C297.601565,277 304.761565,283.28 304.761565,292.76 C304.761565,302.2 297.601565,308.48 288.801565,308.48 Z M288.801565,307.16 C295.281565,307.16 300.121565,301.96 300.121565,292.76 C300.121565,283.52 295.281565,278.32 288.801565,278.32 C282.321565,278.32 277.441565,283.52 277.441565,292.76 C277.441565,301.96 282.321565,307.16 288.801565,307.16 Z M309.398435,308 L309.398435,307.04 L311.198435,306.92 C312.398435,306.84 312.998435,306.6 312.998435,305.48 L312.998435,281.88 L309.358435,277.76 L309.358435,277.68 L314.638435,277.68 L335.438435,300.96 L335.438435,280.2 C335.438435,279.08 334.798435,278.84 333.598435,278.76 L331.798435,278.64 L331.798435,277.68 L340.598435,277.68 L340.598435,278.64 L338.798435,278.76 C337.598435,278.84 336.998435,279.08 336.998435,280.2 L336.998435,308.76 L336.838435,308.76 L314.558435,283.64 L314.558435,305.48 C314.558435,306.6 315.198435,306.84 316.398435,306.92 L318.158435,307.04 L318.158435,308 L309.398435,308 Z M345.355306,308 L345.355306,307.04 L347.155306,306.92 C348.315306,306.84 348.955306,306.6 348.955306,305.48 L348.955306,280.2 C348.955306,279.08 348.315306,278.84 347.155306,278.76 L345.355306,278.64 L345.355306,277.68 L367.635306,277.68 L368.955306,286.56 L368.235306,286.56 L364.155306,279.6 C363.835306,279.04 363.675306,278.96 362.995306,278.96 L352.995306,278.96 L352.995306,291.48 L358.995306,291.48 C359.675306,291.48 359.755306,291.36 359.875306,290.96 L361.475306,286.24 L362.195306,286.24 L362.195306,298.12 L361.475306,298.12 L359.875306,293.44 C359.715306,293 359.675306,292.92 358.995306,292.92 L352.995306,292.92 L352.995306,306.72 L364.955306,306.72 C365.595306,306.72 365.715306,306.64 366.075306,306.16 L371.555306,299.04 L372.275306,299.04 L369.555306,308 L345.355306,308 Z M376.112177,308 L376.112177,307.04 L377.912177,306.92 C379.072177,306.84 379.712177,306.6 379.712177,305.48 L379.712177,280.2 C379.712177,279.08 379.072177,278.84 377.912177,278.76 L376.112177,278.64 L376.112177,277.68 L387.392177,277.68 L387.392177,278.64 L385.592177,278.76 C384.392177,278.84 383.752177,279.08 383.752177,280.2 L383.752177,306.72 L394.152177,306.72 C394.792177,306.72 394.912177,306.64 395.272177,306.16 L400.752177,299.04 L401.472177,299.04 L398.752177,308 L376.112177,308 Z M404.989048,308 L404.989048,307.04 L406.789048,306.92 C407.949048,306.84 408.589048,306.6 408.589048,305.48 L408.589048,280.2 C408.589048,279.08 407.949048,278.84 406.789048,278.76 L404.989048,278.64 L404.989048,277.68 L416.269048,277.68 L416.269048,278.64 L414.469048,278.76 C413.269048,278.84 412.629048,279.08 412.629048,280.2 L412.629048,305.48 C412.629048,306.6 413.269048,306.84 414.469048,306.92 L416.269048,307.04 L416.269048,308 L404.989048,308 Z M421.505919,308 L421.505919,307.04 L423.305919,306.92 C424.505919,306.84 425.105919,306.6 425.105919,305.48 L425.105919,281.88 L421.465919,277.76 L421.465919,277.68 L426.745919,277.68 L447.545919,300.96 L447.545919,280.2 C447.545919,279.08 446.905919,278.84 445.705919,278.76 L443.905919,278.64 L443.905919,277.68 L452.705919,277.68 L452.705919,278.64 L450.905919,278.76 C449.705919,278.84 449.105919,279.08 449.105919,280.2 L449.105919,308.76 L448.945919,308.76 L426.665919,283.64 L426.665919,305.48 C426.665919,306.6 427.305919,306.84 428.505919,306.92 L430.265919,307.04 L430.265919,308 L421.505919,308 Z M457.46279,308 L457.46279,307.04 L459.26279,306.92 C460.42279,306.84 461.06279,306.6 461.06279,305.48 L461.06279,280.2 C461.06279,279.08 460.42279,278.84 459.26279,278.76 L457.46279,278.64 L457.46279,277.68 L479.74279,277.68 L481.06279,286.56 L480.34279,286.56 L476.26279,279.6 C475.94279,279.04 475.78279,278.96 475.10279,278.96 L465.10279,278.96 L465.10279,291.48 L471.10279,291.48 C471.78279,291.48 471.86279,291.36 471.98279,290.96 L473.58279,286.24 L474.30279,286.24 L474.30279,298.12 L473.58279,298.12 L471.98279,293.44 C471.82279,293 471.78279,292.92 471.10279,292.92 L465.10279,292.92 L465.10279,306.72 L477.06279,306.72 C477.70279,306.72 477.82279,306.64 478.18279,306.16 L483.66279,299.04 L484.38279,299.04 L481.66279,308 L457.46279,308 Z M497.659661,308.48 C494.579661,308.48 492.099661,308.16 489.899661,307.44 L488.979661,298.28 L489.699661,298.28 L493.139661,305.36 C493.499661,306.08 494.059661,306.56 494.699661,306.8 C495.419661,307.08 496.259661,307.2 497.699661,307.2 C501.859661,307.2 505.379661,305.12 505.379661,301.56 C505.379661,297.72 502.539661,295.92 498.299661,294.56 L496.179661,293.88 C491.539661,292.4 488.819661,289.48 488.819661,285.04 C488.819661,279.88 493.939661,277 499.299661,277 C501.819661,277 504.139661,277.32 506.099661,278.08 L507.539661,286.24 L506.819661,286.24 L502.939661,279.88 C502.339661,278.88 501.899661,278.72 501.099661,278.52 C500.379661,278.36 499.619661,278.32 498.739661,278.32 C495.499661,278.32 492.339661,280.28 492.339661,283.72 C492.339661,286.44 493.899661,288.44 497.339661,289.56 L499.459661,290.24 C505.059661,292.04 509.019661,294.4 509.019661,299.84 C509.019661,305.08 503.899661,308.48 497.659661,308.48 Z M523.576532,308.48 C520.496532,308.48 518.016532,308.16 515.816532,307.44 L514.896532,298.28 L515.616532,298.28 L519.056532,305.36 C519.416532,306.08 519.976532,306.56 520.616532,306.8 C521.336532,307.08 522.176532,307.2 523.616532,307.2 C527.776532,307.2 531.296532,305.12 531.296532,301.56 C531.296532,297.72 528.456532,295.92 524.216532,294.56 L522.096532,293.88 C517.456532,292.4 514.736532,289.48 514.736532,285.04 C514.736532,279.88 519.856532,277 525.216532,277 C527.736532,277 530.056532,277.32 532.016532,278.08 L533.456532,286.24 L532.736532,286.24 L528.856532,279.88 C528.256532,278.88 527.816532,278.72 527.016532,278.52 C526.296532,278.36 525.536532,278.32 524.656532,278.32 C521.416532,278.32 518.256532,280.28 518.256532,283.72 C518.256532,286.44 519.816532,288.44 523.256532,289.56 L525.376532,290.24 C530.976532,292.04 534.936532,294.4 534.936532,299.84 C534.936532,305.08 529.816532,308.48 523.576532,308.48 Z" id="COMPANIONSHIPINTHEAGEOFLONELINESS" fill="#FFFFFF" fill-rule="nonzero"></path>
            </g>
        </g>
    </g>
</svg>