<?xml version="1.0" encoding="UTF-8"?>
<svg width="2000px" height="1169px" viewBox="0 0 2000 1169" version="1.1" xmlns="http://www.w3.org/2000/svg" xmlns:xlink="http://www.w3.org/1999/xlink">
    <!-- Generator: Sketch 56.3 (81716) - https://sketch.com -->
    <title>KAWS-landing</title>
    <desc>Created with Sketch.</desc>
    <defs>
        <polygon id="path-1" points="0 -0.00019375 244.597776 -0.00019375 244.597776 123.4823 0 123.4823"></polygon>
    </defs>
    <g id="Page-1" stroke="none" stroke-width="1" fill="none" fill-rule="evenodd">
        <g id="Artboard-Copy">
            <g id="KAWS-landing">
                <g id="Group" transform="translate(876.000000, 41.000000)">
                    <g id="Group-3" transform="translate(0.024620, 0.000000)">
                        <mask id="mask-2" fill="white">
                            <use xlink:href="#path-1"></use>
                        </mask>
                        <g id="Clip-2"></g>
                        <path d="M18.3045866,69.6316187 L33.5312402,122.180494 L52.3229331,122.180494 L33.5312402,57.4292437 L50.5404134,1.13905625 L32.7210039,1.13905625 L18.3045866,49.6211187 L18.3045866,1.13905625 L-0.000964566929,1.13905625 L-0.000964566929,122.180494 L18.3045866,122.180494 L18.3045866,69.6316187 Z M90.8747441,122.180494 L108.532106,122.180494 L92.819311,1.13905625 L71.1126969,1.13905625 L56.3702559,122.180494 L72.7312402,122.180494 L74.9999016,99.4032437 L88.4440354,99.4032437 L90.8747441,122.180494 Z M81.6419094,36.6049937 L86.5013976,81.3457437 L76.9444685,81.3457437 L81.6419094,36.6049937 Z M141.738287,1.13905625 L133.637854,79.3927437 L125.377303,1.13905625 L106.909705,1.13905625 L121.974311,122.180494 L142.224429,122.180494 L149.998839,51.7349312 L157.61313,122.180494 L177.21313,122.180494 L192.601831,1.13905625 L175.43061,1.13905625 L167.008012,79.5554937 L158.745531,1.13905625 L141.738287,1.13905625 Z M218.517815,-0.00019375 C204.101398,-0.00019375 196.002894,7.32161875 196.002894,23.5908062 L196.002894,27.4948687 C196.002894,39.5344937 198.269626,47.3426187 206.045965,57.4292437 L217.707579,72.3964312 C224.349587,81.1829937 225.159823,83.9478062 225.159823,92.7343687 L225.159823,95.4991812 C225.159823,103.146494 223.53935,105.911306 219.166004,105.911306 C215.116752,105.911306 213.172185,103.146494 213.172185,97.4521812 L213.172185,76.3024312 L195.03061,76.3024312 L195.03061,100.542494 C195.03061,115.509681 202.642972,123.482494 217.385413,123.482494 L220.948524,123.482494 C237.147461,123.482494 244.597776,112.907619 244.597776,95.1736812 L244.597776,91.2696187 C244.597776,77.4416812 242.006949,71.4218687 233.744469,60.6842437 L222.082854,45.5543062 C215.926988,37.5814937 214.63061,33.8401812 214.63061,27.0066187 L214.63061,24.7281187 C214.63061,19.0357438 215.602894,16.2689937 219.97624,16.2689937 C224.349587,16.2689937 225.159823,19.3593062 225.159823,23.4280562 L225.159823,40.8345562 L242.817185,40.8345562 L242.817185,20.9868062 C242.817185,6.67061875 236.985413,-0.00019375 221.920807,-0.00019375 L218.517815,-0.00019375 Z" id="Fill-1" fill="#FEFEFE" mask="url(#mask-2)"></path>
                    </g>
                </g>
                <rect id="Rectangle" stroke="#FFFFFF" stroke-width="0.5" opacity="0.0119745164" x="0.25" y="0.25" width="1999.5" height="1168.5"></rect>
                <path d="M858.603,210.218 L858.603,201.786 L856.061,201.786 C855.007,201.786 854.511,201.817 853.798,201.941 L853.798,199.926 C854.48,200.05 854.976,200.081 856.185,200.081 L858.324,200.081 C859.347,200.081 859.905,200.05 860.649,199.926 C860.556,200.856 860.525,201.662 860.525,203.057 L860.525,210.621 C860.68,210.776 860.804,210.869 860.99,211.024 C862.54,212.388 863.036,212.667 864.431,212.977 C865.64,213.225 868.275,213.38 871.561,213.38 C875.994,213.38 879.497,213.225 882.163,212.884 C881.76,213.69 881.636,214.093 881.45,215.116 C878.35,215.24 875.095,215.302 870.662,215.302 C867.252,215.302 864.493,215.023 863.16,214.527 C862.416,214.279 861.672,213.876 861.238,213.535 C861.083,213.442 861.083,213.442 860.122,212.512 C859.781,212.233 859.409,212.047 859.13,212.047 C858.448,212.047 857.642,212.574 856.371,213.876 C855.131,215.116 855.1,215.178 854.635,215.705 L853.085,214.279 C855.627,211.768 857.27,210.559 858.603,210.218 Z M854.604,190.192 L856.061,188.921 C858.138,190.905 859.068,191.928 860.959,194.315 L859.347,195.741 C857.487,193.106 856.774,192.238 854.604,190.192 Z M872.708,192.238 L876.769,192.238 C878.35,192.238 879.063,192.207 879.745,192.083 L879.745,194.16 C878.784,194.067 877.978,194.036 876.769,194.036 L872.708,194.036 L872.708,198.252 L878.536,198.252 C879.528,198.252 880.241,198.221 881.202,198.097 L881.202,200.174 C880.334,200.05 879.528,200.019 878.567,200.019 L874.661,200.019 L874.661,207.738 C874.661,208.451 875.25,208.699 876.924,208.699 C878.257,208.699 878.536,208.637 878.846,208.327 C878.908,208.296 878.908,208.265 878.97,208.234 C879.249,207.738 879.404,206.498 879.466,204.173 C880.241,204.576 880.613,204.731 881.357,204.855 C881.264,205.599 881.233,205.971 881.202,206.498 C881.047,208.575 880.83,209.35 880.21,209.846 C879.621,210.342 878.567,210.559 876.862,210.559 C873.824,210.559 872.894,210.156 872.894,208.792 L872.894,200.019 L870.042,200.019 C869.794,202.778 869.236,204.452 867.903,206.312 C866.601,208.11 865.175,209.288 862.602,210.621 C862.54,210.528 862.54,210.528 862.416,210.373 C862.013,209.753 861.827,209.505 861.424,209.133 C863.687,208.048 864.958,207.087 866.136,205.599 C867.407,203.956 867.934,202.499 868.213,200.019 L865.02,200.019 C863.966,200.019 863.067,200.081 862.168,200.174 L862.168,198.097 C862.974,198.19 863.873,198.252 864.958,198.252 L870.848,198.252 L870.848,194.036 L866.105,194.036 C865.547,194.997 865.113,195.617 864.245,196.609 C863.749,196.02 863.439,195.803 862.726,195.431 C863.718,194.377 864.4,193.385 864.958,192.176 C865.485,191.06 865.826,190.037 865.981,189.076 L867.996,189.51 C867.841,189.851 867.779,190.006 867.593,190.564 C867.252,191.463 867.159,191.742 866.88,192.238 L870.848,192.238 L870.848,190.781 C870.848,189.634 870.786,189.076 870.662,188.27 L872.894,188.27 C872.739,189.107 872.708,189.758 872.708,190.781 L872.708,192.238 Z M889.2,196.144 L887.495,196.144 C886.627,196.144 886.286,196.175 884.953,196.33 L884.953,194.253 C886.069,194.408 886.565,194.439 887.495,194.439 L889.2,194.439 L889.2,191.37 C889.2,189.82 889.169,189.262 889.014,188.332 L891.339,188.332 C891.184,189.355 891.153,190.068 891.153,191.37 L891.153,194.439 L892.424,194.439 C893.199,194.439 893.912,194.377 894.687,194.284 L894.687,196.299 C893.943,196.206 893.168,196.144 892.393,196.144 L891.153,196.144 L891.153,202.344 C892.61,201.755 893.044,201.538 894.222,200.98 L894.222,202.84 C893.075,203.398 892.61,203.615 891.153,204.266 L891.153,213.845 C891.153,215.395 890.316,216.015 888.177,216.015 C887.371,216.015 886.596,215.984 885.48,215.922 C885.418,215.085 885.356,214.806 885.046,213.938 C886.441,214.093 887.123,214.155 888.022,214.155 C888.983,214.155 889.2,214 889.2,213.287 L889.2,205.041 L886.72,205.971 C886.224,206.157 885.976,206.281 885.263,206.653 L884.705,204.514 C886.1,204.266 886.503,204.142 889.2,203.119 L889.2,196.144 Z M904.173,203.15 L908.048,203.15 C909.381,203.15 909.877,203.119 910.652,202.995 L910.652,204.979 C909.846,204.855 909.35,204.824 908.048,204.824 L904.173,204.824 L904.173,208.327 L909.877,208.327 C911.21,208.327 911.768,208.296 912.574,208.172 L912.574,210.218 C911.768,210.094 911.21,210.063 909.908,210.063 L904.173,210.063 L904.173,213.752 C904.173,214.806 904.204,215.488 904.359,216.511 L902.158,216.511 C902.313,215.395 902.344,214.775 902.344,213.721 L902.344,210.063 L896.454,210.063 C895.152,210.063 894.563,210.094 893.881,210.218 L893.881,208.172 C894.625,208.296 895.183,208.327 896.454,208.327 L902.344,208.327 L902.344,204.824 L898.593,204.824 C897.353,204.824 896.857,204.855 896.02,204.979 L896.02,202.995 C896.826,203.119 897.291,203.15 898.593,203.15 L902.344,203.15 C902.344,201.972 902.282,200.732 902.189,200.019 L904.328,200.019 C904.235,200.794 904.204,201.383 904.173,203.15 Z M909.04,189.324 L910.373,190.316 C910.001,190.781 910.001,190.781 909.691,191.277 C908.42,193.23 906.777,195.028 904.824,196.609 C906.932,197.973 908.327,198.593 912.946,200.05 C912.419,200.484 912.109,200.949 911.706,201.817 C907.397,200.112 905.568,199.182 903.398,197.632 C902.313,198.438 901.445,198.965 899.771,199.802 C898.376,200.515 897.725,200.794 895.307,201.724 C894.904,201.011 894.625,200.639 894.036,200.174 C896.919,199.399 899.895,198.066 901.941,196.64 C899.213,194.408 898.407,193.509 896.857,191.153 L896.423,191.153 C895.896,191.153 895.307,191.184 894.687,191.246 L894.687,189.355 C895.679,189.448 896.857,189.479 898.686,189.479 L906.126,189.479 C907.459,189.479 908.296,189.448 909.04,189.324 Z M907.459,191.153 L898.996,191.153 C900.174,192.858 900.887,193.602 903.398,195.648 C905.599,193.819 906.591,192.703 907.459,191.153 Z M932.228,195.121 L927.485,195.121 C926.431,197.136 925.501,198.438 923.92,200.205 C923.331,199.616 923.114,199.461 922.308,199.058 C924.478,196.733 925.749,194.749 926.989,191.711 C927.64,190.161 928.012,188.859 928.105,187.836 L930.275,188.332 C930.12,188.735 930.12,188.735 929.748,189.851 C929.407,190.874 929.19,191.37 928.291,193.447 L940.009,193.447 C941.311,193.447 942.024,193.416 942.551,193.323 L943.512,194.191 C943.357,194.408 943.357,194.408 942.861,195.586 C942.241,196.981 941.373,198.5 940.536,199.585 C939.916,199.12 939.699,198.965 938.924,198.686 C939.978,197.384 940.505,196.516 941.094,195.121 L934.15,195.121 L934.15,213.473 C934.15,215.333 933.406,215.891 930.988,215.891 C930.089,215.891 929.097,215.829 927.857,215.736 C927.826,214.868 927.733,214.465 927.485,213.659 C928.88,213.907 929.965,214.031 930.988,214.031 C932.042,214.031 932.228,213.907 932.228,213.163 L932.228,195.121 Z M920.696,196.299 L920.696,212.543 C920.696,214.062 920.758,215.302 920.851,216.294 L918.526,216.294 C918.65,215.147 918.712,214.155 918.712,212.512 L918.712,202.716 C918.712,201.476 918.743,200.608 918.836,198.996 C917.906,200.67 917.131,201.786 915.829,203.305 C915.271,202.313 915.054,202.065 914.465,201.569 C916.852,199.368 919.146,195.617 920.572,191.587 C921.161,189.913 921.347,189.2 921.533,188.084 L923.703,188.642 C923.517,189.169 923.424,189.417 923.114,190.316 C922.308,192.703 921.905,193.633 920.696,196.299 Z M943.481,211.303 L941.652,212.202 C940.722,209.35 940.722,209.35 938.986,205.103 C937.87,202.375 937.684,202.003 936.599,200.05 L938.242,199.244 C940.164,202.778 942.117,207.242 943.481,211.303 Z M927.423,199.554 L929.345,199.895 C928.477,204.142 928.229,205.103 927.516,206.994 C926.772,208.978 925.966,210.559 924.912,212.14 C924.292,211.582 924.013,211.396 923.145,211.024 C925.346,208.11 926.679,204.514 927.423,199.554 Z M952.998,193.013 L955.013,193.013 C956.563,192.982 957.462,192.951 957.741,192.92 C957.679,193.726 957.648,194.532 957.648,195.648 L957.648,211.427 C957.648,212.822 957.71,213.876 957.803,214.62 L955.757,214.62 L955.757,212.636 L949.712,212.636 L949.712,215.364 L947.635,215.364 C947.759,214.558 947.79,213.411 947.79,211.582 L947.79,195.865 C947.79,194.408 947.759,193.695 947.666,192.92 C948.317,192.982 948.875,193.013 950.425,193.013 L951.045,193.013 C951.665,191.494 952.13,189.944 952.378,188.332 L954.579,188.766 C954.021,190.44 953.463,191.99 952.998,193.013 Z M949.712,194.718 L949.712,201.631 L955.757,201.631 L955.757,194.718 L949.712,194.718 Z M949.712,203.336 L949.712,210.9 L955.757,210.9 L955.757,203.336 L949.712,203.336 Z M963.631,192.982 L971.133,192.982 C972.373,192.982 973.241,192.951 973.861,192.858 C973.768,193.416 973.768,193.664 973.737,194.811 C973.458,207.087 973.055,211.241 971.939,213.721 C971.319,215.147 970.327,215.705 968.467,215.705 C967.351,215.705 966.452,215.643 964.53,215.488 C964.468,214.589 964.344,214.062 964.003,213.287 C965.894,213.659 967.289,213.814 968.405,213.814 C969.552,213.814 969.955,213.535 970.358,212.543 C970.885,211.117 971.288,208.141 971.505,203.987 C971.66,201.507 971.691,199.368 971.722,194.811 L962.794,194.811 C961.74,196.95 960.841,198.376 959.229,200.453 C958.826,199.926 958.268,199.399 957.741,199.058 C959.632,197.043 961.151,194.408 962.298,191.246 C962.732,190.068 963.042,188.921 963.104,188.239 L965.243,188.642 C965.15,188.828 964.995,189.262 964.809,189.82 C964.437,190.905 964.127,191.742 963.631,192.982 Z M967.971,206.498 L966.204,207.583 C964.468,203.863 963.29,201.91 961.492,199.74 L963.073,198.779 C965.026,201.135 966.328,203.181 967.971,206.498 Z M995.716,199.182 L1001.11,199.182 C1002.66,199.182 1003.59,199.12 1004.582,198.996 L1004.582,201.197 C1003.528,201.104 1002.381,201.042 1001.017,201.042 L995.716,201.042 L995.716,205.754 L1001.978,205.754 C1003.559,205.754 1004.582,205.692 1005.574,205.568 L1005.574,207.8 C1004.458,207.645 1003.528,207.614 1002.04,207.614 L995.716,207.614 L995.716,212.822 C995.716,214.217 995.778,215.24 995.933,216.356 L993.484,216.356 C993.639,215.302 993.701,214.217 993.701,212.853 L993.701,207.614 L987.904,207.614 C986.385,207.614 985.424,207.676 984.339,207.8 L984.339,205.568 C985.269,205.692 986.323,205.754 987.904,205.754 L993.701,205.754 L993.701,201.042 L989.113,201.042 C987.78,201.042 986.602,201.104 985.61,201.197 L985.61,198.996 C986.478,199.12 987.439,199.182 988.927,199.182 L993.701,199.182 L993.701,191.463 C993.701,190.037 993.639,189.169 993.484,188.239 L995.933,188.239 C995.778,189.2 995.716,189.975 995.716,191.463 L995.716,199.182 Z M980.774,212.605 L980.774,202.747 C980.774,201.166 980.805,200.391 980.898,198.996 C980.03,200.763 979.596,201.507 978.108,203.46 C977.705,202.747 977.426,202.344 976.868,201.755 C979.038,199.306 980.743,196.299 982.138,192.548 C982.82,190.595 983.068,189.789 983.285,188.27 L985.455,188.828 C985.083,189.82 985.083,189.82 984.494,191.649 C984.184,192.61 983.843,193.416 982.758,195.989 L982.758,212.698 C982.758,214.124 982.82,215.271 982.913,216.325 L980.588,216.325 C980.743,215.116 980.774,214.217 980.774,212.605 Z M990.818,196.795 L988.896,197.663 C988.028,194.749 987.377,193.199 985.858,190.719 L987.718,189.913 C989.113,192.517 989.733,193.85 990.818,196.795 Z M1002.04,189.572 L1004.086,190.564 C1002.691,193.726 1001.792,195.4 1000.025,198.097 L998.289,197.167 C1000.273,194.222 1001.172,192.393 1002.04,189.572 Z M1018.78,190.254 L1021.074,190.254 L1009.914,218.619 L1007.589,218.619 L1018.78,190.254 Z M1036.512,201.755 L1036.512,210.838 C1037.256,210.683 1037.597,210.621 1038.713,210.342 L1038.713,211.954 C1038.062,212.078 1037.349,212.233 1036.512,212.419 L1036.512,213.504 C1036.512,214.899 1036.543,215.612 1036.698,216.387 L1034.559,216.387 C1034.683,215.643 1034.745,214.868 1034.745,213.504 L1034.745,212.76 C1033.133,213.07 1030.901,213.442 1028.607,213.752 C1025.414,214.186 1024.949,214.248 1023.74,214.527 L1023.244,212.481 L1023.74,212.481 C1024.329,212.481 1025.166,212.419 1026.654,212.295 L1026.654,201.755 L1026.034,201.755 C1024.856,201.755 1024.205,201.786 1023.244,201.941 L1023.244,199.926 C1023.988,200.081 1024.701,200.112 1026.065,200.112 L1048.323,200.112 C1049.718,200.112 1050.4,200.081 1051.206,199.926 L1051.206,201.941 C1050.245,201.786 1049.563,201.755 1048.354,201.755 L1036.512,201.755 Z M1034.745,201.755 L1028.483,201.755 L1028.483,203.956 L1034.745,203.956 L1034.745,201.755 Z M1034.745,205.413 L1028.483,205.413 L1028.483,207.707 L1034.745,207.707 L1034.745,205.413 Z M1034.745,209.164 L1028.483,209.164 L1028.483,212.109 C1030.839,211.799 1033.04,211.489 1034.745,211.179 L1034.745,209.164 Z M1048.323,203.801 L1049.408,204.948 C1049.191,205.258 1049.098,205.413 1048.85,205.847 C1047.362,208.451 1046.339,209.908 1045.037,211.179 C1046.68,212.512 1048.509,213.473 1051.02,214.341 C1050.493,214.961 1050.276,215.24 1049.842,216.046 C1047.207,214.93 1045.316,213.814 1043.735,212.388 C1041.844,213.969 1040.821,214.62 1038.372,215.798 C1037.969,215.054 1037.752,214.775 1037.163,214.217 C1039.643,213.194 1040.852,212.512 1042.495,211.179 C1041.007,209.629 1040.108,208.11 1039.085,205.506 C1038.496,205.537 1038.217,205.568 1037.566,205.63 L1037.566,203.801 C1038.279,203.894 1038.961,203.925 1040.201,203.925 L1045.967,203.925 C1047.114,203.925 1047.858,203.894 1048.323,203.801 Z M1046.99,205.506 L1040.821,205.506 C1041.689,207.552 1042.433,208.668 1043.735,210.032 C1045.099,208.637 1045.781,207.676 1046.99,205.506 Z M1047.548,191.711 L1047.548,195.927 C1047.548,197.043 1047.579,197.601 1047.672,198.376 C1046.68,198.283 1045.688,198.252 1044.479,198.252 L1030.281,198.252 C1028.917,198.252 1028.049,198.283 1026.933,198.376 C1027.026,197.663 1027.057,196.919 1027.057,195.927 L1027.057,191.711 C1027.057,190.688 1027.026,189.944 1026.933,189.231 C1027.987,189.324 1028.886,189.355 1030.312,189.355 L1044.324,189.355 C1045.75,189.355 1046.618,189.324 1047.672,189.231 C1047.579,189.975 1047.548,190.595 1047.548,191.711 Z M1028.886,190.936 L1028.886,193.106 L1045.719,193.106 L1045.719,190.936 L1028.886,190.936 Z M1028.886,194.594 L1028.886,196.764 L1045.719,196.764 L1045.719,194.594 L1028.886,194.594 Z M1072.348,199.058 L1078.889,199.058 C1080.346,199.058 1081.152,199.027 1081.896,198.903 L1081.896,200.949 C1080.966,200.856 1080.005,200.794 1078.92,200.794 L1064.567,200.794 C1063.482,200.794 1062.49,200.856 1061.56,200.949 L1061.56,198.903 C1062.273,199.027 1063.141,199.058 1064.567,199.058 L1070.395,199.058 L1070.395,194.315 L1066.086,194.315 C1064.939,194.315 1064.195,194.346 1063.296,194.47 L1063.296,192.424 C1064.071,192.548 1064.784,192.579 1066.117,192.579 L1070.395,192.579 L1070.395,191.618 C1070.395,189.82 1070.364,189.045 1070.209,188.239 L1072.534,188.239 C1072.379,189.014 1072.348,189.789 1072.348,191.618 L1072.348,192.579 L1077.618,192.579 C1079.044,192.579 1079.819,192.517 1080.532,192.393 L1080.532,194.47 C1079.571,194.346 1078.827,194.315 1077.649,194.315 L1072.348,194.315 L1072.348,199.058 Z M1072.348,205.568 L1078.021,205.568 C1079.416,205.568 1080.16,205.537 1080.935,205.382 L1080.935,207.49 C1079.974,207.366 1079.137,207.335 1078.021,207.335 L1072.348,207.335 L1072.348,212.884 L1079.106,212.884 C1080.377,212.884 1081.369,212.822 1082.206,212.698 L1082.206,214.837 C1081.307,214.713 1080.315,214.651 1079.106,214.651 L1063.916,214.651 C1062.645,214.651 1061.622,214.713 1060.754,214.837 L1060.754,212.698 C1061.591,212.822 1062.614,212.884 1063.947,212.884 L1070.395,212.884 L1070.395,207.335 L1065.497,207.335 C1064.35,207.335 1063.575,207.366 1062.583,207.49 L1062.583,205.413 C1063.42,205.537 1064.133,205.568 1065.497,205.568 L1070.395,205.568 L1070.395,205.103 C1070.395,203.398 1070.364,202.561 1070.209,201.755 L1072.534,201.755 C1072.379,202.499 1072.348,203.336 1072.348,205.103 L1072.348,205.568 Z M1057.623,212.388 L1057.623,202.282 C1057.623,200.887 1057.654,199.833 1057.747,198.5 C1056.755,200.267 1056.042,201.259 1054.554,202.995 C1054.213,202.251 1053.872,201.755 1053.345,201.197 C1055.763,198.717 1057.623,195.865 1059.049,192.393 C1059.793,190.626 1060.289,189.107 1060.444,188.053 L1062.614,188.735 C1062.49,189.076 1062.49,189.076 1061.963,190.409 C1061.219,192.393 1060.506,193.912 1059.576,195.679 L1059.576,212.481 C1059.576,213.907 1059.638,214.992 1059.793,216.108 L1057.406,216.108 C1057.561,215.023 1057.623,214.093 1057.623,212.388 Z M1088.995,196.175 L1088.065,196.175 C1087.073,196.175 1086.298,196.237 1085.523,196.361 L1085.523,194.253 C1086.298,194.377 1087.135,194.439 1088.251,194.439 L1089.367,194.439 C1089.894,192.207 1090.235,189.789 1090.235,188.549 C1090.235,188.456 1090.235,188.301 1090.204,188.115 L1092.467,188.332 C1092.343,188.828 1092.281,189.138 1092.033,190.719 C1091.909,191.556 1091.568,193.416 1091.351,194.439 L1094.048,194.439 C1095.319,194.439 1096.156,194.408 1096.869,194.315 C1096.807,194.749 1096.807,194.749 1096.714,195.71 C1096.249,200.763 1095.195,204.824 1093.614,207.738 C1093.521,207.893 1093.521,207.893 1093.459,207.986 C1094.575,208.978 1095.195,209.598 1096.9,211.52 L1095.536,213.163 C1094.203,211.489 1093.738,210.993 1092.467,209.691 L1092.281,209.939 C1090.762,212.326 1089.212,213.814 1086.36,215.829 C1085.926,215.147 1085.554,214.682 1084.996,214.186 C1087.724,212.512 1089.429,210.869 1091.041,208.389 C1088.902,206.591 1088.313,206.188 1086.081,204.824 C1087.29,202.096 1088.189,199.43 1088.995,196.175 Z M1094.73,196.175 L1090.948,196.175 C1090.049,199.523 1089.522,201.228 1088.406,204.111 C1090.08,205.258 1090.607,205.63 1092.002,206.715 C1093.459,203.894 1094.234,200.825 1094.73,196.175 Z M1106.014,201.383 L1111.129,201.383 C1112.462,201.383 1113.082,201.352 1113.888,201.197 L1113.888,203.398 C1113.051,203.243 1112.4,203.212 1111.129,203.212 L1106.014,203.212 L1106.014,213.349 C1106.014,215.426 1105.456,215.86 1102.945,215.86 C1102.108,215.86 1100.868,215.767 1099.225,215.612 C1099.163,214.713 1099.07,214.341 1098.791,213.504 C1100.589,213.783 1101.922,213.938 1102.821,213.938 C1103.813,213.938 1104.03,213.845 1104.03,213.287 L1104.03,203.212 L1099.845,203.212 C1098.605,203.212 1097.861,203.274 1097.024,203.398 L1097.024,201.197 C1097.768,201.352 1098.388,201.383 1099.814,201.383 L1104.03,201.383 L1104.03,200.081 C1104.03,198.965 1103.968,198.159 1103.813,197.043 L1104.898,197.043 C1106.882,195.462 1108.091,194.16 1109.672,191.928 L1100.93,191.928 C1099.783,191.928 1098.667,191.99 1097.892,192.114 L1097.892,189.913 C1098.698,190.037 1099.721,190.099 1101.023,190.099 L1108.99,190.099 C1110.261,190.099 1110.881,190.068 1111.377,189.944 L1112.524,191.37 C1112.307,191.587 1112.307,191.587 1110.323,194.129 C1109.331,195.369 1107.967,196.733 1106.014,198.376 L1106.014,201.383 Z M1138.936,199.182 L1140.021,200.453 C1139.835,200.763 1139.68,201.042 1139.153,202.127 C1137.851,204.7 1136.208,207.025 1134.193,209.133 C1135.805,210.311 1136.27,210.652 1137.51,211.334 C1139.773,212.605 1141.602,213.349 1144.516,214.124 C1143.834,214.868 1143.555,215.271 1143.152,216.139 C1139.06,214.713 1135.526,212.791 1132.798,210.466 C1129.729,213.163 1126.908,214.682 1122.258,216.17 C1121.917,215.364 1121.669,214.992 1121.018,214.279 C1125.544,213.07 1128.303,211.706 1131.341,209.195 C1128.768,206.591 1127.435,204.607 1126.195,201.631 C1124.49,207.428 1121.979,211.458 1117.484,215.55 C1116.678,214.496 1116.585,214.403 1115.934,213.907 C1118.104,212.078 1119.282,210.838 1120.646,208.854 C1123.188,205.196 1124.769,200.608 1125.451,194.749 L1119.778,194.749 C1118.445,194.749 1117.267,194.811 1116.523,194.935 L1116.523,192.703 C1117.391,192.827 1118.383,192.889 1119.778,192.889 L1125.668,192.889 C1125.761,191.835 1125.854,190.595 1125.854,189.789 C1125.854,189.2 1125.823,188.797 1125.73,188.115 L1128.148,188.146 C1128.024,188.766 1127.993,189.107 1127.869,191.06 C1127.807,191.835 1127.776,192.238 1127.714,192.889 L1140.734,192.889 C1142.16,192.889 1143.121,192.827 1144.02,192.703 L1144.02,194.935 C1143.028,194.811 1142.191,194.749 1140.734,194.749 L1127.497,194.749 C1127.249,196.888 1127.094,197.787 1126.753,199.337 L1136.177,199.337 C1137.541,199.337 1138.285,199.306 1138.936,199.182 Z M1137.479,201.104 L1127.931,201.104 C1128.675,202.809 1129.109,203.584 1130.132,204.979 C1131,206.126 1131.651,206.87 1132.736,207.893 C1134.751,205.847 1136.239,203.677 1137.479,201.104 Z" id="选择你的伴/最佳好友" fill="#FFFFFF" fill-rule="nonzero"></path>
            </g>
        </g>
    </g>
</svg>